<svg width="854" height="1707" viewBox="0 0 854 1707" fill="none" xmlns="http://www.w3.org/2000/svg">
<g clip-path="url(#clip0_73_49)">
<path d="M468.667 1.86593C449.467 6.13259 436.267 14.5326 424.8 29.7326C417.734 39.0659 414.667 46.1326 411.334 61.3326C407.734 77.8659 406.8 89.7326 408.4 97.9993C409.2 101.599 409.6 104.799 409.467 104.933C409.334 105.066 406.534 104.266 403.334 103.199C397.467 101.199 397.334 101.199 394.4 104.533C390.534 109.066 389.334 118.133 391.334 126.933C393.734 136.933 407.2 162.133 411.2 163.999C413.467 165.066 414.8 165.066 415.867 163.999C419.067 160.799 418.8 159.866 423.334 206.399C424.134 213.866 424.667 225.866 424.667 232.799C424.667 253.999 421.334 257.866 389.867 274.266C378.534 280.133 363.334 288.666 356.134 293.199C337.467 304.933 331.6 307.599 318.4 310.666C302.534 314.399 288.4 319.599 281.2 324.266C267.067 333.733 255.334 351.866 246.667 377.733C238 403.866 236.134 428.266 241.734 445.599C245.067 455.866 244.934 492.799 241.467 501.333C234.267 519.466 229.2 547.866 227.867 575.999L227.067 593.999L217.334 613.333C205.6 636.533 194 662.799 190.267 674.666C188 681.599 187.2 689.466 186 713.999C185.2 730.799 184.134 746.133 183.734 747.999C181.867 756.533 160.667 825.599 158.8 829.066C155.6 835.333 148.8 839.333 136 842.533C129.734 844.133 109.2 857.199 96.1338 867.866C86.9338 875.333 68.4004 896.266 65.7338 902.133C64.5338 904.666 64.6671 905.866 66.6671 907.999C69.7338 911.333 72.0004 911.333 81.6004 907.866C86.6671 906.133 91.0671 903.333 94.2671 899.866C97.2004 896.666 101.2 893.999 104.267 893.066C107.067 892.399 111.2 890.266 113.6 888.533C117.467 885.599 118 885.466 119.867 887.466C121.067 888.533 122 889.999 122 890.533C122 891.466 119.867 918.399 115.334 976.533C113.6 997.999 114.934 1003.6 121.467 1002.8C122.267 1002.67 123.467 1004.93 124.134 1007.6C125.734 1014.27 130 1015.07 135.334 1010L139.2 1006.27L142.4 1010.13C145.467 1013.73 146 1013.87 149.2 1012.13C151.067 1011.07 154.8 1007.07 157.6 1003.07C160.934 998.266 162.934 996.399 163.867 997.333C166.4 999.866 170 998.666 175.467 992.933C189.334 978.666 198.534 962.266 208.4 933.999C218.4 905.733 219.734 897.999 219.867 869.999L220 845.999L248.8 788.666C282.134 722.266 287.6 707.733 291.467 675.333C292.8 663.733 293.6 661.066 298.4 653.466C303.334 645.199 303.734 643.999 304.934 629.333C306 615.999 306.934 612.133 312 599.333C317.734 585.066 322.134 570.133 324 559.466C324.4 556.666 325.334 554.799 325.867 555.466C326.4 556.133 329.734 569.599 333.067 585.333C340.934 621.333 342.134 642.933 338.8 681.333C337.6 694.933 336.4 715.866 336.134 727.999C335.734 743.199 334.534 756.133 332.134 769.999C326.667 802.399 324.667 821.599 323.867 851.999C322.934 880.266 324.534 915.066 327.467 935.333C329.067 945.599 338.667 988.533 350.8 1038.67C359.6 1075.07 370 1108.27 376.4 1120.67C383.334 1134.13 389.867 1169.33 391.334 1202C392.134 1216.67 393.334 1234.4 394 1241.33C396 1259.47 395.734 1262.13 391.067 1296.4C385.467 1338.27 385.467 1352.8 391.2 1386C396.4 1416.4 402.134 1442.4 406.667 1456C410.534 1467.87 419.334 1507.2 423.467 1530.67C428.4 1559.6 425.6 1579.87 415.067 1591.87C412.667 1594.67 406.8 1602.4 402 1609.33C389.6 1627.33 384.267 1632.67 365.6 1646L348.8 1658L348 1664.8C346.534 1676.27 352.134 1690.67 358.267 1690.67C359.734 1690.67 360.667 1691.6 360.667 1693.2C360.667 1696.67 364 1699.07 369.067 1699.2C371.334 1699.33 375.2 1700.4 377.6 1701.73C382.8 1704.53 385.867 1704.67 389.6 1702C392.134 1700.13 392.534 1700.27 394.534 1703.33C396.534 1706.27 397.6 1706.67 405.067 1706.67C413.467 1706.67 413.467 1706.67 420.534 1699.47C425.867 1694.13 428.934 1692.13 432.667 1691.47C438.667 1690.53 453.867 1678.4 466.8 1664.27C472.267 1658.13 476.8 1654.53 479.334 1654C486.534 1652.4 493.6 1646 496.134 1638.8L498.534 1632.27L500.8 1637.33C502.134 1640.13 505.734 1644.67 508.934 1647.47C512.134 1650.27 522.534 1660.4 532.134 1670.13C541.867 1679.87 551.734 1688.8 554.134 1690.13C556.667 1691.33 560.667 1694.13 563.067 1696.13C574.4 1706 584.934 1707.87 592.8 1701.33L597.6 1697.47L600.667 1700.67C602.4 1702.53 605.067 1704 606.667 1704C609.734 1704 614 1700.27 614 1697.6C614 1696.67 615.734 1696 617.867 1696C623.867 1696 626 1694.67 626 1691.2C626 1688.8 626.667 1688 629.067 1688C633.2 1688 635.334 1685.6 635.334 1680.8C635.334 1678 636.4 1675.87 638.934 1673.87C642.4 1671.07 642.4 1670.93 640.934 1663.2C639.467 1656.13 638.4 1654.4 629.6 1645.6C624.4 1640.13 617.2 1634.4 613.867 1632.67C607.334 1629.33 603.067 1624.67 584.267 1600.4C573.734 1586.93 572.667 1585.07 572.667 1579.73C572.667 1576.53 571.334 1570.67 569.734 1566.67C567.067 1560.27 566.8 1556.93 566.8 1540C566.8 1521.2 567.067 1519.73 574.267 1489.33C578.4 1472.13 582.667 1450.53 583.867 1441.33C586.267 1422.93 588.934 1410.8 591.867 1406.27C595.467 1400.8 602.4 1360.93 604.8 1332.53C606.534 1312 605.2 1291.47 601.467 1281.73C600.267 1278.93 598.534 1269.73 597.467 1261.33C593.6 1231.73 593.6 1225.2 597.067 1194.67C598.934 1178.93 600.8 1160.27 601.334 1153.33C602.134 1142.27 603.734 1135.87 614.8 1102C633.467 1044.53 638.134 1020.4 644.667 948.666C653.067 855.333 651.6 814.799 637.734 755.999C635.334 745.733 635.067 740.266 635.2 697.999C635.2 672.266 634.8 645.599 634.267 638.666C632.8 621.999 634.534 593.599 638.667 563.066C640.534 549.466 642 537.333 642 536.133C642 534.533 642.667 534.799 644.667 537.333C649.867 543.733 656.534 559.466 660.667 574.533C665.867 593.733 670.667 605.066 679.6 618.933L686.667 629.999L687.467 667.333C688.4 709.599 691.467 731.199 702 771.333C706.134 787.199 709.334 803.066 710.8 814.666C711.2 818.666 712.534 824.266 713.467 827.199C715.6 832.933 716 851.466 714.134 856.266C713.467 857.999 708.667 864.133 703.6 869.999C698.4 875.866 691.334 885.733 687.867 891.999C672.134 920.666 669.067 925.999 664.267 931.466L659.2 937.333L662.534 940.666C668.534 946.666 676.534 944.666 686.8 934.533L693.6 927.866L694.534 936.266C696 951.066 707.334 1004.4 710.134 1010.4C712.134 1014.27 714.534 1016.93 718.134 1018.8C722.534 1020.93 723.334 1022 723.334 1025.73C723.334 1028 724.534 1032 726 1034.27C728 1037.73 729.467 1038.67 732.8 1038.67C736.134 1038.67 737.2 1037.87 738.4 1034.67L739.867 1030.67L743.6 1034.27C746.534 1037.07 747.867 1037.6 749.6 1036.53C752.667 1034.67 757.734 1024.4 758.667 1018.67C759.334 1014.13 759.6 1013.87 763.734 1014.27C771.734 1015.07 773.2 1012.27 781.2 982.399C787.734 957.999 788.534 953.199 789.867 933.333L791.334 911.333L786 892.666L780.8 873.999L781.334 815.999C781.734 784.133 782.534 752.933 783.334 746.666C785.467 728.799 786.4 675.333 784.8 663.333C784.134 657.466 782.4 642.399 781.2 629.999C779.067 607.999 778.8 606.799 771.334 587.333C767.067 576.266 761.734 559.199 759.334 549.333C749.867 509.466 745.734 494.133 742 483.733C739.734 477.733 738 470.266 738 467.066C738 463.199 736.8 459.599 734.267 455.466C730.934 450.266 730.267 447.733 729.6 435.733C727.067 394.399 711.067 354.533 686.267 327.733C675.867 316.533 656.8 307.599 632.667 302.533C626.534 301.199 620.134 297.333 593.334 279.066C575.734 266.933 560.667 256.799 559.867 256.399C559.067 256.133 557.734 253.599 556.934 250.799C556 247.999 554.134 244.666 552.667 243.333C550.134 241.066 550 239.199 550 215.599C550 190.799 550 190.266 553.334 186.533C556.8 182.399 559.334 175.066 559.334 169.066C559.334 163.333 560.667 161.333 564.667 161.333C573.734 161.333 581.734 143.199 582.8 120.666C583.6 104.666 582.267 100.933 575.6 100.266C573.2 99.9993 570.134 100.666 568.934 101.599C567.067 103.066 566.934 102.933 567.867 100.666C568.4 99.1993 569.2 91.5993 569.6 83.8659C570.267 70.7993 570.134 68.7993 566.667 58.5326C558 32.1326 549.067 21.4659 526.934 10.6659C506.267 0.532593 487.334 -2.26741 468.667 1.86593ZM494.134 1082C494.267 1101.73 494.4 1140.93 494.267 1169.07C494 1219.47 495.2 1238.93 499.334 1253.33C501.734 1261.87 500.934 1278.53 497.467 1290.67C495.734 1296.93 494 1303.2 493.6 1304.67C493.2 1306.8 492.934 1306.53 492.134 1303.33C491.6 1301.07 489.334 1293.47 487.2 1286.27C483.6 1274.53 483.334 1272.4 484.534 1266.27C485.334 1262.4 486.134 1256 486.267 1252C486.4 1248 487.867 1238.93 489.734 1232L493.067 1219.33L491.334 1140C490.4 1091.73 490.134 1050.8 490.8 1035.33L491.867 1010L492.8 1028C493.2 1037.87 493.867 1062.13 494.134 1082ZM499.334 1422.67C501.6 1448.67 503.734 1471.47 504.134 1473.2C505.467 1479.2 504.934 1523.33 503.334 1530C502.534 1533.6 500.667 1544.67 499.334 1554.4C497.067 1570.13 497.067 1572.8 498.667 1578.4C500.667 1584.93 501.2 1608 499.334 1615.33L498.4 1619.33L497.467 1614C496.8 1611.07 495.6 1605.87 494.667 1602.53C493.334 1597.73 493.2 1593.73 494.267 1585.33C495.734 1573.47 494.667 1562.67 489.867 1536.4C487.067 1521.47 487.067 1521.2 489.467 1484.4C490.667 1464 491.867 1434.67 492 1419.33C492.267 1376.4 492.667 1366.53 494.134 1371.33C494.667 1373.47 497.067 1396.67 499.334 1422.67Z" fill="black"/>
</g>
<g clip-path="url(#clip1_73_49)">
<path d="M466.667 1.86593C447.467 6.13259 434.267 14.5326 422.8 29.7326C415.734 39.0659 412.667 46.1326 409.334 61.3326C405.734 77.8659 404.8 89.7326 406.4 97.9993C407.2 101.599 407.6 104.799 407.467 104.933C407.334 105.066 404.534 104.266 401.334 103.199C395.467 101.199 395.334 101.199 392.4 104.533C388.534 109.066 387.334 118.133 389.334 126.933C391.734 136.933 405.2 162.133 409.2 163.999C411.467 165.066 412.8 165.066 413.867 163.999C417.067 160.799 416.8 159.866 421.334 206.399C422.134 213.866 422.667 225.866 422.667 232.799C422.667 253.999 419.334 257.866 387.867 274.266C376.534 280.133 361.334 288.666 354.134 293.199C335.467 304.933 329.6 307.599 316.4 310.666C300.534 314.399 286.4 319.599 279.2 324.266C265.067 333.733 253.334 351.866 244.667 377.733C236 403.866 234.134 428.266 239.734 445.599C243.067 455.866 242.934 492.799 239.467 501.333C232.267 519.466 227.2 547.866 225.867 575.999L225.067 593.999L215.334 613.333C203.6 636.533 192 662.799 188.267 674.666C186 681.599 185.2 689.466 184 713.999C183.2 730.799 182.134 746.133 181.734 747.999C179.867 756.533 158.667 825.599 156.8 829.066C153.6 835.333 146.8 839.333 134 842.533C127.734 844.133 107.2 857.199 94.1338 867.866C84.9338 875.333 66.4004 896.266 63.7338 902.133C62.5338 904.666 62.6671 905.866 64.6671 907.999C67.7338 911.333 70.0004 911.333 79.6004 907.866C84.6671 906.133 89.0671 903.333 92.2671 899.866C95.2004 896.666 99.2004 893.999 102.267 893.066C105.067 892.399 109.2 890.266 111.6 888.533C115.467 885.599 116 885.466 117.867 887.466C119.067 888.533 120 889.999 120 890.533C120 891.466 117.867 918.399 113.334 976.533C111.6 997.999 112.934 1003.6 119.467 1002.8C120.267 1002.67 121.467 1004.93 122.134 1007.6C123.734 1014.27 128 1015.07 133.334 1010L137.2 1006.27L140.4 1010.13C143.467 1013.73 144 1013.87 147.2 1012.13C149.067 1011.07 152.8 1007.07 155.6 1003.07C158.934 998.266 160.934 996.399 161.867 997.333C164.4 999.866 168 998.666 173.467 992.933C187.334 978.666 196.534 962.266 206.4 933.999C216.4 905.733 217.734 897.999 217.867 869.999L218 845.999L246.8 788.666C280.134 722.266 285.6 707.733 289.467 675.333C290.8 663.733 291.6 661.066 296.4 653.466C301.334 645.199 301.734 643.999 302.934 629.333C304 615.999 304.934 612.133 310 599.333C315.734 585.066 320.134 570.133 322 559.466C322.4 556.666 323.334 554.799 323.867 555.466C324.4 556.133 327.734 569.599 331.067 585.333C338.934 621.333 340.134 642.933 336.8 681.333C335.6 694.933 334.4 715.866 334.134 727.999C333.734 743.199 332.534 756.133 330.134 769.999C324.667 802.399 322.667 821.599 321.867 851.999C320.934 880.266 322.534 915.066 325.467 935.333C327.067 945.599 336.667 988.533 348.8 1038.67C357.6 1075.07 368 1108.27 374.4 1120.67C381.334 1134.13 387.867 1169.33 389.334 1202C390.134 1216.67 391.334 1234.4 392 1241.33C394 1259.47 393.734 1262.13 389.067 1296.4C383.467 1338.27 383.467 1352.8 389.2 1386C394.4 1416.4 400.134 1442.4 404.667 1456C408.534 1467.87 417.334 1507.2 421.467 1530.67C426.4 1559.6 423.6 1579.87 413.067 1591.87C410.667 1594.67 404.8 1602.4 400 1609.33C387.6 1627.33 382.267 1632.67 363.6 1646L346.8 1658L346 1664.8C344.534 1676.27 350.134 1690.67 356.267 1690.67C357.734 1690.67 358.667 1691.6 358.667 1693.2C358.667 1696.67 362 1699.07 367.067 1699.2C369.334 1699.33 373.2 1700.4 375.6 1701.73C380.8 1704.53 383.867 1704.67 387.6 1702C390.134 1700.13 390.534 1700.27 392.534 1703.33C394.534 1706.27 395.6 1706.67 403.067 1706.67C411.467 1706.67 411.467 1706.67 418.534 1699.47C423.867 1694.13 426.934 1692.13 430.667 1691.47C436.667 1690.53 451.867 1678.4 464.8 1664.27C470.267 1658.13 474.8 1654.53 477.334 1654C484.534 1652.4 491.6 1646 494.134 1638.8L496.534 1632.27L498.8 1637.33C500.134 1640.13 503.734 1644.67 506.934 1647.47C510.134 1650.27 520.534 1660.4 530.134 1670.13C539.867 1679.87 549.734 1688.8 552.134 1690.13C554.667 1691.33 558.667 1694.13 561.067 1696.13C572.4 1706 582.934 1707.87 590.8 1701.33L595.6 1697.47L598.667 1700.67C600.4 1702.53 603.067 1704 604.667 1704C607.734 1704 612 1700.27 612 1697.6C612 1696.67 613.734 1696 615.867 1696C621.867 1696 624 1694.67 624 1691.2C624 1688.8 624.667 1688 627.067 1688C631.2 1688 633.334 1685.6 633.334 1680.8C633.334 1678 634.4 1675.87 636.934 1673.87C640.4 1671.07 640.4 1670.93 638.934 1663.2C637.467 1656.13 636.4 1654.4 627.6 1645.6C622.4 1640.13 615.2 1634.4 611.867 1632.67C605.334 1629.33 601.067 1624.67 582.267 1600.4C571.734 1586.93 570.667 1585.07 570.667 1579.73C570.667 1576.53 569.334 1570.67 567.734 1566.67C565.067 1560.27 564.8 1556.93 564.8 1540C564.8 1521.2 565.067 1519.73 572.267 1489.33C576.4 1472.13 580.667 1450.53 581.867 1441.33C584.267 1422.93 586.934 1410.8 589.867 1406.27C593.467 1400.8 600.4 1360.93 602.8 1332.53C604.534 1312 603.2 1291.47 599.467 1281.73C598.267 1278.93 596.534 1269.73 595.467 1261.33C591.6 1231.73 591.6 1225.2 595.067 1194.67C596.934 1178.93 598.8 1160.27 599.334 1153.33C600.134 1142.27 601.734 1135.87 612.8 1102C631.467 1044.53 636.134 1020.4 642.667 948.666C651.067 855.333 649.6 814.799 635.734 755.999C633.334 745.733 633.067 740.266 633.2 697.999C633.2 672.266 632.8 645.599 632.267 638.666C630.8 621.999 632.534 593.599 636.667 563.066C638.534 549.466 640 537.333 640 536.133C640 534.533 640.667 534.799 642.667 537.333C647.867 543.733 654.534 559.466 658.667 574.533C663.867 593.733 668.667 605.066 677.6 618.933L684.667 629.999L685.467 667.333C686.4 709.599 689.467 731.199 700 771.333C704.134 787.199 707.334 803.066 708.8 814.666C709.2 818.666 710.534 824.266 711.467 827.199C713.6 832.933 714 851.466 712.134 856.266C711.467 857.999 706.667 864.133 701.6 869.999C696.4 875.866 689.334 885.733 685.867 891.999C670.134 920.666 667.067 925.999 662.267 931.466L657.2 937.333L660.534 940.666C666.534 946.666 674.534 944.666 684.8 934.533L691.6 927.866L692.534 936.266C694 951.066 705.334 1004.4 708.134 1010.4C710.134 1014.27 712.534 1016.93 716.134 1018.8C720.534 1020.93 721.334 1022 721.334 1025.73C721.334 1028 722.534 1032 724 1034.27C726 1037.73 727.467 1038.67 730.8 1038.67C734.134 1038.67 735.2 1037.87 736.4 1034.67L737.867 1030.67L741.6 1034.27C744.534 1037.07 745.867 1037.6 747.6 1036.53C750.667 1034.67 755.734 1024.4 756.667 1018.67C757.334 1014.13 757.6 1013.87 761.734 1014.27C769.734 1015.07 771.2 1012.27 779.2 982.399C785.734 957.999 786.534 953.199 787.867 933.333L789.334 911.333L784 892.666L778.8 873.999L779.334 815.999C779.734 784.133 780.534 752.933 781.334 746.666C783.467 728.799 784.4 675.333 782.8 663.333C782.134 657.466 780.4 642.399 779.2 629.999C777.067 607.999 776.8 606.799 769.334 587.333C765.067 576.266 759.734 559.199 757.334 549.333C747.867 509.466 743.734 494.133 740 483.733C737.734 477.733 736 470.266 736 467.066C736 463.199 734.8 459.599 732.267 455.466C728.934 450.266 728.267 447.733 727.6 435.733C725.067 394.399 709.067 354.533 684.267 327.733C673.867 316.533 654.8 307.599 630.667 302.533C624.534 301.199 618.134 297.333 591.334 279.066C573.734 266.933 558.667 256.799 557.867 256.399C557.067 256.133 555.734 253.599 554.934 250.799C554 247.999 552.134 244.666 550.667 243.333C548.134 241.066 548 239.199 548 215.599C548 190.799 548 190.266 551.334 186.533C554.8 182.399 557.334 175.066 557.334 169.066C557.334 163.333 558.667 161.333 562.667 161.333C571.734 161.333 579.734 143.199 580.8 120.666C581.6 104.666 580.267 100.933 573.6 100.266C571.2 99.9993 568.134 100.666 566.934 101.599C565.067 103.066 564.934 102.933 565.867 100.666C566.4 99.1993 567.2 91.5993 567.6 83.8659C568.267 70.7993 568.134 68.7993 564.667 58.5326C556 32.1326 547.067 21.4659 524.934 10.6659C504.267 0.532593 485.334 -2.26741 466.667 1.86593ZM492.134 1082C492.267 1101.73 492.4 1140.93 492.267 1169.07C492 1219.47 493.2 1238.93 497.334 1253.33C499.734 1261.87 498.934 1278.53 495.467 1290.67C493.734 1296.93 492 1303.2 491.6 1304.67C491.2 1306.8 490.934 1306.53 490.134 1303.33C489.6 1301.07 487.334 1293.47 485.2 1286.27C481.6 1274.53 481.334 1272.4 482.534 1266.27C483.334 1262.4 484.134 1256 484.267 1252C484.4 1248 485.867 1238.93 487.734 1232L491.067 1219.33L489.334 1140C488.4 1091.73 488.134 1050.8 488.8 1035.33L489.867 1010L490.8 1028C491.2 1037.87 491.867 1062.13 492.134 1082ZM497.334 1422.67C499.6 1448.67 501.734 1471.47 502.134 1473.2C503.467 1479.2 502.934 1523.33 501.334 1530C500.534 1533.6 498.667 1544.67 497.334 1554.4C495.067 1570.13 495.067 1572.8 496.667 1578.4C498.667 1584.93 499.2 1608 497.334 1615.33L496.4 1619.33L495.467 1614C494.8 1611.07 493.6 1605.87 492.667 1602.53C491.334 1597.73 491.2 1593.73 492.267 1585.33C493.734 1573.47 492.667 1562.67 487.867 1536.4C485.067 1521.47 485.067 1521.2 487.467 1484.4C488.667 1464 489.867 1434.67 490 1419.33C490.267 1376.4 490.667 1366.53 492.134 1371.33C492.667 1373.47 495.067 1396.67 497.334 1422.67Z" fill="black"/>
</g>
<g clip-path="url(#clip2_73_49)">
<path d="M466.667 1.86593C447.467 6.13259 434.267 14.5326 422.8 29.7326C415.734 39.0659 412.667 46.1326 409.334 61.3326C405.734 77.8659 404.8 89.7326 406.4 97.9993C407.2 101.599 407.6 104.799 407.467 104.933C407.334 105.066 404.534 104.266 401.334 103.199C395.467 101.199 395.334 101.199 392.4 104.533C388.534 109.066 387.334 118.133 389.334 126.933C391.734 136.933 405.2 162.133 409.2 163.999C411.467 165.066 412.8 165.066 413.867 163.999C417.067 160.799 416.8 159.866 421.334 206.399C422.134 213.866 422.667 225.866 422.667 232.799C422.667 253.999 419.334 257.866 387.867 274.266C376.534 280.133 361.334 288.666 354.134 293.199C335.467 304.933 329.6 307.599 316.4 310.666C300.534 314.399 286.4 319.599 279.2 324.266C265.067 333.733 253.334 351.866 244.667 377.733C236 403.866 234.134 428.266 239.734 445.599C243.067 455.866 242.934 492.799 239.467 501.333C232.267 519.466 227.2 547.866 225.867 575.999L225.067 593.999L215.334 613.333C203.6 636.533 192 662.799 188.267 674.666C186 681.599 185.2 689.466 184 713.999C183.2 730.799 182.134 746.133 181.734 747.999C179.867 756.533 158.667 825.599 156.8 829.066C153.6 835.333 146.8 839.333 134 842.533C127.734 844.133 107.2 857.199 94.1338 867.866C84.9338 875.333 66.4004 896.266 63.7338 902.133C62.5338 904.666 62.6671 905.866 64.6671 907.999C67.7338 911.333 70.0004 911.333 79.6004 907.866C84.6671 906.133 89.0671 903.333 92.2671 899.866C95.2004 896.666 99.2004 893.999 102.267 893.066C105.067 892.399 109.2 890.266 111.6 888.533C115.467 885.599 116 885.466 117.867 887.466C119.067 888.533 120 889.999 120 890.533C120 891.466 117.867 918.399 113.334 976.533C111.6 997.999 112.934 1003.6 119.467 1002.8C120.267 1002.67 121.467 1004.93 122.134 1007.6C123.734 1014.27 128 1015.07 133.334 1010L137.2 1006.27L140.4 1010.13C143.467 1013.73 144 1013.87 147.2 1012.13C149.067 1011.07 152.8 1007.07 155.6 1003.07C158.934 998.266 160.934 996.399 161.867 997.333C164.4 999.866 168 998.666 173.467 992.933C187.334 978.666 196.534 962.266 206.4 933.999C216.4 905.733 217.734 897.999 217.867 869.999L218 845.999L246.8 788.666C280.134 722.266 285.6 707.733 289.467 675.333C290.8 663.733 291.6 661.066 296.4 653.466C301.334 645.199 301.734 643.999 302.934 629.333C304 615.999 304.934 612.133 310 599.333C315.734 585.066 320.134 570.133 322 559.466C322.4 556.666 323.334 554.799 323.867 555.466C324.4 556.133 327.734 569.599 331.067 585.333C338.934 621.333 340.134 642.933 336.8 681.333C335.6 694.933 334.4 715.866 334.134 727.999C333.734 743.199 332.534 756.133 330.134 769.999C324.667 802.399 322.667 821.599 321.867 851.999C320.934 880.266 322.534 915.066 325.467 935.333C327.067 945.599 336.667 988.533 348.8 1038.67C357.6 1075.07 368 1108.27 374.4 1120.67C381.334 1134.13 387.867 1169.33 389.334 1202C390.134 1216.67 391.334 1234.4 392 1241.33C394 1259.47 393.734 1262.13 389.067 1296.4C383.467 1338.27 383.467 1352.8 389.2 1386C394.4 1416.4 400.134 1442.4 404.667 1456C408.534 1467.87 417.334 1507.2 421.467 1530.67C426.4 1559.6 423.6 1579.87 413.067 1591.87C410.667 1594.67 404.8 1602.4 400 1609.33C387.6 1627.33 382.267 1632.67 363.6 1646L346.8 1658L346 1664.8C344.534 1676.27 350.134 1690.67 356.267 1690.67C357.734 1690.67 358.667 1691.6 358.667 1693.2C358.667 1696.67 362 1699.07 367.067 1699.2C369.334 1699.33 373.2 1700.4 375.6 1701.73C380.8 1704.53 383.867 1704.67 387.6 1702C390.134 1700.13 390.534 1700.27 392.534 1703.33C394.534 1706.27 395.6 1706.67 403.067 1706.67C411.467 1706.67 411.467 1706.67 418.534 1699.47C423.867 1694.13 426.934 1692.13 430.667 1691.47C436.667 1690.53 451.867 1678.4 464.8 1664.27C470.267 1658.13 474.8 1654.53 477.334 1654C484.534 1652.4 491.6 1646 494.134 1638.8L496.534 1632.27L498.8 1637.33C500.134 1640.13 503.734 1644.67 506.934 1647.47C510.134 1650.27 520.534 1660.4 530.134 1670.13C539.867 1679.87 549.734 1688.8 552.134 1690.13C554.667 1691.33 558.667 1694.13 561.067 1696.13C572.4 1706 582.934 1707.87 590.8 1701.33L595.6 1697.47L598.667 1700.67C600.4 1702.53 603.067 1704 604.667 1704C607.734 1704 612 1700.27 612 1697.6C612 1696.67 613.734 1696 615.867 1696C621.867 1696 624 1694.67 624 1691.2C624 1688.8 624.667 1688 627.067 1688C631.2 1688 633.334 1685.6 633.334 1680.8C633.334 1678 634.4 1675.87 636.934 1673.87C640.4 1671.07 640.4 1670.93 638.934 1663.2C637.467 1656.13 636.4 1654.4 627.6 1645.6C622.4 1640.13 615.2 1634.4 611.867 1632.67C605.334 1629.33 601.067 1624.67 582.267 1600.4C571.734 1586.93 570.667 1585.07 570.667 1579.73C570.667 1576.53 569.334 1570.67 567.734 1566.67C565.067 1560.27 564.8 1556.93 564.8 1540C564.8 1521.2 565.067 1519.73 572.267 1489.33C576.4 1472.13 580.667 1450.53 581.867 1441.33C584.267 1422.93 586.934 1410.8 589.867 1406.27C593.467 1400.8 600.4 1360.93 602.8 1332.53C604.534 1312 603.2 1291.47 599.467 1281.73C598.267 1278.93 596.534 1269.73 595.467 1261.33C591.6 1231.73 591.6 1225.2 595.067 1194.67C596.934 1178.93 598.8 1160.27 599.334 1153.33C600.134 1142.27 601.734 1135.87 612.8 1102C631.467 1044.53 636.134 1020.4 642.667 948.666C651.067 855.333 649.6 814.799 635.734 755.999C633.334 745.733 633.067 740.266 633.2 697.999C633.2 672.266 632.8 645.599 632.267 638.666C630.8 621.999 632.534 593.599 636.667 563.066C638.534 549.466 640 537.333 640 536.133C640 534.533 640.667 534.799 642.667 537.333C647.867 543.733 654.534 559.466 658.667 574.533C663.867 593.733 668.667 605.066 677.6 618.933L684.667 629.999L685.467 667.333C686.4 709.599 689.467 731.199 700 771.333C704.134 787.199 707.334 803.066 708.8 814.666C709.2 818.666 710.534 824.266 711.467 827.199C713.6 832.933 714 851.466 712.134 856.266C711.467 857.999 706.667 864.133 701.6 869.999C696.4 875.866 689.334 885.733 685.867 891.999C670.134 920.666 667.067 925.999 662.267 931.466L657.2 937.333L660.534 940.666C666.534 946.666 674.534 944.666 684.8 934.533L691.6 927.866L692.534 936.266C694 951.066 705.334 1004.4 708.134 1010.4C710.134 1014.27 712.534 1016.93 716.134 1018.8C720.534 1020.93 721.334 1022 721.334 1025.73C721.334 1028 722.534 1032 724 1034.27C726 1037.73 727.467 1038.67 730.8 1038.67C734.134 1038.67 735.2 1037.87 736.4 1034.67L737.867 1030.67L741.6 1034.27C744.534 1037.07 745.867 1037.6 747.6 1036.53C750.667 1034.67 755.734 1024.4 756.667 1018.67C757.334 1014.13 757.6 1013.87 761.734 1014.27C769.734 1015.07 771.2 1012.27 779.2 982.399C785.734 957.999 786.534 953.199 787.867 933.333L789.334 911.333L784 892.666L778.8 873.999L779.334 815.999C779.734 784.133 780.534 752.933 781.334 746.666C783.467 728.799 784.4 675.333 782.8 663.333C782.134 657.466 780.4 642.399 779.2 629.999C777.067 607.999 776.8 606.799 769.334 587.333C765.067 576.266 759.734 559.199 757.334 549.333C747.867 509.466 743.734 494.133 740 483.733C737.734 477.733 736 470.266 736 467.066C736 463.199 734.8 459.599 732.267 455.466C728.934 450.266 728.267 447.733 727.6 435.733C725.067 394.399 709.067 354.533 684.267 327.733C673.867 316.533 654.8 307.599 630.667 302.533C624.534 301.199 618.134 297.333 591.334 279.066C573.734 266.933 558.667 256.799 557.867 256.399C557.067 256.133 555.734 253.599 554.934 250.799C554 247.999 552.134 244.666 550.667 243.333C548.134 241.066 548 239.199 548 215.599C548 190.799 548 190.266 551.334 186.533C554.8 182.399 557.334 175.066 557.334 169.066C557.334 163.333 558.667 161.333 562.667 161.333C571.734 161.333 579.734 143.199 580.8 120.666C581.6 104.666 580.267 100.933 573.6 100.266C571.2 99.9993 568.134 100.666 566.934 101.599C565.067 103.066 564.934 102.933 565.867 100.666C566.4 99.1993 567.2 91.5993 567.6 83.8659C568.267 70.7993 568.134 68.7993 564.667 58.5326C556 32.1326 547.067 21.4659 524.934 10.6659C504.267 0.532593 485.334 -2.26741 466.667 1.86593ZM492.134 1082C492.267 1101.73 492.4 1140.93 492.267 1169.07C492 1219.47 493.2 1238.93 497.334 1253.33C499.734 1261.87 498.934 1278.53 495.467 1290.67C493.734 1296.93 492 1303.2 491.6 1304.67C491.2 1306.8 490.934 1306.53 490.134 1303.33C489.6 1301.07 487.334 1293.47 485.2 1286.27C481.6 1274.53 481.334 1272.4 482.534 1266.27C483.334 1262.4 484.134 1256 484.267 1252C484.4 1248 485.867 1238.93 487.734 1232L491.067 1219.33L489.334 1140C488.4 1091.73 488.134 1050.8 488.8 1035.33L489.867 1010L490.8 1028C491.2 1037.87 491.867 1062.13 492.134 1082ZM497.334 1422.67C499.6 1448.67 501.734 1471.47 502.134 1473.2C503.467 1479.2 502.934 1523.33 501.334 1530C500.534 1533.6 498.667 1544.67 497.334 1554.4C495.067 1570.13 495.067 1572.8 496.667 1578.4C498.667 1584.93 499.2 1608 497.334 1615.33L496.4 1619.33L495.467 1614C494.8 1611.07 493.6 1605.87 492.667 1602.53C491.334 1597.73 491.2 1593.73 492.267 1585.33C493.734 1573.47 492.667 1562.67 487.867 1536.4C485.067 1521.47 485.067 1521.2 487.467 1484.4C488.667 1464 489.867 1434.67 490 1419.33C490.267 1376.4 490.667 1366.53 492.134 1371.33C492.667 1373.47 495.067 1396.67 497.334 1422.67Z" fill="black"/>
</g>
<g clip-path="url(#clip3_73_49)">
<path d="M466.667 1.86593C447.467 6.13259 434.267 14.5326 422.8 29.7326C415.734 39.0659 412.667 46.1326 409.334 61.3326C405.734 77.8659 404.8 89.7326 406.4 97.9993C407.2 101.599 407.6 104.799 407.467 104.933C407.334 105.066 404.534 104.266 401.334 103.199C395.467 101.199 395.334 101.199 392.4 104.533C388.534 109.066 387.334 118.133 389.334 126.933C391.734 136.933 405.2 162.133 409.2 163.999C411.467 165.066 412.8 165.066 413.867 163.999C417.067 160.799 416.8 159.866 421.334 206.399C422.134 213.866 422.667 225.866 422.667 232.799C422.667 253.999 419.334 257.866 387.867 274.266C376.534 280.133 361.334 288.666 354.134 293.199C335.467 304.933 329.6 307.599 316.4 310.666C300.534 314.399 286.4 319.599 279.2 324.266C265.067 333.733 253.334 351.866 244.667 377.733C236 403.866 234.134 428.266 239.734 445.599C243.067 455.866 242.934 492.799 239.467 501.333C232.267 519.466 227.2 547.866 225.867 575.999L225.067 593.999L215.334 613.333C203.6 636.533 192 662.799 188.267 674.666C186 681.599 185.2 689.466 184 713.999C183.2 730.799 182.134 746.133 181.734 747.999C179.867 756.533 158.667 825.599 156.8 829.066C153.6 835.333 146.8 839.333 134 842.533C127.734 844.133 107.2 857.199 94.1338 867.866C84.9338 875.333 66.4004 896.266 63.7338 902.133C62.5338 904.666 62.6671 905.866 64.6671 907.999C67.7338 911.333 70.0004 911.333 79.6004 907.866C84.6671 906.133 89.0671 903.333 92.2671 899.866C95.2004 896.666 99.2004 893.999 102.267 893.066C105.067 892.399 109.2 890.266 111.6 888.533C115.467 885.599 116 885.466 117.867 887.466C119.067 888.533 120 889.999 120 890.533C120 891.466 117.867 918.399 113.334 976.533C111.6 997.999 112.934 1003.6 119.467 1002.8C120.267 1002.67 121.467 1004.93 122.134 1007.6C123.734 1014.27 128 1015.07 133.334 1010L137.2 1006.27L140.4 1010.13C143.467 1013.73 144 1013.87 147.2 1012.13C149.067 1011.07 152.8 1007.07 155.6 1003.07C158.934 998.266 160.934 996.399 161.867 997.333C164.4 999.866 168 998.666 173.467 992.933C187.334 978.666 196.534 962.266 206.4 933.999C216.4 905.733 217.734 897.999 217.867 869.999L218 845.999L246.8 788.666C280.134 722.266 285.6 707.733 289.467 675.333C290.8 663.733 291.6 661.066 296.4 653.466C301.334 645.199 301.734 643.999 302.934 629.333C304 615.999 304.934 612.133 310 599.333C315.734 585.066 320.134 570.133 322 559.466C322.4 556.666 323.334 554.799 323.867 555.466C324.4 556.133 327.734 569.599 331.067 585.333C338.934 621.333 340.134 642.933 336.8 681.333C335.6 694.933 334.4 715.866 334.134 727.999C333.734 743.199 332.534 756.133 330.134 769.999C324.667 802.399 322.667 821.599 321.867 851.999C320.934 880.266 322.534 915.066 325.467 935.333C327.067 945.599 336.667 988.533 348.8 1038.67C357.6 1075.07 368 1108.27 374.4 1120.67C381.334 1134.13 387.867 1169.33 389.334 1202C390.134 1216.67 391.334 1234.4 392 1241.33C394 1259.47 393.734 1262.13 389.067 1296.4C383.467 1338.27 383.467 1352.8 389.2 1386C394.4 1416.4 400.134 1442.4 404.667 1456C408.534 1467.87 417.334 1507.2 421.467 1530.67C426.4 1559.6 423.6 1579.87 413.067 1591.87C410.667 1594.67 404.8 1602.4 400 1609.33C387.6 1627.33 382.267 1632.67 363.6 1646L346.8 1658L346 1664.8C344.534 1676.27 350.134 1690.67 356.267 1690.67C357.734 1690.67 358.667 1691.6 358.667 1693.2C358.667 1696.67 362 1699.07 367.067 1699.2C369.334 1699.33 373.2 1700.4 375.6 1701.73C380.8 1704.53 383.867 1704.67 387.6 1702C390.134 1700.13 390.534 1700.27 392.534 1703.33C394.534 1706.27 395.6 1706.67 403.067 1706.67C411.467 1706.67 411.467 1706.67 418.534 1699.47C423.867 1694.13 426.934 1692.13 430.667 1691.47C436.667 1690.53 451.867 1678.4 464.8 1664.27C470.267 1658.13 474.8 1654.53 477.334 1654C484.534 1652.4 491.6 1646 494.134 1638.8L496.534 1632.27L498.8 1637.33C500.134 1640.13 503.734 1644.67 506.934 1647.47C510.134 1650.27 520.534 1660.4 530.134 1670.13C539.867 1679.87 549.734 1688.8 552.134 1690.13C554.667 1691.33 558.667 1694.13 561.067 1696.13C572.4 1706 582.934 1707.87 590.8 1701.33L595.6 1697.47L598.667 1700.67C600.4 1702.53 603.067 1704 604.667 1704C607.734 1704 612 1700.27 612 1697.6C612 1696.67 613.734 1696 615.867 1696C621.867 1696 624 1694.67 624 1691.2C624 1688.8 624.667 1688 627.067 1688C631.2 1688 633.334 1685.6 633.334 1680.8C633.334 1678 634.4 1675.87 636.934 1673.87C640.4 1671.07 640.4 1670.93 638.934 1663.2C637.467 1656.13 636.4 1654.4 627.6 1645.6C622.4 1640.13 615.2 1634.4 611.867 1632.67C605.334 1629.33 601.067 1624.67 582.267 1600.4C571.734 1586.93 570.667 1585.07 570.667 1579.73C570.667 1576.53 569.334 1570.67 567.734 1566.67C565.067 1560.27 564.8 1556.93 564.8 1540C564.8 1521.2 565.067 1519.73 572.267 1489.33C576.4 1472.13 580.667 1450.53 581.867 1441.33C584.267 1422.93 586.934 1410.8 589.867 1406.27C593.467 1400.8 600.4 1360.93 602.8 1332.53C604.534 1312 603.2 1291.47 599.467 1281.73C598.267 1278.93 596.534 1269.73 595.467 1261.33C591.6 1231.73 591.6 1225.2 595.067 1194.67C596.934 1178.93 598.8 1160.27 599.334 1153.33C600.134 1142.27 601.734 1135.87 612.8 1102C631.467 1044.53 636.134 1020.4 642.667 948.666C651.067 855.333 649.6 814.799 635.734 755.999C633.334 745.733 633.067 740.266 633.2 697.999C633.2 672.266 632.8 645.599 632.267 638.666C630.8 621.999 632.534 593.599 636.667 563.066C638.534 549.466 640 537.333 640 536.133C640 534.533 640.667 534.799 642.667 537.333C647.867 543.733 654.534 559.466 658.667 574.533C663.867 593.733 668.667 605.066 677.6 618.933L684.667 629.999L685.467 667.333C686.4 709.599 689.467 731.199 700 771.333C704.134 787.199 707.334 803.066 708.8 814.666C709.2 818.666 710.534 824.266 711.467 827.199C713.6 832.933 714 851.466 712.134 856.266C711.467 857.999 706.667 864.133 701.6 869.999C696.4 875.866 689.334 885.733 685.867 891.999C670.134 920.666 667.067 925.999 662.267 931.466L657.2 937.333L660.534 940.666C666.534 946.666 674.534 944.666 684.8 934.533L691.6 927.866L692.534 936.266C694 951.066 705.334 1004.4 708.134 1010.4C710.134 1014.27 712.534 1016.93 716.134 1018.8C720.534 1020.93 721.334 1022 721.334 1025.73C721.334 1028 722.534 1032 724 1034.27C726 1037.73 727.467 1038.67 730.8 1038.67C734.134 1038.67 735.2 1037.87 736.4 1034.67L737.867 1030.67L741.6 1034.27C744.534 1037.07 745.867 1037.6 747.6 1036.53C750.667 1034.67 755.734 1024.4 756.667 1018.67C757.334 1014.13 757.6 1013.87 761.734 1014.27C769.734 1015.07 771.2 1012.27 779.2 982.399C785.734 957.999 786.534 953.199 787.867 933.333L789.334 911.333L784 892.666L778.8 873.999L779.334 815.999C779.734 784.133 780.534 752.933 781.334 746.666C783.467 728.799 784.4 675.333 782.8 663.333C782.134 657.466 780.4 642.399 779.2 629.999C777.067 607.999 776.8 606.799 769.334 587.333C765.067 576.266 759.734 559.199 757.334 549.333C747.867 509.466 743.734 494.133 740 483.733C737.734 477.733 736 470.266 736 467.066C736 463.199 734.8 459.599 732.267 455.466C728.934 450.266 728.267 447.733 727.6 435.733C725.067 394.399 709.067 354.533 684.267 327.733C673.867 316.533 654.8 307.599 630.667 302.533C624.534 301.199 618.134 297.333 591.334 279.066C573.734 266.933 558.667 256.799 557.867 256.399C557.067 256.133 555.734 253.599 554.934 250.799C554 247.999 552.134 244.666 550.667 243.333C548.134 241.066 548 239.199 548 215.599C548 190.799 548 190.266 551.334 186.533C554.8 182.399 557.334 175.066 557.334 169.066C557.334 163.333 558.667 161.333 562.667 161.333C571.734 161.333 579.734 143.199 580.8 120.666C581.6 104.666 580.267 100.933 573.6 100.266C571.2 99.9993 568.134 100.666 566.934 101.599C565.067 103.066 564.934 102.933 565.867 100.666C566.4 99.1993 567.2 91.5993 567.6 83.8659C568.267 70.7993 568.134 68.7993 564.667 58.5326C556 32.1326 547.067 21.4659 524.934 10.6659C504.267 0.532593 485.334 -2.26741 466.667 1.86593ZM492.134 1082C492.267 1101.73 492.4 1140.93 492.267 1169.07C492 1219.47 493.2 1238.93 497.334 1253.33C499.734 1261.87 498.934 1278.53 495.467 1290.67C493.734 1296.93 492 1303.2 491.6 1304.67C491.2 1306.8 490.934 1306.53 490.134 1303.33C489.6 1301.07 487.334 1293.47 485.2 1286.27C481.6 1274.53 481.334 1272.4 482.534 1266.27C483.334 1262.4 484.134 1256 484.267 1252C484.4 1248 485.867 1238.93 487.734 1232L491.067 1219.33L489.334 1140C488.4 1091.73 488.134 1050.8 488.8 1035.33L489.867 1010L490.8 1028C491.2 1037.87 491.867 1062.13 492.134 1082ZM497.334 1422.67C499.6 1448.67 501.734 1471.47 502.134 1473.2C503.467 1479.2 502.934 1523.33 501.334 1530C500.534 1533.6 498.667 1544.67 497.334 1554.4C495.067 1570.13 495.067 1572.8 496.667 1578.4C498.667 1584.93 499.2 1608 497.334 1615.33L496.4 1619.33L495.467 1614C494.8 1611.07 493.6 1605.87 492.667 1602.53C491.334 1597.73 491.2 1593.73 492.267 1585.33C493.734 1573.47 492.667 1562.67 487.867 1536.4C485.067 1521.47 485.067 1521.2 487.467 1484.4C488.667 1464 489.867 1434.67 490 1419.33C490.267 1376.4 490.667 1366.53 492.134 1371.33C492.667 1373.47 495.067 1396.67 497.334 1422.67Z" fill="black"/>
</g>
<g clip-path="url(#clip4_73_49)">
<path d="M466.667 1.86593C447.467 6.13259 434.267 14.5326 422.8 29.7326C415.734 39.0659 412.667 46.1326 409.334 61.3326C405.734 77.8659 404.8 89.7326 406.4 97.9993C407.2 101.599 407.6 104.799 407.467 104.933C407.334 105.066 404.534 104.266 401.334 103.199C395.467 101.199 395.334 101.199 392.4 104.533C388.534 109.066 387.334 118.133 389.334 126.933C391.734 136.933 405.2 162.133 409.2 163.999C411.467 165.066 412.8 165.066 413.867 163.999C417.067 160.799 416.8 159.866 421.334 206.399C422.134 213.866 422.667 225.866 422.667 232.799C422.667 253.999 419.334 257.866 387.867 274.266C376.534 280.133 361.334 288.666 354.134 293.199C335.467 304.933 329.6 307.599 316.4 310.666C300.534 314.399 286.4 319.599 279.2 324.266C265.067 333.733 253.334 351.866 244.667 377.733C236 403.866 234.134 428.266 239.734 445.599C243.067 455.866 242.934 492.799 239.467 501.333C232.267 519.466 227.2 547.866 225.867 575.999L225.067 593.999L215.334 613.333C203.6 636.533 192 662.799 188.267 674.666C186 681.599 185.2 689.466 184 713.999C183.2 730.799 182.134 746.133 181.734 747.999C179.867 756.533 158.667 825.599 156.8 829.066C153.6 835.333 146.8 839.333 134 842.533C127.734 844.133 107.2 857.199 94.1338 867.866C84.9338 875.333 66.4004 896.266 63.7338 902.133C62.5338 904.666 62.6671 905.866 64.6671 907.999C67.7338 911.333 70.0004 911.333 79.6004 907.866C84.6671 906.133 89.0671 903.333 92.2671 899.866C95.2004 896.666 99.2004 893.999 102.267 893.066C105.067 892.399 109.2 890.266 111.6 888.533C115.467 885.599 116 885.466 117.867 887.466C119.067 888.533 120 889.999 120 890.533C120 891.466 117.867 918.399 113.334 976.533C111.6 997.999 112.934 1003.6 119.467 1002.8C120.267 1002.67 121.467 1004.93 122.134 1007.6C123.734 1014.27 128 1015.07 133.334 1010L137.2 1006.27L140.4 1010.13C143.467 1013.73 144 1013.87 147.2 1012.13C149.067 1011.07 152.8 1007.07 155.6 1003.07C158.934 998.266 160.934 996.399 161.867 997.333C164.4 999.866 168 998.666 173.467 992.933C187.334 978.666 196.534 962.266 206.4 933.999C216.4 905.733 217.734 897.999 217.867 869.999L218 845.999L246.8 788.666C280.134 722.266 285.6 707.733 289.467 675.333C290.8 663.733 291.6 661.066 296.4 653.466C301.334 645.199 301.734 643.999 302.934 629.333C304 615.999 304.934 612.133 310 599.333C315.734 585.066 320.134 570.133 322 559.466C322.4 556.666 323.334 554.799 323.867 555.466C324.4 556.133 327.734 569.599 331.067 585.333C338.934 621.333 340.134 642.933 336.8 681.333C335.6 694.933 334.4 715.866 334.134 727.999C333.734 743.199 332.534 756.133 330.134 769.999C324.667 802.399 322.667 821.599 321.867 851.999C320.934 880.266 322.534 915.066 325.467 935.333C327.067 945.599 336.667 988.533 348.8 1038.67C357.6 1075.07 368 1108.27 374.4 1120.67C381.334 1134.13 387.867 1169.33 389.334 1202C390.134 1216.67 391.334 1234.4 392 1241.33C394 1259.47 393.734 1262.13 389.067 1296.4C383.467 1338.27 383.467 1352.8 389.2 1386C394.4 1416.4 400.134 1442.4 404.667 1456C408.534 1467.87 417.334 1507.2 421.467 1530.67C426.4 1559.6 423.6 1579.87 413.067 1591.87C410.667 1594.67 404.8 1602.4 400 1609.33C387.6 1627.33 382.267 1632.67 363.6 1646L346.8 1658L346 1664.8C344.534 1676.27 350.134 1690.67 356.267 1690.67C357.734 1690.67 358.667 1691.6 358.667 1693.2C358.667 1696.67 362 1699.07 367.067 1699.2C369.334 1699.33 373.2 1700.4 375.6 1701.73C380.8 1704.53 383.867 1704.67 387.6 1702C390.134 1700.13 390.534 1700.27 392.534 1703.33C394.534 1706.27 395.6 1706.67 403.067 1706.67C411.467 1706.67 411.467 1706.67 418.534 1699.47C423.867 1694.13 426.934 1692.13 430.667 1691.47C436.667 1690.53 451.867 1678.4 464.8 1664.27C470.267 1658.13 474.8 1654.53 477.334 1654C484.534 1652.4 491.6 1646 494.134 1638.8L496.534 1632.27L498.8 1637.33C500.134 1640.13 503.734 1644.67 506.934 1647.47C510.134 1650.27 520.534 1660.4 530.134 1670.13C539.867 1679.87 549.734 1688.8 552.134 1690.13C554.667 1691.33 558.667 1694.13 561.067 1696.13C572.4 1706 582.934 1707.87 590.8 1701.33L595.6 1697.47L598.667 1700.67C600.4 1702.53 603.067 1704 604.667 1704C607.734 1704 612 1700.27 612 1697.6C612 1696.67 613.734 1696 615.867 1696C621.867 1696 624 1694.67 624 1691.2C624 1688.8 624.667 1688 627.067 1688C631.2 1688 633.334 1685.6 633.334 1680.8C633.334 1678 634.4 1675.87 636.934 1673.87C640.4 1671.07 640.4 1670.93 638.934 1663.2C637.467 1656.13 636.4 1654.4 627.6 1645.6C622.4 1640.13 615.2 1634.4 611.867 1632.67C605.334 1629.33 601.067 1624.67 582.267 1600.4C571.734 1586.93 570.667 1585.07 570.667 1579.73C570.667 1576.53 569.334 1570.67 567.734 1566.67C565.067 1560.27 564.8 1556.93 564.8 1540C564.8 1521.2 565.067 1519.73 572.267 1489.33C576.4 1472.13 580.667 1450.53 581.867 1441.33C584.267 1422.93 586.934 1410.8 589.867 1406.27C593.467 1400.8 600.4 1360.93 602.8 1332.53C604.534 1312 603.2 1291.47 599.467 1281.73C598.267 1278.93 596.534 1269.73 595.467 1261.33C591.6 1231.73 591.6 1225.2 595.067 1194.67C596.934 1178.93 598.8 1160.27 599.334 1153.33C600.134 1142.27 601.734 1135.87 612.8 1102C631.467 1044.53 636.134 1020.4 642.667 948.666C651.067 855.333 649.6 814.799 635.734 755.999C633.334 745.733 633.067 740.266 633.2 697.999C633.2 672.266 632.8 645.599 632.267 638.666C630.8 621.999 632.534 593.599 636.667 563.066C638.534 549.466 640 537.333 640 536.133C640 534.533 640.667 534.799 642.667 537.333C647.867 543.733 654.534 559.466 658.667 574.533C663.867 593.733 668.667 605.066 677.6 618.933L684.667 629.999L685.467 667.333C686.4 709.599 689.467 731.199 700 771.333C704.134 787.199 707.334 803.066 708.8 814.666C709.2 818.666 710.534 824.266 711.467 827.199C713.6 832.933 714 851.466 712.134 856.266C711.467 857.999 706.667 864.133 701.6 869.999C696.4 875.866 689.334 885.733 685.867 891.999C670.134 920.666 667.067 925.999 662.267 931.466L657.2 937.333L660.534 940.666C666.534 946.666 674.534 944.666 684.8 934.533L691.6 927.866L692.534 936.266C694 951.066 705.334 1004.4 708.134 1010.4C710.134 1014.27 712.534 1016.93 716.134 1018.8C720.534 1020.93 721.334 1022 721.334 1025.73C721.334 1028 722.534 1032 724 1034.27C726 1037.73 727.467 1038.67 730.8 1038.67C734.134 1038.67 735.2 1037.87 736.4 1034.67L737.867 1030.67L741.6 1034.27C744.534 1037.07 745.867 1037.6 747.6 1036.53C750.667 1034.67 755.734 1024.4 756.667 1018.67C757.334 1014.13 757.6 1013.87 761.734 1014.27C769.734 1015.07 771.2 1012.27 779.2 982.399C785.734 957.999 786.534 953.199 787.867 933.333L789.334 911.333L784 892.666L778.8 873.999L779.334 815.999C779.734 784.133 780.534 752.933 781.334 746.666C783.467 728.799 784.4 675.333 782.8 663.333C782.134 657.466 780.4 642.399 779.2 629.999C777.067 607.999 776.8 606.799 769.334 587.333C765.067 576.266 759.734 559.199 757.334 549.333C747.867 509.466 743.734 494.133 740 483.733C737.734 477.733 736 470.266 736 467.066C736 463.199 734.8 459.599 732.267 455.466C728.934 450.266 728.267 447.733 727.6 435.733C725.067 394.399 709.067 354.533 684.267 327.733C673.867 316.533 654.8 307.599 630.667 302.533C624.534 301.199 618.134 297.333 591.334 279.066C573.734 266.933 558.667 256.799 557.867 256.399C557.067 256.133 555.734 253.599 554.934 250.799C554 247.999 552.134 244.666 550.667 243.333C548.134 241.066 548 239.199 548 215.599C548 190.799 548 190.266 551.334 186.533C554.8 182.399 557.334 175.066 557.334 169.066C557.334 163.333 558.667 161.333 562.667 161.333C571.734 161.333 579.734 143.199 580.8 120.666C581.6 104.666 580.267 100.933 573.6 100.266C571.2 99.9993 568.134 100.666 566.934 101.599C565.067 103.066 564.934 102.933 565.867 100.666C566.4 99.1993 567.2 91.5993 567.6 83.8659C568.267 70.7993 568.134 68.7993 564.667 58.5326C556 32.1326 547.067 21.4659 524.934 10.6659C504.267 0.532593 485.334 -2.26741 466.667 1.86593ZM492.134 1082C492.267 1101.73 492.4 1140.93 492.267 1169.07C492 1219.47 493.2 1238.93 497.334 1253.33C499.734 1261.87 498.934 1278.53 495.467 1290.67C493.734 1296.93 492 1303.2 491.6 1304.67C491.2 1306.8 490.934 1306.53 490.134 1303.33C489.6 1301.07 487.334 1293.47 485.2 1286.27C481.6 1274.53 481.334 1272.4 482.534 1266.27C483.334 1262.4 484.134 1256 484.267 1252C484.4 1248 485.867 1238.93 487.734 1232L491.067 1219.33L489.334 1140C488.4 1091.73 488.134 1050.8 488.8 1035.33L489.867 1010L490.8 1028C491.2 1037.87 491.867 1062.13 492.134 1082ZM497.334 1422.67C499.6 1448.67 501.734 1471.47 502.134 1473.2C503.467 1479.2 502.934 1523.33 501.334 1530C500.534 1533.6 498.667 1544.67 497.334 1554.4C495.067 1570.13 495.067 1572.8 496.667 1578.4C498.667 1584.93 499.2 1608 497.334 1615.33L496.4 1619.33L495.467 1614C494.8 1611.07 493.6 1605.87 492.667 1602.53C491.334 1597.73 491.2 1593.73 492.267 1585.33C493.734 1573.47 492.667 1562.67 487.867 1536.4C485.067 1521.47 485.067 1521.2 487.467 1484.4C488.667 1464 489.867 1434.67 490 1419.33C490.267 1376.4 490.667 1366.53 492.134 1371.33C492.667 1373.47 495.067 1396.67 497.334 1422.67Z" fill="black"/>
</g>
<defs>
<clipPath id="clip0_73_49">
<rect width="351" height="854" fill="white" transform="translate(300 853)"/>
</clipPath>
<clipPath id="clip1_73_49">
<rect width="329" height="595" fill="white" transform="translate(322 258)"/>
</clipPath>
<clipPath id="clip2_73_49">
<rect width="322" height="765" fill="white" transform="translate(0 258)"/>
</clipPath>
<clipPath id="clip3_73_49">
<rect width="203" height="783" fill="white" transform="translate(651 258)"/>
</clipPath>
<clipPath id="clip4_73_49">
<rect width="351" height="258" fill="white" transform="translate(300)"/>
</clipPath>
</defs>
</svg>
