<svg width="1180" height="1682" viewBox="0 0 1180 1682" fill="none" xmlns="http://www.w3.org/2000/svg">
<g clip-path="url(#clip0_68_32)">
<path d="M395.066 1.53418C385.333 2.46753 381.466 4.20093 388.8 4.46753C392.133 4.60083 390.8 5.13416 384 6.46753C371.066 9.00085 370.4 9.8009 381.333 9.13416L390.666 8.46753L381.333 10.3342C372.4 12.2009 359.2 17.2676 358.266 19.2676C358 19.8009 354.666 21.1342 350.933 22.4675C347.066 23.6676 343.066 25.6676 342 26.8676C340.933 28.2009 337.066 31.1342 333.333 33.4009C329.733 35.6676 323.066 41.2676 318.666 45.8009L310.666 54.0675L318.533 47.8009C326.133 41.8009 335.333 36.2009 337.6 36.3342C338.133 36.4675 336.266 37.6676 333.333 39.2676C327.066 42.6008 314.266 55.2676 310.8 61.6676C308.4 66.0675 308.666 66.0675 314.266 59.9342C320.533 53.4009 324.933 51.0009 319.2 57.2676C312.666 64.4675 312.266 66.2009 318.4 60.3342C327.066 52.2009 326.266 54.4675 316.533 65.2676C312.133 70.2009 307.866 75.5342 307.066 77.0009L305.6 79.6676L308.666 77.0009L311.866 74.3342L308.8 79.2676C305.6 84.6008 306 88.3342 309.466 85.5342C312 83.5342 311.866 83.9342 307.866 94.4675C305.466 100.868 304.666 104.868 305.333 108.068C306 111.801 306.533 112.201 308.133 111.001C310.266 109.134 310.533 109.934 310 118.201C309.866 122.068 310.133 123.001 311.466 122.334C312.666 121.534 312.933 121.934 312.266 123.534C311.733 124.868 311.333 126.468 311.333 127.134C311.333 127.667 310.533 127.934 309.6 127.534C308.666 127.268 306.266 128.334 304.4 130.068C300.666 133.534 298.4 141.667 297.066 156.868C295.866 171.801 301.2 189.001 307.466 190.601C308.8 191.001 310 192.468 310 193.801C310 196.068 305.2 201.667 303.2 201.667C301.6 201.667 296.666 212.201 296.666 215.401C296.8 221.801 305.066 226.334 311.066 223.134C313.466 221.934 314.133 222.201 315.733 225.401C316.933 227.934 317.2 230.201 316.4 232.201C315.733 234.068 316.133 236.868 317.466 240.068C319.6 245.134 325.066 270.201 326.666 282.601C327.466 288.734 327.2 289.801 325.066 290.468C312.933 294.734 302 301.401 293.333 310.201C268.666 335.268 249.6 358.868 242 373.667C231.866 393.667 228.266 409.667 225.466 446.468C223.2 475.534 219.866 491.934 212.933 507.801C205.466 525.134 196.8 554.334 194.533 570.734L192.266 586.734L195.6 591.134C197.466 593.667 200.666 599.001 202.8 603.001C208 612.734 224.666 629.267 234.666 634.601C247.066 641.134 257.866 643.401 271.733 642.601C283.6 641.801 295.333 637.934 301.066 632.601C304.4 629.667 304.933 630.868 309.333 648.201C313.466 664.867 322 685.268 331.333 701.268C336 709.134 338.8 715.801 340.133 722.068L342 731.134L336.266 738.734C299.466 786.867 278.666 844.867 266 935.001C264.4 945.667 262.4 957.667 261.333 961.667C260.4 965.667 258.8 972.867 258 977.667C255.466 991.934 251.6 998.467 236.266 1014.73C221.2 1030.6 211.6 1043.53 201.466 1061.13C192 1077.8 164.533 1136.07 156 1157.67C148.4 1177.27 137.066 1202.33 124 1229C115.466 1246.33 100.533 1292.73 96.6664 1314.07C93.8664 1329.67 89.4664 1345 87.1998 1347.93C86.3998 1348.87 84.3998 1349.67 82.7998 1349.67C79.0664 1349.67 70.7998 1354.2 63.7331 1360.07C56.2664 1366.07 56.1331 1369.93 63.0664 1376.47C69.8664 1383 73.3331 1384.73 80.5331 1384.47C83.8664 1384.33 87.8664 1384.2 89.3331 1384.2C90.7998 1384.2 94.7998 1384.87 98.2664 1385.67C112.4 1389.13 123.333 1381.27 131.2 1361.67C142.933 1332.73 148.133 1325.4 168.666 1309C187.466 1293.8 194.133 1285.13 195.066 1274.6C195.6 1267.13 193.6 1261.13 188.533 1255.53C186 1252.87 186.133 1252.73 198.4 1240.87C213.6 1226.2 248.933 1194.73 271.866 1175.53C309.066 1144.6 320 1129 332 1090.47L336.933 1074.6L349.866 1061C356.933 1053.53 367.2 1040.87 372.666 1032.87C391.6 1004.87 399.066 996.467 459.6 935.667C493.066 901.934 522.933 871.268 525.866 867.534L531.2 860.734L542.266 859.934C561.066 858.334 570.133 854.334 574.8 845.534C576 843.134 577.733 841.667 578.933 841.934C580.133 842.201 584.4 849.801 589.2 860.334C593.733 870.201 600.933 884.467 605.2 892.068C616.933 913.001 652.933 966.334 671.2 990.068C680.133 1001.67 694.4 1022.33 702.933 1035.93C718.266 1060.47 725.066 1070.2 753.466 1108.87C768.666 1129.67 785.6 1146.87 810.666 1167.13C836.533 1188.07 857.333 1212.33 888.666 1258.33C899.2 1273.67 911.066 1290.87 915.2 1296.33C926.533 1311.67 1030.93 1468.33 1040.93 1485C1053.07 1505.27 1057.33 1514.33 1061.6 1527.93C1066.8 1544.73 1066.67 1568.07 1061.2 1599.67C1057.2 1623.8 1056.67 1632.6 1058.93 1644.07C1060.53 1652.73 1063.33 1655.67 1071.6 1657.93C1076.67 1659.13 1078.93 1659.27 1082.4 1657.93C1087.87 1655.93 1094.93 1655.8 1096 1657.67C1097.33 1659.67 1105.47 1659.27 1107.33 1657C1108.67 1655.53 1109.47 1655.4 1110.8 1656.47C1112.67 1658.07 1120.93 1658.47 1123.2 1657.13C1124 1656.6 1125.73 1657 1127.2 1657.93C1129.33 1659.27 1130.8 1659.27 1134.13 1658.07C1137.2 1656.87 1139.07 1656.87 1140.93 1657.8C1145.33 1660.2 1150 1658.07 1152.27 1652.6C1153.87 1648.6 1154.13 1643.4 1153.73 1624.33C1153.2 1604.87 1152.13 1595.8 1147.6 1569.67C1144.53 1552.47 1141.2 1530.47 1140 1521C1138.93 1511.4 1137.07 1500.47 1135.87 1496.6C1134.8 1492.73 1133.6 1484.6 1133.33 1478.33C1132.53 1464.2 1128.27 1451 1118.67 1433C1112.27 1421 1108.27 1411.4 1091.07 1367.67C1085.47 1353.27 1066.67 1292.6 1057.33 1259C1037.87 1189 1009.87 1152.47 937.6 1103.13C920.666 1091.4 912.666 1081.67 902 1059.93C886 1027 883.066 1017.4 872.666 962.334C861.733 904.734 852.533 867.268 834 805.667C829.733 791.401 824.4 771.667 822.133 761.801C809.733 707.667 777.733 661.401 728.266 626.334C702.666 608.068 679.733 596.734 655.733 590.201C651.066 588.868 647.333 587.401 647.333 586.868C647.333 586.334 645.066 585.534 642.4 585.001C639.6 584.468 631.066 581.267 623.333 577.801C615.6 574.201 606.8 570.334 603.733 569.001C596.266 565.934 593.6 562.601 590 552.601C587.2 545.001 587.066 543.667 588.666 536.601C590.266 528.868 589.866 493.801 587.866 479.534C587.066 472.868 587.066 472.734 591.466 471.001C594 469.934 600.8 465.134 606.666 460.068C618 450.334 645.866 435.001 661.733 429.801C669.466 427.134 671.066 427.001 681.733 428.468C688.666 429.401 700.266 429.667 710.8 429.268L728.266 428.468L731.6 432.068C735.066 435.801 746 453.801 751.333 464.334C755.066 471.534 770.133 507.934 785.466 546.334C791.6 561.667 798.666 578.468 800.933 583.667C806.266 595.267 806.4 601.934 801.466 618.868C798.933 627.134 798 632.868 798.4 636.201C798.8 638.867 798.666 643.667 798.133 646.734C797.2 651.401 797.6 654.601 800.4 662.734C802.266 668.468 804 673.801 804.133 674.601C804.933 677.934 811.2 676.468 813.2 672.734L815.066 669.001L815.866 673.667C816.266 676.201 816.8 684.601 817.2 692.334C818 707.401 821.866 720.468 829.333 733.001C832.266 738.068 833.466 739.134 836.266 738.734C841.466 738.068 842.933 734.867 840.933 728.068C837.333 715.667 835.333 700.734 836.4 695.534L837.466 690.334L839.866 700.468C842.266 711.401 851.066 730.734 857.866 739.934C862.8 746.734 867.733 747.667 870.133 742.468C871.333 739.801 870.666 736.468 866.133 722.734C860.8 706.468 856.666 689.534 856.666 683.934C856.8 681.268 856.933 681.268 858.133 683.401C858.933 684.601 860.666 689.001 862 692.867C865.733 704.068 883.333 724.334 889.2 724.334C889.466 724.334 890.8 723.401 891.866 722.201C894.533 719.534 894.533 713.801 892 709.934C890 707.134 890 707.001 893.733 707.801C896.266 708.334 898 707.934 899.333 706.334C900.933 704.334 900.933 703.268 898.8 697.801C891.866 680.334 888.666 669.134 887.333 658.334C886.533 651.667 884.4 641.534 882.666 635.667C880.933 629.801 878.933 621.401 878.133 617.001C877.2 612.334 873.6 602.868 869.333 594.201L862 579.534L860 555.534C857.733 528.601 852.266 483.934 849.333 468.734C845.466 448.734 839.466 432.068 818.4 383.667C805.866 354.734 791.733 343.001 759.066 334.468C721.866 324.601 701.466 321.134 669.066 319.001C647.333 317.667 651.2 318.601 607.733 302.601C580.933 292.601 570.666 290.468 550 290.468C540.133 290.334 527.466 291.134 521.866 292.201L511.6 293.934L503.733 287.401C499.466 283.801 490.8 277.401 484.666 273.001C478.4 268.734 472.8 264.201 472.133 263.134C471.466 261.934 470.933 258.068 471.066 254.334C471.333 250.734 470.533 246.201 469.6 244.334C467.333 239.934 469.066 235.534 474 233.934C484.533 230.201 503.333 191.801 499.6 181.534C498.933 179.801 498.933 176.201 499.733 173.134C501.333 166.601 501.866 165.934 503.2 168.201C503.866 169.268 504.666 167.801 505.333 164.068C506.266 158.868 506.4 158.601 507.333 161.667C508.4 165.001 508.4 165.001 508.533 161.934C508.666 160.201 509.333 156.201 510.133 152.868C511.466 147.801 512 147.134 513.733 148.601C515.6 150.201 515.733 149.401 515.066 142.334L514.266 134.334L516.133 139.534C518.133 145.134 520.133 148.201 518.933 143.667C518.533 142.201 517.733 138.601 517.333 135.667C516.666 131.401 516.8 130.734 518 132.334C519.333 134.068 519.466 134.068 518.933 132.201C518.533 131.001 516.933 123.934 515.333 116.334C513.733 108.868 511.333 100.068 509.866 96.7343C508.4 93.4009 506.133 87.2676 504.8 83.1342C500.266 69.9342 495.733 60.3342 494.666 61.4009C494 61.9342 494 61.5342 494.533 60.6008C495.2 59.4009 494 56.8676 491.466 53.6676C489.2 50.8676 487.333 47.8009 487.333 47.0009C487.333 44.3342 480.4 31.6676 475.733 25.9342C468.533 17.0009 452.666 5.8009 443.2 2.86755C435.2 0.334229 427.333 -0.599121 434 1.8009C436.933 2.86755 436.933 2.86755 433.333 2.20093C427.066 1.00085 404.933 0.60083 395.066 1.53418ZM338.666 33.6676C338.266 34.3342 337.066 35.0009 336.266 35.0009C335.333 35.0009 335.466 34.4675 336.666 33.6676C339.2 32.0675 339.733 32.0675 338.666 33.6676ZM494.133 65.9342C495.6 68.7343 495.6 68.8676 493.6 67.1342C492.266 66.2009 491.333 64.8676 491.333 64.2009C491.333 62.2009 492.533 62.8676 494.133 65.9342ZM494.933 176.601C494.533 177.534 494.266 176.868 494.266 175.001C494.266 173.134 494.533 172.468 494.933 173.268C495.2 174.201 495.2 175.801 494.933 176.601Z" fill="black"/>
</g>
<g clip-path="url(#clip1_68_32)">
<path d="M395.066 1.53421C385.333 2.46755 381.466 4.20088 388.8 4.46755C392.133 4.60088 390.8 5.13421 384 6.46755C371.066 9.00088 370.4 9.80088 381.333 9.13421L390.666 8.46755L381.333 10.3342C372.4 12.2009 359.2 17.2675 358.266 19.2675C358 19.8009 354.666 21.1342 350.933 22.4675C347.066 23.6675 343.066 25.6675 342 26.8675C340.933 28.2009 337.066 31.1342 333.333 33.4009C329.733 35.6675 323.066 41.2675 318.666 45.8009L310.666 54.0675L318.533 47.8009C326.133 41.8009 335.333 36.2009 337.6 36.3342C338.133 36.4675 336.266 37.6675 333.333 39.2675C327.066 42.6009 314.266 55.2675 310.8 61.6675C308.4 66.0675 308.666 66.0675 314.266 59.9342C320.533 53.4009 324.933 51.0009 319.2 57.2675C312.666 64.4675 312.266 66.2009 318.4 60.3342C327.066 52.2009 326.266 54.4675 316.533 65.2675C312.133 70.2009 307.866 75.5342 307.066 77.0009L305.6 79.6675L308.666 77.0009L311.866 74.3342L308.8 79.2675C305.6 84.6009 306 88.3342 309.466 85.5342C312 83.5342 311.866 83.9342 307.866 94.4675C305.466 100.868 304.666 104.868 305.333 108.068C306 111.801 306.533 112.201 308.133 111.001C310.266 109.134 310.533 109.934 310 118.201C309.866 122.068 310.133 123.001 311.466 122.334C312.666 121.534 312.933 121.934 312.266 123.534C311.733 124.868 311.333 126.468 311.333 127.134C311.333 127.668 310.533 127.934 309.6 127.534C308.666 127.268 306.266 128.334 304.4 130.068C300.666 133.534 298.4 141.668 297.066 156.868C295.866 171.801 301.2 189.001 307.466 190.601C308.8 191.001 310 192.468 310 193.801C310 196.068 305.2 201.668 303.2 201.668C301.6 201.668 296.666 212.201 296.666 215.401C296.8 221.801 305.066 226.334 311.066 223.134C313.466 221.934 314.133 222.201 315.733 225.401C316.933 227.934 317.2 230.201 316.4 232.201C315.733 234.068 316.133 236.868 317.466 240.068C319.6 245.134 325.066 270.201 326.666 282.601C327.466 288.734 327.2 289.801 325.066 290.468C312.933 294.734 302 301.401 293.333 310.201C268.666 335.268 249.6 358.868 242 373.668C231.866 393.668 228.266 409.668 225.466 446.468C223.2 475.534 219.866 491.934 212.933 507.801C205.466 525.134 196.8 554.334 194.533 570.734L192.266 586.734L195.6 591.134C197.466 593.668 200.666 599.001 202.8 603.001C208 612.734 224.666 629.268 234.666 634.601C247.066 641.134 257.866 643.401 271.733 642.601C283.6 641.801 295.333 637.934 301.066 632.601C304.4 629.668 304.933 630.868 309.333 648.201C313.466 664.868 322 685.268 331.333 701.268C336 709.134 338.8 715.801 340.133 722.068L342 731.134L336.266 738.734C299.466 786.867 278.666 844.867 266 935.001C264.4 945.667 262.4 957.667 261.333 961.667C260.4 965.667 258.8 972.867 258 977.667C255.466 991.934 251.6 998.467 236.266 1014.73C221.2 1030.6 211.6 1043.53 201.466 1061.13C192 1077.8 164.533 1136.07 156 1157.67C148.4 1177.27 137.066 1202.33 124 1229C115.466 1246.33 100.533 1292.73 96.6664 1314.07C93.8664 1329.67 89.4664 1345 87.1998 1347.93C86.3998 1348.87 84.3998 1349.67 82.7998 1349.67C79.0664 1349.67 70.7998 1354.2 63.7331 1360.07C56.2664 1366.07 56.1331 1369.93 63.0664 1376.47C69.8664 1383 73.3331 1384.73 80.5331 1384.47C83.8664 1384.33 87.8664 1384.2 89.3331 1384.2C90.7998 1384.2 94.7998 1384.87 98.2664 1385.67C112.4 1389.13 123.333 1381.27 131.2 1361.67C142.933 1332.73 148.133 1325.4 168.666 1309C187.466 1293.8 194.133 1285.13 195.066 1274.6C195.6 1267.13 193.6 1261.13 188.533 1255.53C186 1252.87 186.133 1252.73 198.4 1240.87C213.6 1226.2 248.933 1194.73 271.866 1175.53C309.066 1144.6 320 1129 332 1090.47L336.933 1074.6L349.866 1061C356.933 1053.53 367.2 1040.87 372.666 1032.87C391.6 1004.87 399.066 996.467 459.6 935.667C493.066 901.934 522.933 871.267 525.866 867.534L531.2 860.734L542.266 859.934C561.066 858.334 570.133 854.334 574.8 845.534C576 843.134 577.733 841.667 578.933 841.934C580.133 842.201 584.4 849.801 589.2 860.334C593.733 870.201 600.933 884.467 605.2 892.067C616.933 913.001 652.933 966.334 671.2 990.067C680.133 1001.67 694.4 1022.33 702.933 1035.93C718.266 1060.47 725.066 1070.2 753.466 1108.87C768.666 1129.67 785.6 1146.87 810.666 1167.13C836.533 1188.07 857.333 1212.33 888.666 1258.33C899.2 1273.67 911.066 1290.87 915.2 1296.33C926.533 1311.67 1030.93 1468.33 1040.93 1485C1053.07 1505.27 1057.33 1514.33 1061.6 1527.93C1066.8 1544.73 1066.67 1568.07 1061.2 1599.67C1057.2 1623.8 1056.67 1632.6 1058.93 1644.07C1060.53 1652.73 1063.33 1655.67 1071.6 1657.93C1076.67 1659.13 1078.93 1659.27 1082.4 1657.93C1087.87 1655.93 1094.93 1655.8 1096 1657.67C1097.33 1659.67 1105.47 1659.27 1107.33 1657C1108.67 1655.53 1109.47 1655.4 1110.8 1656.47C1112.67 1658.07 1120.93 1658.47 1123.2 1657.13C1124 1656.6 1125.73 1657 1127.2 1657.93C1129.33 1659.27 1130.8 1659.27 1134.13 1658.07C1137.2 1656.87 1139.07 1656.87 1140.93 1657.8C1145.33 1660.2 1150 1658.07 1152.27 1652.6C1153.87 1648.6 1154.13 1643.4 1153.73 1624.33C1153.2 1604.87 1152.13 1595.8 1147.6 1569.67C1144.53 1552.47 1141.2 1530.47 1140 1521C1138.93 1511.4 1137.07 1500.47 1135.87 1496.6C1134.8 1492.73 1133.6 1484.6 1133.33 1478.33C1132.53 1464.2 1128.27 1451 1118.67 1433C1112.27 1421 1108.27 1411.4 1091.07 1367.67C1085.47 1353.27 1066.67 1292.6 1057.33 1259C1037.87 1189 1009.87 1152.47 937.6 1103.13C920.666 1091.4 912.666 1081.67 902 1059.93C886 1027 883.066 1017.4 872.666 962.334C861.733 904.734 852.533 867.267 834 805.667C829.733 791.401 824.4 771.668 822.133 761.801C809.733 707.668 777.733 661.401 728.266 626.334C702.666 608.068 679.733 596.734 655.733 590.201C651.066 588.868 647.333 587.401 647.333 586.868C647.333 586.334 645.066 585.534 642.4 585.001C639.6 584.468 631.066 581.268 623.333 577.801C615.6 574.201 606.8 570.334 603.733 569.001C596.266 565.934 593.6 562.601 590 552.601C587.2 545.001 587.066 543.668 588.666 536.601C590.266 528.868 589.866 493.801 587.866 479.534C587.066 472.868 587.066 472.734 591.466 471.001C594 469.934 600.8 465.134 606.666 460.068C618 450.334 645.866 435.001 661.733 429.801C669.466 427.134 671.066 427.001 681.733 428.468C688.666 429.401 700.266 429.668 710.8 429.268L728.266 428.468L731.6 432.068C735.066 435.801 746 453.801 751.333 464.334C755.066 471.534 770.133 507.934 785.466 546.334C791.6 561.668 798.666 578.468 800.933 583.668C806.266 595.268 806.4 601.934 801.466 618.868C798.933 627.134 798 632.868 798.4 636.201C798.8 638.868 798.666 643.668 798.133 646.734C797.2 651.401 797.6 654.601 800.4 662.734C802.266 668.468 804 673.801 804.133 674.601C804.933 677.934 811.2 676.468 813.2 672.734L815.066 669.001L815.866 673.668C816.266 676.201 816.8 684.601 817.2 692.334C818 707.401 821.866 720.468 829.333 733.001C832.266 738.068 833.466 739.134 836.266 738.734C841.466 738.068 842.933 734.868 840.933 728.068C837.333 715.668 835.333 700.734 836.4 695.534L837.466 690.334L839.866 700.468C842.266 711.401 851.066 730.734 857.866 739.934C862.8 746.734 867.733 747.668 870.133 742.468C871.333 739.801 870.666 736.468 866.133 722.734C860.8 706.468 856.666 689.534 856.666 683.934C856.8 681.268 856.933 681.268 858.133 683.401C858.933 684.601 860.666 689.001 862 692.868C865.733 704.068 883.333 724.334 889.2 724.334C889.466 724.334 890.8 723.401 891.866 722.201C894.533 719.534 894.533 713.801 892 709.934C890 707.134 890 707.001 893.733 707.801C896.266 708.334 898 707.934 899.333 706.334C900.933 704.334 900.933 703.268 898.8 697.801C891.866 680.334 888.666 669.134 887.333 658.334C886.533 651.668 884.4 641.534 882.666 635.668C880.933 629.801 878.933 621.401 878.133 617.001C877.2 612.334 873.6 602.868 869.333 594.201L862 579.534L860 555.534C857.733 528.601 852.266 483.934 849.333 468.734C845.466 448.734 839.466 432.068 818.4 383.668C805.866 354.734 791.733 343.001 759.066 334.468C721.866 324.601 701.466 321.134 669.066 319.001C647.333 317.668 651.2 318.601 607.733 302.601C580.933 292.601 570.666 290.468 550 290.468C540.133 290.334 527.466 291.134 521.866 292.201L511.6 293.934L503.733 287.401C499.466 283.801 490.8 277.401 484.666 273.001C478.4 268.734 472.8 264.201 472.133 263.134C471.466 261.934 470.933 258.068 471.066 254.334C471.333 250.734 470.533 246.201 469.6 244.334C467.333 239.934 469.066 235.534 474 233.934C484.533 230.201 503.333 191.801 499.6 181.534C498.933 179.801 498.933 176.201 499.733 173.134C501.333 166.601 501.866 165.934 503.2 168.201C503.866 169.268 504.666 167.801 505.333 164.068C506.266 158.868 506.4 158.601 507.333 161.668C508.4 165.001 508.4 165.001 508.533 161.934C508.666 160.201 509.333 156.201 510.133 152.868C511.466 147.801 512 147.134 513.733 148.601C515.6 150.201 515.733 149.401 515.066 142.334L514.266 134.334L516.133 139.534C518.133 145.134 520.133 148.201 518.933 143.668C518.533 142.201 517.733 138.601 517.333 135.668C516.666 131.401 516.8 130.734 518 132.334C519.333 134.068 519.466 134.068 518.933 132.201C518.533 131.001 516.933 123.934 515.333 116.334C513.733 108.868 511.333 100.068 509.866 96.7342C508.4 93.4009 506.133 87.2675 504.8 83.1342C500.266 69.9342 495.733 60.3342 494.666 61.4009C494 61.9342 494 61.5342 494.533 60.6009C495.2 59.4009 494 56.8675 491.466 53.6675C489.2 50.8675 487.333 47.8009 487.333 47.0009C487.333 44.3342 480.4 31.6675 475.733 25.9342C468.533 17.0009 452.666 5.80088 443.2 2.86755C435.2 0.334213 427.333 -0.59912 434 1.80088C436.933 2.86755 436.933 2.86755 433.333 2.20088C427.066 1.00088 404.933 0.60088 395.066 1.53421ZM338.666 33.6675C338.266 34.3342 337.066 35.0009 336.266 35.0009C335.333 35.0009 335.466 34.4675 336.666 33.6675C339.2 32.0675 339.733 32.0675 338.666 33.6675ZM494.133 65.9342C495.6 68.7342 495.6 68.8675 493.6 67.1342C492.266 66.2009 491.333 64.8675 491.333 64.2009C491.333 62.2009 492.533 62.8675 494.133 65.9342ZM494.933 176.601C494.533 177.534 494.266 176.868 494.266 175.001C494.266 173.134 494.533 172.468 494.933 173.268C495.2 174.201 495.2 175.801 494.933 176.601Z" fill="black"/>
</g>
<g clip-path="url(#clip2_68_32)">
<path d="M395.066 1.53421C385.333 2.46755 381.466 4.20088 388.8 4.46755C392.133 4.60088 390.8 5.13421 384 6.46755C371.066 9.00088 370.4 9.80088 381.333 9.13421L390.666 8.46755L381.333 10.3342C372.4 12.2009 359.2 17.2675 358.266 19.2675C358 19.8009 354.666 21.1342 350.933 22.4675C347.066 23.6675 343.066 25.6675 342 26.8675C340.933 28.2009 337.066 31.1342 333.333 33.4009C329.733 35.6675 323.066 41.2675 318.666 45.8009L310.666 54.0675L318.533 47.8009C326.133 41.8009 335.333 36.2009 337.6 36.3342C338.133 36.4675 336.266 37.6675 333.333 39.2675C327.066 42.6009 314.266 55.2675 310.8 61.6675C308.4 66.0675 308.666 66.0675 314.266 59.9342C320.533 53.4009 324.933 51.0009 319.2 57.2675C312.666 64.4675 312.266 66.2009 318.4 60.3342C327.066 52.2009 326.266 54.4675 316.533 65.2675C312.133 70.2009 307.866 75.5342 307.066 77.0009L305.6 79.6675L308.666 77.0009L311.866 74.3342L308.8 79.2675C305.6 84.6009 306 88.3342 309.466 85.5342C312 83.5342 311.866 83.9342 307.866 94.4675C305.466 100.868 304.666 104.868 305.333 108.068C306 111.801 306.533 112.201 308.133 111.001C310.266 109.134 310.533 109.934 310 118.201C309.866 122.068 310.133 123.001 311.466 122.334C312.666 121.534 312.933 121.934 312.266 123.534C311.733 124.868 311.333 126.468 311.333 127.134C311.333 127.668 310.533 127.934 309.6 127.534C308.666 127.268 306.266 128.334 304.4 130.068C300.666 133.534 298.4 141.668 297.066 156.868C295.866 171.801 301.2 189.001 307.466 190.601C308.8 191.001 310 192.468 310 193.801C310 196.068 305.2 201.668 303.2 201.668C301.6 201.668 296.666 212.201 296.666 215.401C296.8 221.801 305.066 226.334 311.066 223.134C313.466 221.934 314.133 222.201 315.733 225.401C316.933 227.934 317.2 230.201 316.4 232.201C315.733 234.068 316.133 236.868 317.466 240.068C319.6 245.134 325.066 270.201 326.666 282.601C327.466 288.734 327.2 289.801 325.066 290.468C312.933 294.734 302 301.401 293.333 310.201C268.666 335.268 249.6 358.868 242 373.668C231.866 393.668 228.266 409.668 225.466 446.468C223.2 475.534 219.866 491.934 212.933 507.801C205.466 525.134 196.8 554.334 194.533 570.734L192.266 586.734L195.6 591.134C197.466 593.668 200.666 599.001 202.8 603.001C208 612.734 224.666 629.268 234.666 634.601C247.066 641.134 257.866 643.401 271.733 642.601C283.6 641.801 295.333 637.934 301.066 632.601C304.4 629.668 304.933 630.868 309.333 648.201C313.466 664.868 322 685.268 331.333 701.268C336 709.134 338.8 715.801 340.133 722.068L342 731.134L336.266 738.734C299.466 786.867 278.666 844.867 266 935.001C264.4 945.667 262.4 957.667 261.333 961.667C260.4 965.667 258.8 972.867 258 977.667C255.466 991.934 251.6 998.467 236.266 1014.73C221.2 1030.6 211.6 1043.53 201.466 1061.13C192 1077.8 164.533 1136.07 156 1157.67C148.4 1177.27 137.066 1202.33 124 1229C115.466 1246.33 100.533 1292.73 96.6664 1314.07C93.8664 1329.67 89.4664 1345 87.1998 1347.93C86.3998 1348.87 84.3998 1349.67 82.7998 1349.67C79.0664 1349.67 70.7998 1354.2 63.7331 1360.07C56.2664 1366.07 56.1331 1369.93 63.0664 1376.47C69.8664 1383 73.3331 1384.73 80.5331 1384.47C83.8664 1384.33 87.8664 1384.2 89.3331 1384.2C90.7998 1384.2 94.7998 1384.87 98.2664 1385.67C112.4 1389.13 123.333 1381.27 131.2 1361.67C142.933 1332.73 148.133 1325.4 168.666 1309C187.466 1293.8 194.133 1285.13 195.066 1274.6C195.6 1267.13 193.6 1261.13 188.533 1255.53C186 1252.87 186.133 1252.73 198.4 1240.87C213.6 1226.2 248.933 1194.73 271.866 1175.53C309.066 1144.6 320 1129 332 1090.47L336.933 1074.6L349.866 1061C356.933 1053.53 367.2 1040.87 372.666 1032.87C391.6 1004.87 399.066 996.467 459.6 935.667C493.066 901.934 522.933 871.267 525.866 867.534L531.2 860.734L542.266 859.934C561.066 858.334 570.133 854.334 574.8 845.534C576 843.134 577.733 841.667 578.933 841.934C580.133 842.201 584.4 849.801 589.2 860.334C593.733 870.201 600.933 884.467 605.2 892.067C616.933 913.001 652.933 966.334 671.2 990.067C680.133 1001.67 694.4 1022.33 702.933 1035.93C718.266 1060.47 725.066 1070.2 753.466 1108.87C768.666 1129.67 785.6 1146.87 810.666 1167.13C836.533 1188.07 857.333 1212.33 888.666 1258.33C899.2 1273.67 911.066 1290.87 915.2 1296.33C926.533 1311.67 1030.93 1468.33 1040.93 1485C1053.07 1505.27 1057.33 1514.33 1061.6 1527.93C1066.8 1544.73 1066.67 1568.07 1061.2 1599.67C1057.2 1623.8 1056.67 1632.6 1058.93 1644.07C1060.53 1652.73 1063.33 1655.67 1071.6 1657.93C1076.67 1659.13 1078.93 1659.27 1082.4 1657.93C1087.87 1655.93 1094.93 1655.8 1096 1657.67C1097.33 1659.67 1105.47 1659.27 1107.33 1657C1108.67 1655.53 1109.47 1655.4 1110.8 1656.47C1112.67 1658.07 1120.93 1658.47 1123.2 1657.13C1124 1656.6 1125.73 1657 1127.2 1657.93C1129.33 1659.27 1130.8 1659.27 1134.13 1658.07C1137.2 1656.87 1139.07 1656.87 1140.93 1657.8C1145.33 1660.2 1150 1658.07 1152.27 1652.6C1153.87 1648.6 1154.13 1643.4 1153.73 1624.33C1153.2 1604.87 1152.13 1595.8 1147.6 1569.67C1144.53 1552.47 1141.2 1530.47 1140 1521C1138.93 1511.4 1137.07 1500.47 1135.87 1496.6C1134.8 1492.73 1133.6 1484.6 1133.33 1478.33C1132.53 1464.2 1128.27 1451 1118.67 1433C1112.27 1421 1108.27 1411.4 1091.07 1367.67C1085.47 1353.27 1066.67 1292.6 1057.33 1259C1037.87 1189 1009.87 1152.47 937.6 1103.13C920.666 1091.4 912.666 1081.67 902 1059.93C886 1027 883.066 1017.4 872.666 962.334C861.733 904.734 852.533 867.267 834 805.667C829.733 791.401 824.4 771.668 822.133 761.801C809.733 707.668 777.733 661.401 728.266 626.334C702.666 608.068 679.733 596.734 655.733 590.201C651.066 588.868 647.333 587.401 647.333 586.868C647.333 586.334 645.066 585.534 642.4 585.001C639.6 584.468 631.066 581.268 623.333 577.801C615.6 574.201 606.8 570.334 603.733 569.001C596.266 565.934 593.6 562.601 590 552.601C587.2 545.001 587.066 543.668 588.666 536.601C590.266 528.868 589.866 493.801 587.866 479.534C587.066 472.868 587.066 472.734 591.466 471.001C594 469.934 600.8 465.134 606.666 460.068C618 450.334 645.866 435.001 661.733 429.801C669.466 427.134 671.066 427.001 681.733 428.468C688.666 429.401 700.266 429.668 710.8 429.268L728.266 428.468L731.6 432.068C735.066 435.801 746 453.801 751.333 464.334C755.066 471.534 770.133 507.934 785.466 546.334C791.6 561.668 798.666 578.468 800.933 583.668C806.266 595.268 806.4 601.934 801.466 618.868C798.933 627.134 798 632.868 798.4 636.201C798.8 638.868 798.666 643.668 798.133 646.734C797.2 651.401 797.6 654.601 800.4 662.734C802.266 668.468 804 673.801 804.133 674.601C804.933 677.934 811.2 676.468 813.2 672.734L815.066 669.001L815.866 673.668C816.266 676.201 816.8 684.601 817.2 692.334C818 707.401 821.866 720.468 829.333 733.001C832.266 738.068 833.466 739.134 836.266 738.734C841.466 738.068 842.933 734.868 840.933 728.068C837.333 715.668 835.333 700.734 836.4 695.534L837.466 690.334L839.866 700.468C842.266 711.401 851.066 730.734 857.866 739.934C862.8 746.734 867.733 747.668 870.133 742.468C871.333 739.801 870.666 736.468 866.133 722.734C860.8 706.468 856.666 689.534 856.666 683.934C856.8 681.268 856.933 681.268 858.133 683.401C858.933 684.601 860.666 689.001 862 692.868C865.733 704.068 883.333 724.334 889.2 724.334C889.466 724.334 890.8 723.401 891.866 722.201C894.533 719.534 894.533 713.801 892 709.934C890 707.134 890 707.001 893.733 707.801C896.266 708.334 898 707.934 899.333 706.334C900.933 704.334 900.933 703.268 898.8 697.801C891.866 680.334 888.666 669.134 887.333 658.334C886.533 651.668 884.4 641.534 882.666 635.668C880.933 629.801 878.933 621.401 878.133 617.001C877.2 612.334 873.6 602.868 869.333 594.201L862 579.534L860 555.534C857.733 528.601 852.266 483.934 849.333 468.734C845.466 448.734 839.466 432.068 818.4 383.668C805.866 354.734 791.733 343.001 759.066 334.468C721.866 324.601 701.466 321.134 669.066 319.001C647.333 317.668 651.2 318.601 607.733 302.601C580.933 292.601 570.666 290.468 550 290.468C540.133 290.334 527.466 291.134 521.866 292.201L511.6 293.934L503.733 287.401C499.466 283.801 490.8 277.401 484.666 273.001C478.4 268.734 472.8 264.201 472.133 263.134C471.466 261.934 470.933 258.068 471.066 254.334C471.333 250.734 470.533 246.201 469.6 244.334C467.333 239.934 469.066 235.534 474 233.934C484.533 230.201 503.333 191.801 499.6 181.534C498.933 179.801 498.933 176.201 499.733 173.134C501.333 166.601 501.866 165.934 503.2 168.201C503.866 169.268 504.666 167.801 505.333 164.068C506.266 158.868 506.4 158.601 507.333 161.668C508.4 165.001 508.4 165.001 508.533 161.934C508.666 160.201 509.333 156.201 510.133 152.868C511.466 147.801 512 147.134 513.733 148.601C515.6 150.201 515.733 149.401 515.066 142.334L514.266 134.334L516.133 139.534C518.133 145.134 520.133 148.201 518.933 143.668C518.533 142.201 517.733 138.601 517.333 135.668C516.666 131.401 516.8 130.734 518 132.334C519.333 134.068 519.466 134.068 518.933 132.201C518.533 131.001 516.933 123.934 515.333 116.334C513.733 108.868 511.333 100.068 509.866 96.7342C508.4 93.4009 506.133 87.2675 504.8 83.1342C500.266 69.9342 495.733 60.3342 494.666 61.4009C494 61.9342 494 61.5342 494.533 60.6009C495.2 59.4009 494 56.8675 491.466 53.6675C489.2 50.8675 487.333 47.8009 487.333 47.0009C487.333 44.3342 480.4 31.6675 475.733 25.9342C468.533 17.0009 452.666 5.80088 443.2 2.86755C435.2 0.334213 427.333 -0.59912 434 1.80088C436.933 2.86755 436.933 2.86755 433.333 2.20088C427.066 1.00088 404.933 0.60088 395.066 1.53421ZM338.666 33.6675C338.266 34.3342 337.066 35.0009 336.266 35.0009C335.333 35.0009 335.466 34.4675 336.666 33.6675C339.2 32.0675 339.733 32.0675 338.666 33.6675ZM494.133 65.9342C495.6 68.7342 495.6 68.8675 493.6 67.1342C492.266 66.2009 491.333 64.8675 491.333 64.2009C491.333 62.2009 492.533 62.8675 494.133 65.9342ZM494.933 176.601C494.533 177.534 494.266 176.868 494.266 175.001C494.266 173.134 494.533 172.468 494.933 173.268C495.2 174.201 495.2 175.801 494.933 176.601Z" fill="black"/>
</g>
<g clip-path="url(#clip3_68_32)">
<path d="M395.066 1.53421C385.333 2.46755 381.466 4.20088 388.8 4.46755C392.133 4.60088 390.8 5.13421 384 6.46755C371.066 9.00088 370.4 9.80088 381.333 9.13421L390.666 8.46755L381.333 10.3342C372.4 12.2009 359.2 17.2675 358.266 19.2675C358 19.8009 354.666 21.1342 350.933 22.4675C347.066 23.6675 343.066 25.6675 342 26.8675C340.933 28.2009 337.066 31.1342 333.333 33.4009C329.733 35.6675 323.066 41.2675 318.666 45.8009L310.666 54.0675L318.533 47.8009C326.133 41.8009 335.333 36.2009 337.6 36.3342C338.133 36.4675 336.266 37.6675 333.333 39.2675C327.066 42.6009 314.266 55.2675 310.8 61.6675C308.4 66.0675 308.666 66.0675 314.266 59.9342C320.533 53.4009 324.933 51.0009 319.2 57.2675C312.666 64.4675 312.266 66.2009 318.4 60.3342C327.066 52.2009 326.266 54.4675 316.533 65.2675C312.133 70.2009 307.866 75.5342 307.066 77.0009L305.6 79.6675L308.666 77.0009L311.866 74.3342L308.8 79.2675C305.6 84.6009 306 88.3342 309.466 85.5342C312 83.5342 311.866 83.9342 307.866 94.4675C305.466 100.868 304.666 104.868 305.333 108.068C306 111.801 306.533 112.201 308.133 111.001C310.266 109.134 310.533 109.934 310 118.201C309.866 122.068 310.133 123.001 311.466 122.334C312.666 121.534 312.933 121.934 312.266 123.534C311.733 124.868 311.333 126.468 311.333 127.134C311.333 127.668 310.533 127.934 309.6 127.534C308.666 127.268 306.266 128.334 304.4 130.068C300.666 133.534 298.4 141.668 297.066 156.868C295.866 171.801 301.2 189.001 307.466 190.601C308.8 191.001 310 192.468 310 193.801C310 196.068 305.2 201.668 303.2 201.668C301.6 201.668 296.666 212.201 296.666 215.401C296.8 221.801 305.066 226.334 311.066 223.134C313.466 221.934 314.133 222.201 315.733 225.401C316.933 227.934 317.2 230.201 316.4 232.201C315.733 234.068 316.133 236.868 317.466 240.068C319.6 245.134 325.066 270.201 326.666 282.601C327.466 288.734 327.2 289.801 325.066 290.468C312.933 294.734 302 301.401 293.333 310.201C268.666 335.268 249.6 358.868 242 373.668C231.866 393.668 228.266 409.668 225.466 446.468C223.2 475.534 219.866 491.934 212.933 507.801C205.466 525.134 196.8 554.334 194.533 570.734L192.266 586.734L195.6 591.134C197.466 593.668 200.666 599.001 202.8 603.001C208 612.734 224.666 629.268 234.666 634.601C247.066 641.134 257.866 643.401 271.733 642.601C283.6 641.801 295.333 637.934 301.066 632.601C304.4 629.668 304.933 630.868 309.333 648.201C313.466 664.868 322 685.268 331.333 701.268C336 709.134 338.8 715.801 340.133 722.068L342 731.134L336.266 738.734C299.466 786.867 278.666 844.867 266 935.001C264.4 945.667 262.4 957.667 261.333 961.667C260.4 965.667 258.8 972.867 258 977.667C255.466 991.934 251.6 998.467 236.266 1014.73C221.2 1030.6 211.6 1043.53 201.466 1061.13C192 1077.8 164.533 1136.07 156 1157.67C148.4 1177.27 137.066 1202.33 124 1229C115.466 1246.33 100.533 1292.73 96.6664 1314.07C93.8664 1329.67 89.4664 1345 87.1998 1347.93C86.3998 1348.87 84.3998 1349.67 82.7998 1349.67C79.0664 1349.67 70.7998 1354.2 63.7331 1360.07C56.2664 1366.07 56.1331 1369.93 63.0664 1376.47C69.8664 1383 73.3331 1384.73 80.5331 1384.47C83.8664 1384.33 87.8664 1384.2 89.3331 1384.2C90.7998 1384.2 94.7998 1384.87 98.2664 1385.67C112.4 1389.13 123.333 1381.27 131.2 1361.67C142.933 1332.73 148.133 1325.4 168.666 1309C187.466 1293.8 194.133 1285.13 195.066 1274.6C195.6 1267.13 193.6 1261.13 188.533 1255.53C186 1252.87 186.133 1252.73 198.4 1240.87C213.6 1226.2 248.933 1194.73 271.866 1175.53C309.066 1144.6 320 1129 332 1090.47L336.933 1074.6L349.866 1061C356.933 1053.53 367.2 1040.87 372.666 1032.87C391.6 1004.87 399.066 996.467 459.6 935.667C493.066 901.934 522.933 871.267 525.866 867.534L531.2 860.734L542.266 859.934C561.066 858.334 570.133 854.334 574.8 845.534C576 843.134 577.733 841.667 578.933 841.934C580.133 842.201 584.4 849.801 589.2 860.334C593.733 870.201 600.933 884.467 605.2 892.067C616.933 913.001 652.933 966.334 671.2 990.067C680.133 1001.67 694.4 1022.33 702.933 1035.93C718.266 1060.47 725.066 1070.2 753.466 1108.87C768.666 1129.67 785.6 1146.87 810.666 1167.13C836.533 1188.07 857.333 1212.33 888.666 1258.33C899.2 1273.67 911.066 1290.87 915.2 1296.33C926.533 1311.67 1030.93 1468.33 1040.93 1485C1053.07 1505.27 1057.33 1514.33 1061.6 1527.93C1066.8 1544.73 1066.67 1568.07 1061.2 1599.67C1057.2 1623.8 1056.67 1632.6 1058.93 1644.07C1060.53 1652.73 1063.33 1655.67 1071.6 1657.93C1076.67 1659.13 1078.93 1659.27 1082.4 1657.93C1087.87 1655.93 1094.93 1655.8 1096 1657.67C1097.33 1659.67 1105.47 1659.27 1107.33 1657C1108.67 1655.53 1109.47 1655.4 1110.8 1656.47C1112.67 1658.07 1120.93 1658.47 1123.2 1657.13C1124 1656.6 1125.73 1657 1127.2 1657.93C1129.33 1659.27 1130.8 1659.27 1134.13 1658.07C1137.2 1656.87 1139.07 1656.87 1140.93 1657.8C1145.33 1660.2 1150 1658.07 1152.27 1652.6C1153.87 1648.6 1154.13 1643.4 1153.73 1624.33C1153.2 1604.87 1152.13 1595.8 1147.6 1569.67C1144.53 1552.47 1141.2 1530.47 1140 1521C1138.93 1511.4 1137.07 1500.47 1135.87 1496.6C1134.8 1492.73 1133.6 1484.6 1133.33 1478.33C1132.53 1464.2 1128.27 1451 1118.67 1433C1112.27 1421 1108.27 1411.4 1091.07 1367.67C1085.47 1353.27 1066.67 1292.6 1057.33 1259C1037.87 1189 1009.87 1152.47 937.6 1103.13C920.666 1091.4 912.666 1081.67 902 1059.93C886 1027 883.066 1017.4 872.666 962.334C861.733 904.734 852.533 867.267 834 805.667C829.733 791.401 824.4 771.668 822.133 761.801C809.733 707.668 777.733 661.401 728.266 626.334C702.666 608.068 679.733 596.734 655.733 590.201C651.066 588.868 647.333 587.401 647.333 586.868C647.333 586.334 645.066 585.534 642.4 585.001C639.6 584.468 631.066 581.268 623.333 577.801C615.6 574.201 606.8 570.334 603.733 569.001C596.266 565.934 593.6 562.601 590 552.601C587.2 545.001 587.066 543.668 588.666 536.601C590.266 528.868 589.866 493.801 587.866 479.534C587.066 472.868 587.066 472.734 591.466 471.001C594 469.934 600.8 465.134 606.666 460.068C618 450.334 645.866 435.001 661.733 429.801C669.466 427.134 671.066 427.001 681.733 428.468C688.666 429.401 700.266 429.668 710.8 429.268L728.266 428.468L731.6 432.068C735.066 435.801 746 453.801 751.333 464.334C755.066 471.534 770.133 507.934 785.466 546.334C791.6 561.668 798.666 578.468 800.933 583.668C806.266 595.268 806.4 601.934 801.466 618.868C798.933 627.134 798 632.868 798.4 636.201C798.8 638.868 798.666 643.668 798.133 646.734C797.2 651.401 797.6 654.601 800.4 662.734C802.266 668.468 804 673.801 804.133 674.601C804.933 677.934 811.2 676.468 813.2 672.734L815.066 669.001L815.866 673.668C816.266 676.201 816.8 684.601 817.2 692.334C818 707.401 821.866 720.468 829.333 733.001C832.266 738.068 833.466 739.134 836.266 738.734C841.466 738.068 842.933 734.868 840.933 728.068C837.333 715.668 835.333 700.734 836.4 695.534L837.466 690.334L839.866 700.468C842.266 711.401 851.066 730.734 857.866 739.934C862.8 746.734 867.733 747.668 870.133 742.468C871.333 739.801 870.666 736.468 866.133 722.734C860.8 706.468 856.666 689.534 856.666 683.934C856.8 681.268 856.933 681.268 858.133 683.401C858.933 684.601 860.666 689.001 862 692.868C865.733 704.068 883.333 724.334 889.2 724.334C889.466 724.334 890.8 723.401 891.866 722.201C894.533 719.534 894.533 713.801 892 709.934C890 707.134 890 707.001 893.733 707.801C896.266 708.334 898 707.934 899.333 706.334C900.933 704.334 900.933 703.268 898.8 697.801C891.866 680.334 888.666 669.134 887.333 658.334C886.533 651.668 884.4 641.534 882.666 635.668C880.933 629.801 878.933 621.401 878.133 617.001C877.2 612.334 873.6 602.868 869.333 594.201L862 579.534L860 555.534C857.733 528.601 852.266 483.934 849.333 468.734C845.466 448.734 839.466 432.068 818.4 383.668C805.866 354.734 791.733 343.001 759.066 334.468C721.866 324.601 701.466 321.134 669.066 319.001C647.333 317.668 651.2 318.601 607.733 302.601C580.933 292.601 570.666 290.468 550 290.468C540.133 290.334 527.466 291.134 521.866 292.201L511.6 293.934L503.733 287.401C499.466 283.801 490.8 277.401 484.666 273.001C478.4 268.734 472.8 264.201 472.133 263.134C471.466 261.934 470.933 258.068 471.066 254.334C471.333 250.734 470.533 246.201 469.6 244.334C467.333 239.934 469.066 235.534 474 233.934C484.533 230.201 503.333 191.801 499.6 181.534C498.933 179.801 498.933 176.201 499.733 173.134C501.333 166.601 501.866 165.934 503.2 168.201C503.866 169.268 504.666 167.801 505.333 164.068C506.266 158.868 506.4 158.601 507.333 161.668C508.4 165.001 508.4 165.001 508.533 161.934C508.666 160.201 509.333 156.201 510.133 152.868C511.466 147.801 512 147.134 513.733 148.601C515.6 150.201 515.733 149.401 515.066 142.334L514.266 134.334L516.133 139.534C518.133 145.134 520.133 148.201 518.933 143.668C518.533 142.201 517.733 138.601 517.333 135.668C516.666 131.401 516.8 130.734 518 132.334C519.333 134.068 519.466 134.068 518.933 132.201C518.533 131.001 516.933 123.934 515.333 116.334C513.733 108.868 511.333 100.068 509.866 96.7342C508.4 93.4009 506.133 87.2675 504.8 83.1342C500.266 69.9342 495.733 60.3342 494.666 61.4009C494 61.9342 494 61.5342 494.533 60.6009C495.2 59.4009 494 56.8675 491.466 53.6675C489.2 50.8675 487.333 47.8009 487.333 47.0009C487.333 44.3342 480.4 31.6675 475.733 25.9342C468.533 17.0009 452.666 5.80088 443.2 2.86755C435.2 0.334213 427.333 -0.59912 434 1.80088C436.933 2.86755 436.933 2.86755 433.333 2.20088C427.066 1.00088 404.933 0.60088 395.066 1.53421ZM338.666 33.6675C338.266 34.3342 337.066 35.0009 336.266 35.0009C335.333 35.0009 335.466 34.4675 336.666 33.6675C339.2 32.0675 339.733 32.0675 338.666 33.6675ZM494.133 65.9342C495.6 68.7342 495.6 68.8675 493.6 67.1342C492.266 66.2009 491.333 64.8675 491.333 64.2009C491.333 62.2009 492.533 62.8675 494.133 65.9342ZM494.933 176.601C494.533 177.534 494.266 176.868 494.266 175.001C494.266 173.134 494.533 172.468 494.933 173.268C495.2 174.201 495.2 175.801 494.933 176.601Z" fill="black"/>
</g>
<g clip-path="url(#clip4_68_32)">
<path d="M395.066 1.53418C385.333 2.46753 381.466 4.20093 388.8 4.46753C392.133 4.60083 390.8 5.13416 384 6.46753C371.066 9.00085 370.4 9.8009 381.333 9.13416L390.666 8.46753L381.333 10.3342C372.4 12.2009 359.2 17.2676 358.266 19.2676C358 19.8009 354.666 21.1342 350.933 22.4675C347.066 23.6676 343.066 25.6676 342 26.8676C340.933 28.2009 337.066 31.1342 333.333 33.4009C329.733 35.6676 323.066 41.2676 318.666 45.8009L310.666 54.0675L318.533 47.8009C326.133 41.8009 335.333 36.2009 337.6 36.3342C338.133 36.4675 336.266 37.6676 333.333 39.2676C327.066 42.6008 314.266 55.2676 310.8 61.6676C308.4 66.0675 308.666 66.0675 314.266 59.9342C320.533 53.4009 324.933 51.0009 319.2 57.2676C312.666 64.4675 312.266 66.2009 318.4 60.3342C327.066 52.2009 326.266 54.4675 316.533 65.2676C312.133 70.2009 307.866 75.5342 307.066 77.0009L305.6 79.6676L308.666 77.0009L311.866 74.3342L308.8 79.2676C305.6 84.6008 306 88.3342 309.466 85.5342C312 83.5342 311.866 83.9342 307.866 94.4675C305.466 100.868 304.666 104.868 305.333 108.068C306 111.801 306.533 112.201 308.133 111.001C310.266 109.134 310.533 109.934 310 118.201C309.866 122.068 310.133 123.001 311.466 122.334C312.666 121.534 312.933 121.934 312.266 123.534C311.733 124.868 311.333 126.468 311.333 127.134C311.333 127.667 310.533 127.934 309.6 127.534C308.666 127.268 306.266 128.334 304.4 130.068C300.666 133.534 298.4 141.667 297.066 156.868C295.866 171.801 301.2 189.001 307.466 190.601C308.8 191.001 310 192.468 310 193.801C310 196.068 305.2 201.667 303.2 201.667C301.6 201.667 296.666 212.201 296.666 215.401C296.8 221.801 305.066 226.334 311.066 223.134C313.466 221.934 314.133 222.201 315.733 225.401C316.933 227.934 317.2 230.201 316.4 232.201C315.733 234.068 316.133 236.868 317.466 240.068C319.6 245.134 325.066 270.201 326.666 282.601C327.466 288.734 327.2 289.801 325.066 290.468C312.933 294.734 302 301.401 293.333 310.201C268.666 335.268 249.6 358.868 242 373.667C231.866 393.667 228.266 409.667 225.466 446.468C223.2 475.534 219.866 491.934 212.933 507.801C205.466 525.134 196.8 554.334 194.533 570.734L192.266 586.734L195.6 591.134C197.466 593.667 200.666 599.001 202.8 603.001C208 612.734 224.666 629.267 234.666 634.601C247.066 641.134 257.866 643.401 271.733 642.601C283.6 641.801 295.333 637.934 301.066 632.601C304.4 629.667 304.933 630.868 309.333 648.201C313.466 664.867 322 685.268 331.333 701.268C336 709.134 338.8 715.801 340.133 722.068L342 731.134L336.266 738.734C299.466 786.867 278.666 844.867 266 935.001C264.4 945.667 262.4 957.667 261.333 961.667C260.4 965.667 258.8 972.867 258 977.667C255.466 991.934 251.6 998.467 236.266 1014.73C221.2 1030.6 211.6 1043.53 201.466 1061.13C192 1077.8 164.533 1136.07 156 1157.67C148.4 1177.27 137.066 1202.33 124 1229C115.466 1246.33 100.533 1292.73 96.6664 1314.07C93.8664 1329.67 89.4664 1345 87.1998 1347.93C86.3998 1348.87 84.3998 1349.67 82.7998 1349.67C79.0664 1349.67 70.7998 1354.2 63.7331 1360.07C56.2664 1366.07 56.1331 1369.93 63.0664 1376.47C69.8664 1383 73.3331 1384.73 80.5331 1384.47C83.8664 1384.33 87.8664 1384.2 89.3331 1384.2C90.7998 1384.2 94.7998 1384.87 98.2664 1385.67C112.4 1389.13 123.333 1381.27 131.2 1361.67C142.933 1332.73 148.133 1325.4 168.666 1309C187.466 1293.8 194.133 1285.13 195.066 1274.6C195.6 1267.13 193.6 1261.13 188.533 1255.53C186 1252.87 186.133 1252.73 198.4 1240.87C213.6 1226.2 248.933 1194.73 271.866 1175.53C309.066 1144.6 320 1129 332 1090.47L336.933 1074.6L349.866 1061C356.933 1053.53 367.2 1040.87 372.666 1032.87C391.6 1004.87 399.066 996.467 459.6 935.667C493.066 901.934 522.933 871.268 525.866 867.534L531.2 860.734L542.266 859.934C561.066 858.334 570.133 854.334 574.8 845.534C576 843.134 577.733 841.667 578.933 841.934C580.133 842.201 584.4 849.801 589.2 860.334C593.733 870.201 600.933 884.467 605.2 892.068C616.933 913.001 652.933 966.334 671.2 990.068C680.133 1001.67 694.4 1022.33 702.933 1035.93C718.266 1060.47 725.066 1070.2 753.466 1108.87C768.666 1129.67 785.6 1146.87 810.666 1167.13C836.533 1188.07 857.333 1212.33 888.666 1258.33C899.2 1273.67 911.066 1290.87 915.2 1296.33C926.533 1311.67 1030.93 1468.33 1040.93 1485C1053.07 1505.27 1057.33 1514.33 1061.6 1527.93C1066.8 1544.73 1066.67 1568.07 1061.2 1599.67C1057.2 1623.8 1056.67 1632.6 1058.93 1644.07C1060.53 1652.73 1063.33 1655.67 1071.6 1657.93C1076.67 1659.13 1078.93 1659.27 1082.4 1657.93C1087.87 1655.93 1094.93 1655.8 1096 1657.67C1097.33 1659.67 1105.47 1659.27 1107.33 1657C1108.67 1655.53 1109.47 1655.4 1110.8 1656.47C1112.67 1658.07 1120.93 1658.47 1123.2 1657.13C1124 1656.6 1125.73 1657 1127.2 1657.93C1129.33 1659.27 1130.8 1659.27 1134.13 1658.07C1137.2 1656.87 1139.07 1656.87 1140.93 1657.8C1145.33 1660.2 1150 1658.07 1152.27 1652.6C1153.87 1648.6 1154.13 1643.4 1153.73 1624.33C1153.2 1604.87 1152.13 1595.8 1147.6 1569.67C1144.53 1552.47 1141.2 1530.47 1140 1521C1138.93 1511.4 1137.07 1500.47 1135.87 1496.6C1134.8 1492.73 1133.6 1484.6 1133.33 1478.33C1132.53 1464.2 1128.27 1451 1118.67 1433C1112.27 1421 1108.27 1411.4 1091.07 1367.67C1085.47 1353.27 1066.67 1292.6 1057.33 1259C1037.87 1189 1009.87 1152.47 937.6 1103.13C920.666 1091.4 912.666 1081.67 902 1059.93C886 1027 883.066 1017.4 872.666 962.334C861.733 904.734 852.533 867.268 834 805.667C829.733 791.401 824.4 771.667 822.133 761.801C809.733 707.667 777.733 661.401 728.266 626.334C702.666 608.068 679.733 596.734 655.733 590.201C651.066 588.868 647.333 587.401 647.333 586.868C647.333 586.334 645.066 585.534 642.4 585.001C639.6 584.468 631.066 581.267 623.333 577.801C615.6 574.201 606.8 570.334 603.733 569.001C596.266 565.934 593.6 562.601 590 552.601C587.2 545.001 587.066 543.667 588.666 536.601C590.266 528.868 589.866 493.801 587.866 479.534C587.066 472.868 587.066 472.734 591.466 471.001C594 469.934 600.8 465.134 606.666 460.068C618 450.334 645.866 435.001 661.733 429.801C669.466 427.134 671.066 427.001 681.733 428.468C688.666 429.401 700.266 429.667 710.8 429.268L728.266 428.468L731.6 432.068C735.066 435.801 746 453.801 751.333 464.334C755.066 471.534 770.133 507.934 785.466 546.334C791.6 561.667 798.666 578.468 800.933 583.667C806.266 595.267 806.4 601.934 801.466 618.868C798.933 627.134 798 632.868 798.4 636.201C798.8 638.867 798.666 643.667 798.133 646.734C797.2 651.401 797.6 654.601 800.4 662.734C802.266 668.468 804 673.801 804.133 674.601C804.933 677.934 811.2 676.468 813.2 672.734L815.066 669.001L815.866 673.667C816.266 676.201 816.8 684.601 817.2 692.334C818 707.401 821.866 720.468 829.333 733.001C832.266 738.068 833.466 739.134 836.266 738.734C841.466 738.068 842.933 734.867 840.933 728.068C837.333 715.667 835.333 700.734 836.4 695.534L837.466 690.334L839.866 700.468C842.266 711.401 851.066 730.734 857.866 739.934C862.8 746.734 867.733 747.667 870.133 742.468C871.333 739.801 870.666 736.468 866.133 722.734C860.8 706.468 856.666 689.534 856.666 683.934C856.8 681.268 856.933 681.268 858.133 683.401C858.933 684.601 860.666 689.001 862 692.867C865.733 704.068 883.333 724.334 889.2 724.334C889.466 724.334 890.8 723.401 891.866 722.201C894.533 719.534 894.533 713.801 892 709.934C890 707.134 890 707.001 893.733 707.801C896.266 708.334 898 707.934 899.333 706.334C900.933 704.334 900.933 703.268 898.8 697.801C891.866 680.334 888.666 669.134 887.333 658.334C886.533 651.667 884.4 641.534 882.666 635.667C880.933 629.801 878.933 621.401 878.133 617.001C877.2 612.334 873.6 602.868 869.333 594.201L862 579.534L860 555.534C857.733 528.601 852.266 483.934 849.333 468.734C845.466 448.734 839.466 432.068 818.4 383.667C805.866 354.734 791.733 343.001 759.066 334.468C721.866 324.601 701.466 321.134 669.066 319.001C647.333 317.667 651.2 318.601 607.733 302.601C580.933 292.601 570.666 290.468 550 290.468C540.133 290.334 527.466 291.134 521.866 292.201L511.6 293.934L503.733 287.401C499.466 283.801 490.8 277.401 484.666 273.001C478.4 268.734 472.8 264.201 472.133 263.134C471.466 261.934 470.933 258.068 471.066 254.334C471.333 250.734 470.533 246.201 469.6 244.334C467.333 239.934 469.066 235.534 474 233.934C484.533 230.201 503.333 191.801 499.6 181.534C498.933 179.801 498.933 176.201 499.733 173.134C501.333 166.601 501.866 165.934 503.2 168.201C503.866 169.268 504.666 167.801 505.333 164.068C506.266 158.868 506.4 158.601 507.333 161.667C508.4 165.001 508.4 165.001 508.533 161.934C508.666 160.201 509.333 156.201 510.133 152.868C511.466 147.801 512 147.134 513.733 148.601C515.6 150.201 515.733 149.401 515.066 142.334L514.266 134.334L516.133 139.534C518.133 145.134 520.133 148.201 518.933 143.667C518.533 142.201 517.733 138.601 517.333 135.667C516.666 131.401 516.8 130.734 518 132.334C519.333 134.068 519.466 134.068 518.933 132.201C518.533 131.001 516.933 123.934 515.333 116.334C513.733 108.868 511.333 100.068 509.866 96.7343C508.4 93.4009 506.133 87.2676 504.8 83.1342C500.266 69.9342 495.733 60.3342 494.666 61.4009C494 61.9342 494 61.5342 494.533 60.6008C495.2 59.4009 494 56.8676 491.466 53.6676C489.2 50.8676 487.333 47.8009 487.333 47.0009C487.333 44.3342 480.4 31.6676 475.733 25.9342C468.533 17.0009 452.666 5.8009 443.2 2.86755C435.2 0.334229 427.333 -0.599121 434 1.8009C436.933 2.86755 436.933 2.86755 433.333 2.20093C427.066 1.00085 404.933 0.60083 395.066 1.53418ZM338.666 33.6676C338.266 34.3342 337.066 35.0009 336.266 35.0009C335.333 35.0009 335.466 34.4675 336.666 33.6676C339.2 32.0675 339.733 32.0675 338.666 33.6676ZM494.133 65.9342C495.6 68.7343 495.6 68.8676 493.6 67.1342C492.266 66.2009 491.333 64.8676 491.333 64.2009C491.333 62.2009 492.533 62.8676 494.133 65.9342ZM494.933 176.601C494.533 177.534 494.266 176.868 494.266 175.001C494.266 173.134 494.533 172.468 494.933 173.268C495.2 174.201 495.2 175.801 494.933 176.601Z" fill="black"/>
</g>
<g clip-path="url(#clip5_68_32)">
<path d="M395.066 1.53418C385.333 2.46753 381.466 4.20093 388.8 4.46753C392.133 4.60083 390.8 5.13416 384 6.46753C371.066 9.00085 370.4 9.8009 381.333 9.13416L390.666 8.46753L381.333 10.3342C372.4 12.2009 359.2 17.2676 358.266 19.2676C358 19.8009 354.666 21.1342 350.933 22.4675C347.066 23.6676 343.066 25.6676 342 26.8676C340.933 28.2009 337.066 31.1342 333.333 33.4009C329.733 35.6676 323.066 41.2676 318.666 45.8009L310.666 54.0675L318.533 47.8009C326.133 41.8009 335.333 36.2009 337.6 36.3342C338.133 36.4675 336.266 37.6676 333.333 39.2676C327.066 42.6008 314.266 55.2676 310.8 61.6676C308.4 66.0675 308.666 66.0675 314.266 59.9342C320.533 53.4009 324.933 51.0009 319.2 57.2676C312.666 64.4675 312.266 66.2009 318.4 60.3342C327.066 52.2009 326.266 54.4675 316.533 65.2676C312.133 70.2009 307.866 75.5342 307.066 77.0009L305.6 79.6676L308.666 77.0009L311.866 74.3342L308.8 79.2676C305.6 84.6008 306 88.3342 309.466 85.5342C312 83.5342 311.866 83.9342 307.866 94.4675C305.466 100.868 304.666 104.868 305.333 108.068C306 111.801 306.533 112.201 308.133 111.001C310.266 109.134 310.533 109.934 310 118.201C309.866 122.068 310.133 123.001 311.466 122.334C312.666 121.534 312.933 121.934 312.266 123.534C311.733 124.868 311.333 126.468 311.333 127.134C311.333 127.667 310.533 127.934 309.6 127.534C308.666 127.268 306.266 128.334 304.4 130.068C300.666 133.534 298.4 141.667 297.066 156.868C295.866 171.801 301.2 189.001 307.466 190.601C308.8 191.001 310 192.468 310 193.801C310 196.068 305.2 201.667 303.2 201.667C301.6 201.667 296.666 212.201 296.666 215.401C296.8 221.801 305.066 226.334 311.066 223.134C313.466 221.934 314.133 222.201 315.733 225.401C316.933 227.934 317.2 230.201 316.4 232.201C315.733 234.068 316.133 236.868 317.466 240.068C319.6 245.134 325.066 270.201 326.666 282.601C327.466 288.734 327.2 289.801 325.066 290.468C312.933 294.734 302 301.401 293.333 310.201C268.666 335.268 249.6 358.868 242 373.667C231.866 393.667 228.266 409.667 225.466 446.468C223.2 475.534 219.866 491.934 212.933 507.801C205.466 525.134 196.8 554.334 194.533 570.734L192.266 586.734L195.6 591.134C197.466 593.667 200.666 599.001 202.8 603.001C208 612.734 224.666 629.267 234.666 634.601C247.066 641.134 257.866 643.401 271.733 642.601C283.6 641.801 295.333 637.934 301.066 632.601C304.4 629.667 304.933 630.868 309.333 648.201C313.466 664.867 322 685.268 331.333 701.268C336 709.134 338.8 715.801 340.133 722.068L342 731.134L336.266 738.734C299.466 786.867 278.666 844.867 266 935.001C264.4 945.667 262.4 957.667 261.333 961.667C260.4 965.667 258.8 972.867 258 977.667C255.466 991.934 251.6 998.467 236.266 1014.73C221.2 1030.6 211.6 1043.53 201.466 1061.13C192 1077.8 164.533 1136.07 156 1157.67C148.4 1177.27 137.066 1202.33 124 1229C115.466 1246.33 100.533 1292.73 96.6664 1314.07C93.8664 1329.67 89.4664 1345 87.1998 1347.93C86.3998 1348.87 84.3998 1349.67 82.7998 1349.67C79.0664 1349.67 70.7998 1354.2 63.7331 1360.07C56.2664 1366.07 56.1331 1369.93 63.0664 1376.47C69.8664 1383 73.3331 1384.73 80.5331 1384.47C83.8664 1384.33 87.8664 1384.2 89.3331 1384.2C90.7998 1384.2 94.7998 1384.87 98.2664 1385.67C112.4 1389.13 123.333 1381.27 131.2 1361.67C142.933 1332.73 148.133 1325.4 168.666 1309C187.466 1293.8 194.133 1285.13 195.066 1274.6C195.6 1267.13 193.6 1261.13 188.533 1255.53C186 1252.87 186.133 1252.73 198.4 1240.87C213.6 1226.2 248.933 1194.73 271.866 1175.53C309.066 1144.6 320 1129 332 1090.47L336.933 1074.6L349.866 1061C356.933 1053.53 367.2 1040.87 372.666 1032.87C391.6 1004.87 399.066 996.467 459.6 935.667C493.066 901.934 522.933 871.268 525.866 867.534L531.2 860.734L542.266 859.934C561.066 858.334 570.133 854.334 574.8 845.534C576 843.134 577.733 841.667 578.933 841.934C580.133 842.201 584.4 849.801 589.2 860.334C593.733 870.201 600.933 884.467 605.2 892.068C616.933 913.001 652.933 966.334 671.2 990.068C680.133 1001.67 694.4 1022.33 702.933 1035.93C718.266 1060.47 725.066 1070.2 753.466 1108.87C768.666 1129.67 785.6 1146.87 810.666 1167.13C836.533 1188.07 857.333 1212.33 888.666 1258.33C899.2 1273.67 911.066 1290.87 915.2 1296.33C926.533 1311.67 1030.93 1468.33 1040.93 1485C1053.07 1505.27 1057.33 1514.33 1061.6 1527.93C1066.8 1544.73 1066.67 1568.07 1061.2 1599.67C1057.2 1623.8 1056.67 1632.6 1058.93 1644.07C1060.53 1652.73 1063.33 1655.67 1071.6 1657.93C1076.67 1659.13 1078.93 1659.27 1082.4 1657.93C1087.87 1655.93 1094.93 1655.8 1096 1657.67C1097.33 1659.67 1105.47 1659.27 1107.33 1657C1108.67 1655.53 1109.47 1655.4 1110.8 1656.47C1112.67 1658.07 1120.93 1658.47 1123.2 1657.13C1124 1656.6 1125.73 1657 1127.2 1657.93C1129.33 1659.27 1130.8 1659.27 1134.13 1658.07C1137.2 1656.87 1139.07 1656.87 1140.93 1657.8C1145.33 1660.2 1150 1658.07 1152.27 1652.6C1153.87 1648.6 1154.13 1643.4 1153.73 1624.33C1153.2 1604.87 1152.13 1595.8 1147.6 1569.67C1144.53 1552.47 1141.2 1530.47 1140 1521C1138.93 1511.4 1137.07 1500.47 1135.87 1496.6C1134.8 1492.73 1133.6 1484.6 1133.33 1478.33C1132.53 1464.2 1128.27 1451 1118.67 1433C1112.27 1421 1108.27 1411.4 1091.07 1367.67C1085.47 1353.27 1066.67 1292.6 1057.33 1259C1037.87 1189 1009.87 1152.47 937.6 1103.13C920.666 1091.4 912.666 1081.67 902 1059.93C886 1027 883.066 1017.4 872.666 962.334C861.733 904.734 852.533 867.268 834 805.667C829.733 791.401 824.4 771.667 822.133 761.801C809.733 707.667 777.733 661.401 728.266 626.334C702.666 608.068 679.733 596.734 655.733 590.201C651.066 588.868 647.333 587.401 647.333 586.868C647.333 586.334 645.066 585.534 642.4 585.001C639.6 584.468 631.066 581.267 623.333 577.801C615.6 574.201 606.8 570.334 603.733 569.001C596.266 565.934 593.6 562.601 590 552.601C587.2 545.001 587.066 543.667 588.666 536.601C590.266 528.868 589.866 493.801 587.866 479.534C587.066 472.868 587.066 472.734 591.466 471.001C594 469.934 600.8 465.134 606.666 460.068C618 450.334 645.866 435.001 661.733 429.801C669.466 427.134 671.066 427.001 681.733 428.468C688.666 429.401 700.266 429.667 710.8 429.268L728.266 428.468L731.6 432.068C735.066 435.801 746 453.801 751.333 464.334C755.066 471.534 770.133 507.934 785.466 546.334C791.6 561.667 798.666 578.468 800.933 583.667C806.266 595.267 806.4 601.934 801.466 618.868C798.933 627.134 798 632.868 798.4 636.201C798.8 638.867 798.666 643.667 798.133 646.734C797.2 651.401 797.6 654.601 800.4 662.734C802.266 668.468 804 673.801 804.133 674.601C804.933 677.934 811.2 676.468 813.2 672.734L815.066 669.001L815.866 673.667C816.266 676.201 816.8 684.601 817.2 692.334C818 707.401 821.866 720.468 829.333 733.001C832.266 738.068 833.466 739.134 836.266 738.734C841.466 738.068 842.933 734.867 840.933 728.068C837.333 715.667 835.333 700.734 836.4 695.534L837.466 690.334L839.866 700.468C842.266 711.401 851.066 730.734 857.866 739.934C862.8 746.734 867.733 747.667 870.133 742.468C871.333 739.801 870.666 736.468 866.133 722.734C860.8 706.468 856.666 689.534 856.666 683.934C856.8 681.268 856.933 681.268 858.133 683.401C858.933 684.601 860.666 689.001 862 692.867C865.733 704.068 883.333 724.334 889.2 724.334C889.466 724.334 890.8 723.401 891.866 722.201C894.533 719.534 894.533 713.801 892 709.934C890 707.134 890 707.001 893.733 707.801C896.266 708.334 898 707.934 899.333 706.334C900.933 704.334 900.933 703.268 898.8 697.801C891.866 680.334 888.666 669.134 887.333 658.334C886.533 651.667 884.4 641.534 882.666 635.667C880.933 629.801 878.933 621.401 878.133 617.001C877.2 612.334 873.6 602.868 869.333 594.201L862 579.534L860 555.534C857.733 528.601 852.266 483.934 849.333 468.734C845.466 448.734 839.466 432.068 818.4 383.667C805.866 354.734 791.733 343.001 759.066 334.468C721.866 324.601 701.466 321.134 669.066 319.001C647.333 317.667 651.2 318.601 607.733 302.601C580.933 292.601 570.666 290.468 550 290.468C540.133 290.334 527.466 291.134 521.866 292.201L511.6 293.934L503.733 287.401C499.466 283.801 490.8 277.401 484.666 273.001C478.4 268.734 472.8 264.201 472.133 263.134C471.466 261.934 470.933 258.068 471.066 254.334C471.333 250.734 470.533 246.201 469.6 244.334C467.333 239.934 469.066 235.534 474 233.934C484.533 230.201 503.333 191.801 499.6 181.534C498.933 179.801 498.933 176.201 499.733 173.134C501.333 166.601 501.866 165.934 503.2 168.201C503.866 169.268 504.666 167.801 505.333 164.068C506.266 158.868 506.4 158.601 507.333 161.667C508.4 165.001 508.4 165.001 508.533 161.934C508.666 160.201 509.333 156.201 510.133 152.868C511.466 147.801 512 147.134 513.733 148.601C515.6 150.201 515.733 149.401 515.066 142.334L514.266 134.334L516.133 139.534C518.133 145.134 520.133 148.201 518.933 143.667C518.533 142.201 517.733 138.601 517.333 135.667C516.666 131.401 516.8 130.734 518 132.334C519.333 134.068 519.466 134.068 518.933 132.201C518.533 131.001 516.933 123.934 515.333 116.334C513.733 108.868 511.333 100.068 509.866 96.7343C508.4 93.4009 506.133 87.2676 504.8 83.1342C500.266 69.9342 495.733 60.3342 494.666 61.4009C494 61.9342 494 61.5342 494.533 60.6008C495.2 59.4009 494 56.8676 491.466 53.6676C489.2 50.8676 487.333 47.8009 487.333 47.0009C487.333 44.3342 480.4 31.6676 475.733 25.9342C468.533 17.0009 452.666 5.8009 443.2 2.86755C435.2 0.334229 427.333 -0.599121 434 1.8009C436.933 2.86755 436.933 2.86755 433.333 2.20093C427.066 1.00085 404.933 0.60083 395.066 1.53418ZM338.666 33.6676C338.266 34.3342 337.066 35.0009 336.266 35.0009C335.333 35.0009 335.466 34.4675 336.666 33.6676C339.2 32.0675 339.733 32.0675 338.666 33.6676ZM494.133 65.9342C495.6 68.7343 495.6 68.8676 493.6 67.1342C492.266 66.2009 491.333 64.8676 491.333 64.2009C491.333 62.2009 492.533 62.8676 494.133 65.9342ZM494.933 176.601C494.533 177.534 494.266 176.868 494.266 175.001C494.266 173.134 494.533 172.468 494.933 173.268C495.2 174.201 495.2 175.801 494.933 176.601Z" fill="black"/>
</g>
<g clip-path="url(#clip6_68_32)">
<path d="M395.066 1.53418C385.333 2.46753 381.466 4.20093 388.8 4.46753C392.133 4.60083 390.8 5.13416 384 6.46753C371.066 9.00085 370.4 9.8009 381.333 9.13416L390.666 8.46753L381.333 10.3342C372.4 12.2009 359.2 17.2676 358.266 19.2676C358 19.8009 354.666 21.1342 350.933 22.4675C347.066 23.6676 343.066 25.6676 342 26.8676C340.933 28.2009 337.066 31.1342 333.333 33.4009C329.733 35.6676 323.066 41.2676 318.666 45.8009L310.666 54.0675L318.533 47.8009C326.133 41.8009 335.333 36.2009 337.6 36.3342C338.133 36.4675 336.266 37.6676 333.333 39.2676C327.066 42.6008 314.266 55.2676 310.8 61.6676C308.4 66.0675 308.666 66.0675 314.266 59.9342C320.533 53.4009 324.933 51.0009 319.2 57.2676C312.666 64.4675 312.266 66.2009 318.4 60.3342C327.066 52.2009 326.266 54.4675 316.533 65.2676C312.133 70.2009 307.866 75.5342 307.066 77.0009L305.6 79.6676L308.666 77.0009L311.866 74.3342L308.8 79.2676C305.6 84.6008 306 88.3342 309.466 85.5342C312 83.5342 311.866 83.9342 307.866 94.4675C305.466 100.868 304.666 104.868 305.333 108.068C306 111.801 306.533 112.201 308.133 111.001C310.266 109.134 310.533 109.934 310 118.201C309.866 122.068 310.133 123.001 311.466 122.334C312.666 121.534 312.933 121.934 312.266 123.534C311.733 124.868 311.333 126.468 311.333 127.134C311.333 127.667 310.533 127.934 309.6 127.534C308.666 127.268 306.266 128.334 304.4 130.068C300.666 133.534 298.4 141.667 297.066 156.868C295.866 171.801 301.2 189.001 307.466 190.601C308.8 191.001 310 192.468 310 193.801C310 196.068 305.2 201.667 303.2 201.667C301.6 201.667 296.666 212.201 296.666 215.401C296.8 221.801 305.066 226.334 311.066 223.134C313.466 221.934 314.133 222.201 315.733 225.401C316.933 227.934 317.2 230.201 316.4 232.201C315.733 234.068 316.133 236.868 317.466 240.068C319.6 245.134 325.066 270.201 326.666 282.601C327.466 288.734 327.2 289.801 325.066 290.468C312.933 294.734 302 301.401 293.333 310.201C268.666 335.268 249.6 358.868 242 373.667C231.866 393.667 228.266 409.667 225.466 446.468C223.2 475.534 219.866 491.934 212.933 507.801C205.466 525.134 196.8 554.334 194.533 570.734L192.266 586.734L195.6 591.134C197.466 593.667 200.666 599.001 202.8 603.001C208 612.734 224.666 629.267 234.666 634.601C247.066 641.134 257.866 643.401 271.733 642.601C283.6 641.801 295.333 637.934 301.066 632.601C304.4 629.667 304.933 630.868 309.333 648.201C313.466 664.867 322 685.268 331.333 701.268C336 709.134 338.8 715.801 340.133 722.068L342 731.134L336.266 738.734C299.466 786.867 278.666 844.867 266 935.001C264.4 945.667 262.4 957.667 261.333 961.667C260.4 965.667 258.8 972.867 258 977.667C255.466 991.934 251.6 998.467 236.266 1014.73C221.2 1030.6 211.6 1043.53 201.466 1061.13C192 1077.8 164.533 1136.07 156 1157.67C148.4 1177.27 137.066 1202.33 124 1229C115.466 1246.33 100.533 1292.73 96.6664 1314.07C93.8664 1329.67 89.4664 1345 87.1998 1347.93C86.3998 1348.87 84.3998 1349.67 82.7998 1349.67C79.0664 1349.67 70.7998 1354.2 63.7331 1360.07C56.2664 1366.07 56.1331 1369.93 63.0664 1376.47C69.8664 1383 73.3331 1384.73 80.5331 1384.47C83.8664 1384.33 87.8664 1384.2 89.3331 1384.2C90.7998 1384.2 94.7998 1384.87 98.2664 1385.67C112.4 1389.13 123.333 1381.27 131.2 1361.67C142.933 1332.73 148.133 1325.4 168.666 1309C187.466 1293.8 194.133 1285.13 195.066 1274.6C195.6 1267.13 193.6 1261.13 188.533 1255.53C186 1252.87 186.133 1252.73 198.4 1240.87C213.6 1226.2 248.933 1194.73 271.866 1175.53C309.066 1144.6 320 1129 332 1090.47L336.933 1074.6L349.866 1061C356.933 1053.53 367.2 1040.87 372.666 1032.87C391.6 1004.87 399.066 996.467 459.6 935.667C493.066 901.934 522.933 871.268 525.866 867.534L531.2 860.734L542.266 859.934C561.066 858.334 570.133 854.334 574.8 845.534C576 843.134 577.733 841.667 578.933 841.934C580.133 842.201 584.4 849.801 589.2 860.334C593.733 870.201 600.933 884.467 605.2 892.068C616.933 913.001 652.933 966.334 671.2 990.068C680.133 1001.67 694.4 1022.33 702.933 1035.93C718.266 1060.47 725.066 1070.2 753.466 1108.87C768.666 1129.67 785.6 1146.87 810.666 1167.13C836.533 1188.07 857.333 1212.33 888.666 1258.33C899.2 1273.67 911.066 1290.87 915.2 1296.33C926.533 1311.67 1030.93 1468.33 1040.93 1485C1053.07 1505.27 1057.33 1514.33 1061.6 1527.93C1066.8 1544.73 1066.67 1568.07 1061.2 1599.67C1057.2 1623.8 1056.67 1632.6 1058.93 1644.07C1060.53 1652.73 1063.33 1655.67 1071.6 1657.93C1076.67 1659.13 1078.93 1659.27 1082.4 1657.93C1087.87 1655.93 1094.93 1655.8 1096 1657.67C1097.33 1659.67 1105.47 1659.27 1107.33 1657C1108.67 1655.53 1109.47 1655.4 1110.8 1656.47C1112.67 1658.07 1120.93 1658.47 1123.2 1657.13C1124 1656.6 1125.73 1657 1127.2 1657.93C1129.33 1659.27 1130.8 1659.27 1134.13 1658.07C1137.2 1656.87 1139.07 1656.87 1140.93 1657.8C1145.33 1660.2 1150 1658.07 1152.27 1652.6C1153.87 1648.6 1154.13 1643.4 1153.73 1624.33C1153.2 1604.87 1152.13 1595.8 1147.6 1569.67C1144.53 1552.47 1141.2 1530.47 1140 1521C1138.93 1511.4 1137.07 1500.47 1135.87 1496.6C1134.8 1492.73 1133.6 1484.6 1133.33 1478.33C1132.53 1464.2 1128.27 1451 1118.67 1433C1112.27 1421 1108.27 1411.4 1091.07 1367.67C1085.47 1353.27 1066.67 1292.6 1057.33 1259C1037.87 1189 1009.87 1152.47 937.6 1103.13C920.666 1091.4 912.666 1081.67 902 1059.93C886 1027 883.066 1017.4 872.666 962.334C861.733 904.734 852.533 867.268 834 805.667C829.733 791.401 824.4 771.667 822.133 761.801C809.733 707.667 777.733 661.401 728.266 626.334C702.666 608.068 679.733 596.734 655.733 590.201C651.066 588.868 647.333 587.401 647.333 586.868C647.333 586.334 645.066 585.534 642.4 585.001C639.6 584.468 631.066 581.267 623.333 577.801C615.6 574.201 606.8 570.334 603.733 569.001C596.266 565.934 593.6 562.601 590 552.601C587.2 545.001 587.066 543.667 588.666 536.601C590.266 528.868 589.866 493.801 587.866 479.534C587.066 472.868 587.066 472.734 591.466 471.001C594 469.934 600.8 465.134 606.666 460.068C618 450.334 645.866 435.001 661.733 429.801C669.466 427.134 671.066 427.001 681.733 428.468C688.666 429.401 700.266 429.667 710.8 429.268L728.266 428.468L731.6 432.068C735.066 435.801 746 453.801 751.333 464.334C755.066 471.534 770.133 507.934 785.466 546.334C791.6 561.667 798.666 578.468 800.933 583.667C806.266 595.267 806.4 601.934 801.466 618.868C798.933 627.134 798 632.868 798.4 636.201C798.8 638.867 798.666 643.667 798.133 646.734C797.2 651.401 797.6 654.601 800.4 662.734C802.266 668.468 804 673.801 804.133 674.601C804.933 677.934 811.2 676.468 813.2 672.734L815.066 669.001L815.866 673.667C816.266 676.201 816.8 684.601 817.2 692.334C818 707.401 821.866 720.468 829.333 733.001C832.266 738.068 833.466 739.134 836.266 738.734C841.466 738.068 842.933 734.867 840.933 728.068C837.333 715.667 835.333 700.734 836.4 695.534L837.466 690.334L839.866 700.468C842.266 711.401 851.066 730.734 857.866 739.934C862.8 746.734 867.733 747.667 870.133 742.468C871.333 739.801 870.666 736.468 866.133 722.734C860.8 706.468 856.666 689.534 856.666 683.934C856.8 681.268 856.933 681.268 858.133 683.401C858.933 684.601 860.666 689.001 862 692.867C865.733 704.068 883.333 724.334 889.2 724.334C889.466 724.334 890.8 723.401 891.866 722.201C894.533 719.534 894.533 713.801 892 709.934C890 707.134 890 707.001 893.733 707.801C896.266 708.334 898 707.934 899.333 706.334C900.933 704.334 900.933 703.268 898.8 697.801C891.866 680.334 888.666 669.134 887.333 658.334C886.533 651.667 884.4 641.534 882.666 635.667C880.933 629.801 878.933 621.401 878.133 617.001C877.2 612.334 873.6 602.868 869.333 594.201L862 579.534L860 555.534C857.733 528.601 852.266 483.934 849.333 468.734C845.466 448.734 839.466 432.068 818.4 383.667C805.866 354.734 791.733 343.001 759.066 334.468C721.866 324.601 701.466 321.134 669.066 319.001C647.333 317.667 651.2 318.601 607.733 302.601C580.933 292.601 570.666 290.468 550 290.468C540.133 290.334 527.466 291.134 521.866 292.201L511.6 293.934L503.733 287.401C499.466 283.801 490.8 277.401 484.666 273.001C478.4 268.734 472.8 264.201 472.133 263.134C471.466 261.934 470.933 258.068 471.066 254.334C471.333 250.734 470.533 246.201 469.6 244.334C467.333 239.934 469.066 235.534 474 233.934C484.533 230.201 503.333 191.801 499.6 181.534C498.933 179.801 498.933 176.201 499.733 173.134C501.333 166.601 501.866 165.934 503.2 168.201C503.866 169.268 504.666 167.801 505.333 164.068C506.266 158.868 506.4 158.601 507.333 161.667C508.4 165.001 508.4 165.001 508.533 161.934C508.666 160.201 509.333 156.201 510.133 152.868C511.466 147.801 512 147.134 513.733 148.601C515.6 150.201 515.733 149.401 515.066 142.334L514.266 134.334L516.133 139.534C518.133 145.134 520.133 148.201 518.933 143.667C518.533 142.201 517.733 138.601 517.333 135.667C516.666 131.401 516.8 130.734 518 132.334C519.333 134.068 519.466 134.068 518.933 132.201C518.533 131.001 516.933 123.934 515.333 116.334C513.733 108.868 511.333 100.068 509.866 96.7343C508.4 93.4009 506.133 87.2676 504.8 83.1342C500.266 69.9342 495.733 60.3342 494.666 61.4009C494 61.9342 494 61.5342 494.533 60.6008C495.2 59.4009 494 56.8676 491.466 53.6676C489.2 50.8676 487.333 47.8009 487.333 47.0009C487.333 44.3342 480.4 31.6676 475.733 25.9342C468.533 17.0009 452.666 5.8009 443.2 2.86755C435.2 0.334229 427.333 -0.599121 434 1.8009C436.933 2.86755 436.933 2.86755 433.333 2.20093C427.066 1.00085 404.933 0.60083 395.066 1.53418ZM338.666 33.6676C338.266 34.3342 337.066 35.0009 336.266 35.0009C335.333 35.0009 335.466 34.4675 336.666 33.6676C339.2 32.0675 339.733 32.0675 338.666 33.6676ZM494.133 65.9342C495.6 68.7343 495.6 68.8676 493.6 67.1342C492.266 66.2009 491.333 64.8676 491.333 64.2009C491.333 62.2009 492.533 62.8676 494.133 65.9342ZM494.933 176.601C494.533 177.534 494.266 176.868 494.266 175.001C494.266 173.134 494.533 172.468 494.933 173.268C495.2 174.201 495.2 175.801 494.933 176.601Z" fill="black"/>
</g>
<g clip-path="url(#clip7_68_32)">
<path d="M395.066 1.53418C385.333 2.46753 381.466 4.20093 388.8 4.46753C392.133 4.60083 390.8 5.13416 384 6.46753C371.066 9.00085 370.4 9.8009 381.333 9.13416L390.666 8.46753L381.333 10.3342C372.4 12.2009 359.2 17.2676 358.266 19.2676C358 19.8009 354.666 21.1342 350.933 22.4675C347.066 23.6676 343.066 25.6676 342 26.8676C340.933 28.2009 337.066 31.1342 333.333 33.4009C329.733 35.6676 323.066 41.2676 318.666 45.8009L310.666 54.0675L318.533 47.8009C326.133 41.8009 335.333 36.2009 337.6 36.3342C338.133 36.4675 336.266 37.6676 333.333 39.2676C327.066 42.6008 314.266 55.2676 310.8 61.6676C308.4 66.0675 308.666 66.0675 314.266 59.9342C320.533 53.4009 324.933 51.0009 319.2 57.2676C312.666 64.4675 312.266 66.2009 318.4 60.3342C327.066 52.2009 326.266 54.4675 316.533 65.2676C312.133 70.2009 307.866 75.5342 307.066 77.0009L305.6 79.6676L308.666 77.0009L311.866 74.3342L308.8 79.2676C305.6 84.6008 306 88.3342 309.466 85.5342C312 83.5342 311.866 83.9342 307.866 94.4675C305.466 100.868 304.666 104.868 305.333 108.068C306 111.801 306.533 112.201 308.133 111.001C310.266 109.134 310.533 109.934 310 118.201C309.866 122.068 310.133 123.001 311.466 122.334C312.666 121.534 312.933 121.934 312.266 123.534C311.733 124.868 311.333 126.468 311.333 127.134C311.333 127.667 310.533 127.934 309.6 127.534C308.666 127.268 306.266 128.334 304.4 130.068C300.666 133.534 298.4 141.667 297.066 156.868C295.866 171.801 301.2 189.001 307.466 190.601C308.8 191.001 310 192.468 310 193.801C310 196.068 305.2 201.667 303.2 201.667C301.6 201.667 296.666 212.201 296.666 215.401C296.8 221.801 305.066 226.334 311.066 223.134C313.466 221.934 314.133 222.201 315.733 225.401C316.933 227.934 317.2 230.201 316.4 232.201C315.733 234.068 316.133 236.868 317.466 240.068C319.6 245.134 325.066 270.201 326.666 282.601C327.466 288.734 327.2 289.801 325.066 290.468C312.933 294.734 302 301.401 293.333 310.201C268.666 335.268 249.6 358.868 242 373.667C231.866 393.667 228.266 409.667 225.466 446.468C223.2 475.534 219.866 491.934 212.933 507.801C205.466 525.134 196.8 554.334 194.533 570.734L192.266 586.734L195.6 591.134C197.466 593.667 200.666 599.001 202.8 603.001C208 612.734 224.666 629.267 234.666 634.601C247.066 641.134 257.866 643.401 271.733 642.601C283.6 641.801 295.333 637.934 301.066 632.601C304.4 629.667 304.933 630.868 309.333 648.201C313.466 664.867 322 685.268 331.333 701.268C336 709.134 338.8 715.801 340.133 722.068L342 731.134L336.266 738.734C299.466 786.867 278.666 844.867 266 935.001C264.4 945.667 262.4 957.667 261.333 961.667C260.4 965.667 258.8 972.867 258 977.667C255.466 991.934 251.6 998.467 236.266 1014.73C221.2 1030.6 211.6 1043.53 201.466 1061.13C192 1077.8 164.533 1136.07 156 1157.67C148.4 1177.27 137.066 1202.33 124 1229C115.466 1246.33 100.533 1292.73 96.6664 1314.07C93.8664 1329.67 89.4664 1345 87.1998 1347.93C86.3998 1348.87 84.3998 1349.67 82.7998 1349.67C79.0664 1349.67 70.7998 1354.2 63.7331 1360.07C56.2664 1366.07 56.1331 1369.93 63.0664 1376.47C69.8664 1383 73.3331 1384.73 80.5331 1384.47C83.8664 1384.33 87.8664 1384.2 89.3331 1384.2C90.7998 1384.2 94.7998 1384.87 98.2664 1385.67C112.4 1389.13 123.333 1381.27 131.2 1361.67C142.933 1332.73 148.133 1325.4 168.666 1309C187.466 1293.8 194.133 1285.13 195.066 1274.6C195.6 1267.13 193.6 1261.13 188.533 1255.53C186 1252.87 186.133 1252.73 198.4 1240.87C213.6 1226.2 248.933 1194.73 271.866 1175.53C309.066 1144.6 320 1129 332 1090.47L336.933 1074.6L349.866 1061C356.933 1053.53 367.2 1040.87 372.666 1032.87C391.6 1004.87 399.066 996.467 459.6 935.667C493.066 901.934 522.933 871.268 525.866 867.534L531.2 860.734L542.266 859.934C561.066 858.334 570.133 854.334 574.8 845.534C576 843.134 577.733 841.667 578.933 841.934C580.133 842.201 584.4 849.801 589.2 860.334C593.733 870.201 600.933 884.467 605.2 892.068C616.933 913.001 652.933 966.334 671.2 990.068C680.133 1001.67 694.4 1022.33 702.933 1035.93C718.266 1060.47 725.066 1070.2 753.466 1108.87C768.666 1129.67 785.6 1146.87 810.666 1167.13C836.533 1188.07 857.333 1212.33 888.666 1258.33C899.2 1273.67 911.066 1290.87 915.2 1296.33C926.533 1311.67 1030.93 1468.33 1040.93 1485C1053.07 1505.27 1057.33 1514.33 1061.6 1527.93C1066.8 1544.73 1066.67 1568.07 1061.2 1599.67C1057.2 1623.8 1056.67 1632.6 1058.93 1644.07C1060.53 1652.73 1063.33 1655.67 1071.6 1657.93C1076.67 1659.13 1078.93 1659.27 1082.4 1657.93C1087.87 1655.93 1094.93 1655.8 1096 1657.67C1097.33 1659.67 1105.47 1659.27 1107.33 1657C1108.67 1655.53 1109.47 1655.4 1110.8 1656.47C1112.67 1658.07 1120.93 1658.47 1123.2 1657.13C1124 1656.6 1125.73 1657 1127.2 1657.93C1129.33 1659.27 1130.8 1659.27 1134.13 1658.07C1137.2 1656.87 1139.07 1656.87 1140.93 1657.8C1145.33 1660.2 1150 1658.07 1152.27 1652.6C1153.87 1648.6 1154.13 1643.4 1153.73 1624.33C1153.2 1604.87 1152.13 1595.8 1147.6 1569.67C1144.53 1552.47 1141.2 1530.47 1140 1521C1138.93 1511.4 1137.07 1500.47 1135.87 1496.6C1134.8 1492.73 1133.6 1484.6 1133.33 1478.33C1132.53 1464.2 1128.27 1451 1118.67 1433C1112.27 1421 1108.27 1411.4 1091.07 1367.67C1085.47 1353.27 1066.67 1292.6 1057.33 1259C1037.87 1189 1009.87 1152.47 937.6 1103.13C920.666 1091.4 912.666 1081.67 902 1059.93C886 1027 883.066 1017.4 872.666 962.334C861.733 904.734 852.533 867.268 834 805.667C829.733 791.401 824.4 771.667 822.133 761.801C809.733 707.667 777.733 661.401 728.266 626.334C702.666 608.068 679.733 596.734 655.733 590.201C651.066 588.868 647.333 587.401 647.333 586.868C647.333 586.334 645.066 585.534 642.4 585.001C639.6 584.468 631.066 581.267 623.333 577.801C615.6 574.201 606.8 570.334 603.733 569.001C596.266 565.934 593.6 562.601 590 552.601C587.2 545.001 587.066 543.667 588.666 536.601C590.266 528.868 589.866 493.801 587.866 479.534C587.066 472.868 587.066 472.734 591.466 471.001C594 469.934 600.8 465.134 606.666 460.068C618 450.334 645.866 435.001 661.733 429.801C669.466 427.134 671.066 427.001 681.733 428.468C688.666 429.401 700.266 429.667 710.8 429.268L728.266 428.468L731.6 432.068C735.066 435.801 746 453.801 751.333 464.334C755.066 471.534 770.133 507.934 785.466 546.334C791.6 561.667 798.666 578.468 800.933 583.667C806.266 595.267 806.4 601.934 801.466 618.868C798.933 627.134 798 632.868 798.4 636.201C798.8 638.867 798.666 643.667 798.133 646.734C797.2 651.401 797.6 654.601 800.4 662.734C802.266 668.468 804 673.801 804.133 674.601C804.933 677.934 811.2 676.468 813.2 672.734L815.066 669.001L815.866 673.667C816.266 676.201 816.8 684.601 817.2 692.334C818 707.401 821.866 720.468 829.333 733.001C832.266 738.068 833.466 739.134 836.266 738.734C841.466 738.068 842.933 734.867 840.933 728.068C837.333 715.667 835.333 700.734 836.4 695.534L837.466 690.334L839.866 700.468C842.266 711.401 851.066 730.734 857.866 739.934C862.8 746.734 867.733 747.667 870.133 742.468C871.333 739.801 870.666 736.468 866.133 722.734C860.8 706.468 856.666 689.534 856.666 683.934C856.8 681.268 856.933 681.268 858.133 683.401C858.933 684.601 860.666 689.001 862 692.867C865.733 704.068 883.333 724.334 889.2 724.334C889.466 724.334 890.8 723.401 891.866 722.201C894.533 719.534 894.533 713.801 892 709.934C890 707.134 890 707.001 893.733 707.801C896.266 708.334 898 707.934 899.333 706.334C900.933 704.334 900.933 703.268 898.8 697.801C891.866 680.334 888.666 669.134 887.333 658.334C886.533 651.667 884.4 641.534 882.666 635.667C880.933 629.801 878.933 621.401 878.133 617.001C877.2 612.334 873.6 602.868 869.333 594.201L862 579.534L860 555.534C857.733 528.601 852.266 483.934 849.333 468.734C845.466 448.734 839.466 432.068 818.4 383.667C805.866 354.734 791.733 343.001 759.066 334.468C721.866 324.601 701.466 321.134 669.066 319.001C647.333 317.667 651.2 318.601 607.733 302.601C580.933 292.601 570.666 290.468 550 290.468C540.133 290.334 527.466 291.134 521.866 292.201L511.6 293.934L503.733 287.401C499.466 283.801 490.8 277.401 484.666 273.001C478.4 268.734 472.8 264.201 472.133 263.134C471.466 261.934 470.933 258.068 471.066 254.334C471.333 250.734 470.533 246.201 469.6 244.334C467.333 239.934 469.066 235.534 474 233.934C484.533 230.201 503.333 191.801 499.6 181.534C498.933 179.801 498.933 176.201 499.733 173.134C501.333 166.601 501.866 165.934 503.2 168.201C503.866 169.268 504.666 167.801 505.333 164.068C506.266 158.868 506.4 158.601 507.333 161.667C508.4 165.001 508.4 165.001 508.533 161.934C508.666 160.201 509.333 156.201 510.133 152.868C511.466 147.801 512 147.134 513.733 148.601C515.6 150.201 515.733 149.401 515.066 142.334L514.266 134.334L516.133 139.534C518.133 145.134 520.133 148.201 518.933 143.667C518.533 142.201 517.733 138.601 517.333 135.667C516.666 131.401 516.8 130.734 518 132.334C519.333 134.068 519.466 134.068 518.933 132.201C518.533 131.001 516.933 123.934 515.333 116.334C513.733 108.868 511.333 100.068 509.866 96.7343C508.4 93.4009 506.133 87.2676 504.8 83.1342C500.266 69.9342 495.733 60.3342 494.666 61.4009C494 61.9342 494 61.5342 494.533 60.6008C495.2 59.4009 494 56.8676 491.466 53.6676C489.2 50.8676 487.333 47.8009 487.333 47.0009C487.333 44.3342 480.4 31.6676 475.733 25.9342C468.533 17.0009 452.666 5.8009 443.2 2.86755C435.2 0.334229 427.333 -0.599121 434 1.8009C436.933 2.86755 436.933 2.86755 433.333 2.20093C427.066 1.00085 404.933 0.60083 395.066 1.53418ZM338.666 33.6676C338.266 34.3342 337.066 35.0009 336.266 35.0009C335.333 35.0009 335.466 34.4675 336.666 33.6676C339.2 32.0675 339.733 32.0675 338.666 33.6676ZM494.133 65.9342C495.6 68.7343 495.6 68.8676 493.6 67.1342C492.266 66.2009 491.333 64.8676 491.333 64.2009C491.333 62.2009 492.533 62.8676 494.133 65.9342ZM494.933 176.601C494.533 177.534 494.266 176.868 494.266 175.001C494.266 173.134 494.533 172.468 494.933 173.268C495.2 174.201 495.2 175.801 494.933 176.601Z" fill="black"/>
</g>
<g clip-path="url(#clip8_68_32)">
<path d="M395.066 1.53418C385.333 2.46753 381.466 4.20093 388.8 4.46753C392.133 4.60083 390.8 5.13416 384 6.46753C371.066 9.00085 370.4 9.8009 381.333 9.13416L390.666 8.46753L381.333 10.3342C372.4 12.2009 359.2 17.2676 358.266 19.2676C358 19.8009 354.666 21.1342 350.933 22.4675C347.066 23.6676 343.066 25.6676 342 26.8676C340.933 28.2009 337.066 31.1342 333.333 33.4009C329.733 35.6676 323.066 41.2676 318.666 45.8009L310.666 54.0675L318.533 47.8009C326.133 41.8009 335.333 36.2009 337.6 36.3342C338.133 36.4675 336.266 37.6676 333.333 39.2676C327.066 42.6008 314.266 55.2676 310.8 61.6676C308.4 66.0675 308.666 66.0675 314.266 59.9342C320.533 53.4009 324.933 51.0009 319.2 57.2676C312.666 64.4675 312.266 66.2009 318.4 60.3342C327.066 52.2009 326.266 54.4675 316.533 65.2676C312.133 70.2009 307.866 75.5342 307.066 77.0009L305.6 79.6676L308.666 77.0009L311.866 74.3342L308.8 79.2676C305.6 84.6008 306 88.3342 309.466 85.5342C312 83.5342 311.866 83.9342 307.866 94.4675C305.466 100.868 304.666 104.868 305.333 108.068C306 111.801 306.533 112.201 308.133 111.001C310.266 109.134 310.533 109.934 310 118.201C309.866 122.068 310.133 123.001 311.466 122.334C312.666 121.534 312.933 121.934 312.266 123.534C311.733 124.868 311.333 126.468 311.333 127.134C311.333 127.667 310.533 127.934 309.6 127.534C308.666 127.268 306.266 128.334 304.4 130.068C300.666 133.534 298.4 141.667 297.066 156.868C295.866 171.801 301.2 189.001 307.466 190.601C308.8 191.001 310 192.468 310 193.801C310 196.068 305.2 201.667 303.2 201.667C301.6 201.667 296.666 212.201 296.666 215.401C296.8 221.801 305.066 226.334 311.066 223.134C313.466 221.934 314.133 222.201 315.733 225.401C316.933 227.934 317.2 230.201 316.4 232.201C315.733 234.068 316.133 236.868 317.466 240.068C319.6 245.134 325.066 270.201 326.666 282.601C327.466 288.734 327.2 289.801 325.066 290.468C312.933 294.734 302 301.401 293.333 310.201C268.666 335.268 249.6 358.868 242 373.667C231.866 393.667 228.266 409.667 225.466 446.468C223.2 475.534 219.866 491.934 212.933 507.801C205.466 525.134 196.8 554.334 194.533 570.734L192.266 586.734L195.6 591.134C197.466 593.667 200.666 599.001 202.8 603.001C208 612.734 224.666 629.267 234.666 634.601C247.066 641.134 257.866 643.401 271.733 642.601C283.6 641.801 295.333 637.934 301.066 632.601C304.4 629.667 304.933 630.868 309.333 648.201C313.466 664.867 322 685.268 331.333 701.268C336 709.134 338.8 715.801 340.133 722.068L342 731.134L336.266 738.734C299.466 786.867 278.666 844.867 266 935.001C264.4 945.667 262.4 957.667 261.333 961.667C260.4 965.667 258.8 972.867 258 977.667C255.466 991.934 251.6 998.467 236.266 1014.73C221.2 1030.6 211.6 1043.53 201.466 1061.13C192 1077.8 164.533 1136.07 156 1157.67C148.4 1177.27 137.066 1202.33 124 1229C115.466 1246.33 100.533 1292.73 96.6664 1314.07C93.8664 1329.67 89.4664 1345 87.1998 1347.93C86.3998 1348.87 84.3998 1349.67 82.7998 1349.67C79.0664 1349.67 70.7998 1354.2 63.7331 1360.07C56.2664 1366.07 56.1331 1369.93 63.0664 1376.47C69.8664 1383 73.3331 1384.73 80.5331 1384.47C83.8664 1384.33 87.8664 1384.2 89.3331 1384.2C90.7998 1384.2 94.7998 1384.87 98.2664 1385.67C112.4 1389.13 123.333 1381.27 131.2 1361.67C142.933 1332.73 148.133 1325.4 168.666 1309C187.466 1293.8 194.133 1285.13 195.066 1274.6C195.6 1267.13 193.6 1261.13 188.533 1255.53C186 1252.87 186.133 1252.73 198.4 1240.87C213.6 1226.2 248.933 1194.73 271.866 1175.53C309.066 1144.6 320 1129 332 1090.47L336.933 1074.6L349.866 1061C356.933 1053.53 367.2 1040.87 372.666 1032.87C391.6 1004.87 399.066 996.467 459.6 935.667C493.066 901.934 522.933 871.268 525.866 867.534L531.2 860.734L542.266 859.934C561.066 858.334 570.133 854.334 574.8 845.534C576 843.134 577.733 841.667 578.933 841.934C580.133 842.201 584.4 849.801 589.2 860.334C593.733 870.201 600.933 884.467 605.2 892.068C616.933 913.001 652.933 966.334 671.2 990.068C680.133 1001.67 694.4 1022.33 702.933 1035.93C718.266 1060.47 725.066 1070.2 753.466 1108.87C768.666 1129.67 785.6 1146.87 810.666 1167.13C836.533 1188.07 857.333 1212.33 888.666 1258.33C899.2 1273.67 911.066 1290.87 915.2 1296.33C926.533 1311.67 1030.93 1468.33 1040.93 1485C1053.07 1505.27 1057.33 1514.33 1061.6 1527.93C1066.8 1544.73 1066.67 1568.07 1061.2 1599.67C1057.2 1623.8 1056.67 1632.6 1058.93 1644.07C1060.53 1652.73 1063.33 1655.67 1071.6 1657.93C1076.67 1659.13 1078.93 1659.27 1082.4 1657.93C1087.87 1655.93 1094.93 1655.8 1096 1657.67C1097.33 1659.67 1105.47 1659.27 1107.33 1657C1108.67 1655.53 1109.47 1655.4 1110.8 1656.47C1112.67 1658.07 1120.93 1658.47 1123.2 1657.13C1124 1656.6 1125.73 1657 1127.2 1657.93C1129.33 1659.27 1130.8 1659.27 1134.13 1658.07C1137.2 1656.87 1139.07 1656.87 1140.93 1657.8C1145.33 1660.2 1150 1658.07 1152.27 1652.6C1153.87 1648.6 1154.13 1643.4 1153.73 1624.33C1153.2 1604.87 1152.13 1595.8 1147.6 1569.67C1144.53 1552.47 1141.2 1530.47 1140 1521C1138.93 1511.4 1137.07 1500.47 1135.87 1496.6C1134.8 1492.73 1133.6 1484.6 1133.33 1478.33C1132.53 1464.2 1128.27 1451 1118.67 1433C1112.27 1421 1108.27 1411.4 1091.07 1367.67C1085.47 1353.27 1066.67 1292.6 1057.33 1259C1037.87 1189 1009.87 1152.47 937.6 1103.13C920.666 1091.4 912.666 1081.67 902 1059.93C886 1027 883.066 1017.4 872.666 962.334C861.733 904.734 852.533 867.268 834 805.667C829.733 791.401 824.4 771.667 822.133 761.801C809.733 707.667 777.733 661.401 728.266 626.334C702.666 608.068 679.733 596.734 655.733 590.201C651.066 588.868 647.333 587.401 647.333 586.868C647.333 586.334 645.066 585.534 642.4 585.001C639.6 584.468 631.066 581.267 623.333 577.801C615.6 574.201 606.8 570.334 603.733 569.001C596.266 565.934 593.6 562.601 590 552.601C587.2 545.001 587.066 543.667 588.666 536.601C590.266 528.868 589.866 493.801 587.866 479.534C587.066 472.868 587.066 472.734 591.466 471.001C594 469.934 600.8 465.134 606.666 460.068C618 450.334 645.866 435.001 661.733 429.801C669.466 427.134 671.066 427.001 681.733 428.468C688.666 429.401 700.266 429.667 710.8 429.268L728.266 428.468L731.6 432.068C735.066 435.801 746 453.801 751.333 464.334C755.066 471.534 770.133 507.934 785.466 546.334C791.6 561.667 798.666 578.468 800.933 583.667C806.266 595.267 806.4 601.934 801.466 618.868C798.933 627.134 798 632.868 798.4 636.201C798.8 638.867 798.666 643.667 798.133 646.734C797.2 651.401 797.6 654.601 800.4 662.734C802.266 668.468 804 673.801 804.133 674.601C804.933 677.934 811.2 676.468 813.2 672.734L815.066 669.001L815.866 673.667C816.266 676.201 816.8 684.601 817.2 692.334C818 707.401 821.866 720.468 829.333 733.001C832.266 738.068 833.466 739.134 836.266 738.734C841.466 738.068 842.933 734.867 840.933 728.068C837.333 715.667 835.333 700.734 836.4 695.534L837.466 690.334L839.866 700.468C842.266 711.401 851.066 730.734 857.866 739.934C862.8 746.734 867.733 747.667 870.133 742.468C871.333 739.801 870.666 736.468 866.133 722.734C860.8 706.468 856.666 689.534 856.666 683.934C856.8 681.268 856.933 681.268 858.133 683.401C858.933 684.601 860.666 689.001 862 692.867C865.733 704.068 883.333 724.334 889.2 724.334C889.466 724.334 890.8 723.401 891.866 722.201C894.533 719.534 894.533 713.801 892 709.934C890 707.134 890 707.001 893.733 707.801C896.266 708.334 898 707.934 899.333 706.334C900.933 704.334 900.933 703.268 898.8 697.801C891.866 680.334 888.666 669.134 887.333 658.334C886.533 651.667 884.4 641.534 882.666 635.667C880.933 629.801 878.933 621.401 878.133 617.001C877.2 612.334 873.6 602.868 869.333 594.201L862 579.534L860 555.534C857.733 528.601 852.266 483.934 849.333 468.734C845.466 448.734 839.466 432.068 818.4 383.667C805.866 354.734 791.733 343.001 759.066 334.468C721.866 324.601 701.466 321.134 669.066 319.001C647.333 317.667 651.2 318.601 607.733 302.601C580.933 292.601 570.666 290.468 550 290.468C540.133 290.334 527.466 291.134 521.866 292.201L511.6 293.934L503.733 287.401C499.466 283.801 490.8 277.401 484.666 273.001C478.4 268.734 472.8 264.201 472.133 263.134C471.466 261.934 470.933 258.068 471.066 254.334C471.333 250.734 470.533 246.201 469.6 244.334C467.333 239.934 469.066 235.534 474 233.934C484.533 230.201 503.333 191.801 499.6 181.534C498.933 179.801 498.933 176.201 499.733 173.134C501.333 166.601 501.866 165.934 503.2 168.201C503.866 169.268 504.666 167.801 505.333 164.068C506.266 158.868 506.4 158.601 507.333 161.667C508.4 165.001 508.4 165.001 508.533 161.934C508.666 160.201 509.333 156.201 510.133 152.868C511.466 147.801 512 147.134 513.733 148.601C515.6 150.201 515.733 149.401 515.066 142.334L514.266 134.334L516.133 139.534C518.133 145.134 520.133 148.201 518.933 143.667C518.533 142.201 517.733 138.601 517.333 135.667C516.666 131.401 516.8 130.734 518 132.334C519.333 134.068 519.466 134.068 518.933 132.201C518.533 131.001 516.933 123.934 515.333 116.334C513.733 108.868 511.333 100.068 509.866 96.7343C508.4 93.4009 506.133 87.2676 504.8 83.1342C500.266 69.9342 495.733 60.3342 494.666 61.4009C494 61.9342 494 61.5342 494.533 60.6008C495.2 59.4009 494 56.8676 491.466 53.6676C489.2 50.8676 487.333 47.8009 487.333 47.0009C487.333 44.3342 480.4 31.6676 475.733 25.9342C468.533 17.0009 452.666 5.8009 443.2 2.86755C435.2 0.334229 427.333 -0.599121 434 1.8009C436.933 2.86755 436.933 2.86755 433.333 2.20093C427.066 1.00085 404.933 0.60083 395.066 1.53418ZM338.666 33.6676C338.266 34.3342 337.066 35.0009 336.266 35.0009C335.333 35.0009 335.466 34.4675 336.666 33.6676C339.2 32.0675 339.733 32.0675 338.666 33.6676ZM494.133 65.9342C495.6 68.7343 495.6 68.8676 493.6 67.1342C492.266 66.2009 491.333 64.8676 491.333 64.2009C491.333 62.2009 492.533 62.8676 494.133 65.9342ZM494.933 176.601C494.533 177.534 494.266 176.868 494.266 175.001C494.266 173.134 494.533 172.468 494.933 173.268C495.2 174.201 495.2 175.801 494.933 176.601Z" fill="black"/>
</g>
<g clip-path="url(#clip9_68_32)">
<path d="M395.066 1.53421C385.333 2.46755 381.466 4.20088 388.8 4.46755C392.133 4.60088 390.8 5.13421 384 6.46755C371.066 9.00088 370.4 9.80088 381.333 9.13421L390.666 8.46755L381.333 10.3342C372.4 12.2009 359.2 17.2675 358.266 19.2675C358 19.8009 354.666 21.1342 350.933 22.4675C347.066 23.6675 343.066 25.6675 342 26.8675C340.933 28.2009 337.066 31.1342 333.333 33.4009C329.733 35.6675 323.066 41.2675 318.666 45.8009L310.666 54.0675L318.533 47.8009C326.133 41.8009 335.333 36.2009 337.6 36.3342C338.133 36.4675 336.266 37.6675 333.333 39.2675C327.066 42.6009 314.266 55.2675 310.8 61.6675C308.4 66.0675 308.666 66.0675 314.266 59.9342C320.533 53.4009 324.933 51.0009 319.2 57.2675C312.666 64.4675 312.266 66.2009 318.4 60.3342C327.066 52.2009 326.266 54.4675 316.533 65.2675C312.133 70.2009 307.866 75.5342 307.066 77.0009L305.6 79.6675L308.666 77.0009L311.866 74.3342L308.8 79.2675C305.6 84.6009 306 88.3342 309.466 85.5342C312 83.5342 311.866 83.9342 307.866 94.4675C305.466 100.868 304.666 104.868 305.333 108.068C306 111.801 306.533 112.201 308.133 111.001C310.266 109.134 310.533 109.934 310 118.201C309.866 122.068 310.133 123.001 311.466 122.334C312.666 121.534 312.933 121.934 312.266 123.534C311.733 124.868 311.333 126.468 311.333 127.134C311.333 127.668 310.533 127.934 309.6 127.534C308.666 127.268 306.266 128.334 304.4 130.068C300.666 133.534 298.4 141.668 297.066 156.868C295.866 171.801 301.2 189.001 307.466 190.601C308.8 191.001 310 192.468 310 193.801C310 196.068 305.2 201.668 303.2 201.668C301.6 201.668 296.666 212.201 296.666 215.401C296.8 221.801 305.066 226.334 311.066 223.134C313.466 221.934 314.133 222.201 315.733 225.401C316.933 227.934 317.2 230.201 316.4 232.201C315.733 234.068 316.133 236.868 317.466 240.068C319.6 245.134 325.066 270.201 326.666 282.601C327.466 288.734 327.2 289.801 325.066 290.468C312.933 294.734 302 301.401 293.333 310.201C268.666 335.268 249.6 358.868 242 373.668C231.866 393.668 228.266 409.668 225.466 446.468C223.2 475.534 219.866 491.934 212.933 507.801C205.466 525.134 196.8 554.334 194.533 570.734L192.266 586.734L195.6 591.134C197.466 593.668 200.666 599.001 202.8 603.001C208 612.734 224.666 629.268 234.666 634.601C247.066 641.134 257.866 643.401 271.733 642.601C283.6 641.801 295.333 637.934 301.066 632.601C304.4 629.668 304.933 630.868 309.333 648.201C313.466 664.868 322 685.268 331.333 701.268C336 709.134 338.8 715.801 340.133 722.068L342 731.134L336.266 738.734C299.466 786.867 278.666 844.867 266 935.001C264.4 945.667 262.4 957.667 261.333 961.667C260.4 965.667 258.8 972.867 258 977.667C255.466 991.934 251.6 998.467 236.266 1014.73C221.2 1030.6 211.6 1043.53 201.466 1061.13C192 1077.8 164.533 1136.07 156 1157.67C148.4 1177.27 137.066 1202.33 124 1229C115.466 1246.33 100.533 1292.73 96.6664 1314.07C93.8664 1329.67 89.4664 1345 87.1998 1347.93C86.3998 1348.87 84.3998 1349.67 82.7998 1349.67C79.0664 1349.67 70.7998 1354.2 63.7331 1360.07C56.2664 1366.07 56.1331 1369.93 63.0664 1376.47C69.8664 1383 73.3331 1384.73 80.5331 1384.47C83.8664 1384.33 87.8664 1384.2 89.3331 1384.2C90.7998 1384.2 94.7998 1384.87 98.2664 1385.67C112.4 1389.13 123.333 1381.27 131.2 1361.67C142.933 1332.73 148.133 1325.4 168.666 1309C187.466 1293.8 194.133 1285.13 195.066 1274.6C195.6 1267.13 193.6 1261.13 188.533 1255.53C186 1252.87 186.133 1252.73 198.4 1240.87C213.6 1226.2 248.933 1194.73 271.866 1175.53C309.066 1144.6 320 1129 332 1090.47L336.933 1074.6L349.866 1061C356.933 1053.53 367.2 1040.87 372.666 1032.87C391.6 1004.87 399.066 996.467 459.6 935.667C493.066 901.934 522.933 871.267 525.866 867.534L531.2 860.734L542.266 859.934C561.066 858.334 570.133 854.334 574.8 845.534C576 843.134 577.733 841.667 578.933 841.934C580.133 842.201 584.4 849.801 589.2 860.334C593.733 870.201 600.933 884.467 605.2 892.067C616.933 913.001 652.933 966.334 671.2 990.067C680.133 1001.67 694.4 1022.33 702.933 1035.93C718.266 1060.47 725.066 1070.2 753.466 1108.87C768.666 1129.67 785.6 1146.87 810.666 1167.13C836.533 1188.07 857.333 1212.33 888.666 1258.33C899.2 1273.67 911.066 1290.87 915.2 1296.33C926.533 1311.67 1030.93 1468.33 1040.93 1485C1053.07 1505.27 1057.33 1514.33 1061.6 1527.93C1066.8 1544.73 1066.67 1568.07 1061.2 1599.67C1057.2 1623.8 1056.67 1632.6 1058.93 1644.07C1060.53 1652.73 1063.33 1655.67 1071.6 1657.93C1076.67 1659.13 1078.93 1659.27 1082.4 1657.93C1087.87 1655.93 1094.93 1655.8 1096 1657.67C1097.33 1659.67 1105.47 1659.27 1107.33 1657C1108.67 1655.53 1109.47 1655.4 1110.8 1656.47C1112.67 1658.07 1120.93 1658.47 1123.2 1657.13C1124 1656.6 1125.73 1657 1127.2 1657.93C1129.33 1659.27 1130.8 1659.27 1134.13 1658.07C1137.2 1656.87 1139.07 1656.87 1140.93 1657.8C1145.33 1660.2 1150 1658.07 1152.27 1652.6C1153.87 1648.6 1154.13 1643.4 1153.73 1624.33C1153.2 1604.87 1152.13 1595.8 1147.6 1569.67C1144.53 1552.47 1141.2 1530.47 1140 1521C1138.93 1511.4 1137.07 1500.47 1135.87 1496.6C1134.8 1492.73 1133.6 1484.6 1133.33 1478.33C1132.53 1464.2 1128.27 1451 1118.67 1433C1112.27 1421 1108.27 1411.4 1091.07 1367.67C1085.47 1353.27 1066.67 1292.6 1057.33 1259C1037.87 1189 1009.87 1152.47 937.6 1103.13C920.666 1091.4 912.666 1081.67 902 1059.93C886 1027 883.066 1017.4 872.666 962.334C861.733 904.734 852.533 867.267 834 805.667C829.733 791.401 824.4 771.668 822.133 761.801C809.733 707.668 777.733 661.401 728.266 626.334C702.666 608.068 679.733 596.734 655.733 590.201C651.066 588.868 647.333 587.401 647.333 586.868C647.333 586.334 645.066 585.534 642.4 585.001C639.6 584.468 631.066 581.268 623.333 577.801C615.6 574.201 606.8 570.334 603.733 569.001C596.266 565.934 593.6 562.601 590 552.601C587.2 545.001 587.066 543.668 588.666 536.601C590.266 528.868 589.866 493.801 587.866 479.534C587.066 472.868 587.066 472.734 591.466 471.001C594 469.934 600.8 465.134 606.666 460.068C618 450.334 645.866 435.001 661.733 429.801C669.466 427.134 671.066 427.001 681.733 428.468C688.666 429.401 700.266 429.668 710.8 429.268L728.266 428.468L731.6 432.068C735.066 435.801 746 453.801 751.333 464.334C755.066 471.534 770.133 507.934 785.466 546.334C791.6 561.668 798.666 578.468 800.933 583.668C806.266 595.268 806.4 601.934 801.466 618.868C798.933 627.134 798 632.868 798.4 636.201C798.8 638.868 798.666 643.668 798.133 646.734C797.2 651.401 797.6 654.601 800.4 662.734C802.266 668.468 804 673.801 804.133 674.601C804.933 677.934 811.2 676.468 813.2 672.734L815.066 669.001L815.866 673.668C816.266 676.201 816.8 684.601 817.2 692.334C818 707.401 821.866 720.468 829.333 733.001C832.266 738.068 833.466 739.134 836.266 738.734C841.466 738.068 842.933 734.868 840.933 728.068C837.333 715.668 835.333 700.734 836.4 695.534L837.466 690.334L839.866 700.468C842.266 711.401 851.066 730.734 857.866 739.934C862.8 746.734 867.733 747.668 870.133 742.468C871.333 739.801 870.666 736.468 866.133 722.734C860.8 706.468 856.666 689.534 856.666 683.934C856.8 681.268 856.933 681.268 858.133 683.401C858.933 684.601 860.666 689.001 862 692.868C865.733 704.068 883.333 724.334 889.2 724.334C889.466 724.334 890.8 723.401 891.866 722.201C894.533 719.534 894.533 713.801 892 709.934C890 707.134 890 707.001 893.733 707.801C896.266 708.334 898 707.934 899.333 706.334C900.933 704.334 900.933 703.268 898.8 697.801C891.866 680.334 888.666 669.134 887.333 658.334C886.533 651.668 884.4 641.534 882.666 635.668C880.933 629.801 878.933 621.401 878.133 617.001C877.2 612.334 873.6 602.868 869.333 594.201L862 579.534L860 555.534C857.733 528.601 852.266 483.934 849.333 468.734C845.466 448.734 839.466 432.068 818.4 383.668C805.866 354.734 791.733 343.001 759.066 334.468C721.866 324.601 701.466 321.134 669.066 319.001C647.333 317.668 651.2 318.601 607.733 302.601C580.933 292.601 570.666 290.468 550 290.468C540.133 290.334 527.466 291.134 521.866 292.201L511.6 293.934L503.733 287.401C499.466 283.801 490.8 277.401 484.666 273.001C478.4 268.734 472.8 264.201 472.133 263.134C471.466 261.934 470.933 258.068 471.066 254.334C471.333 250.734 470.533 246.201 469.6 244.334C467.333 239.934 469.066 235.534 474 233.934C484.533 230.201 503.333 191.801 499.6 181.534C498.933 179.801 498.933 176.201 499.733 173.134C501.333 166.601 501.866 165.934 503.2 168.201C503.866 169.268 504.666 167.801 505.333 164.068C506.266 158.868 506.4 158.601 507.333 161.668C508.4 165.001 508.4 165.001 508.533 161.934C508.666 160.201 509.333 156.201 510.133 152.868C511.466 147.801 512 147.134 513.733 148.601C515.6 150.201 515.733 149.401 515.066 142.334L514.266 134.334L516.133 139.534C518.133 145.134 520.133 148.201 518.933 143.668C518.533 142.201 517.733 138.601 517.333 135.668C516.666 131.401 516.8 130.734 518 132.334C519.333 134.068 519.466 134.068 518.933 132.201C518.533 131.001 516.933 123.934 515.333 116.334C513.733 108.868 511.333 100.068 509.866 96.7342C508.4 93.4009 506.133 87.2675 504.8 83.1342C500.266 69.9342 495.733 60.3342 494.666 61.4009C494 61.9342 494 61.5342 494.533 60.6009C495.2 59.4009 494 56.8675 491.466 53.6675C489.2 50.8675 487.333 47.8009 487.333 47.0009C487.333 44.3342 480.4 31.6675 475.733 25.9342C468.533 17.0009 452.666 5.80088 443.2 2.86755C435.2 0.334213 427.333 -0.59912 434 1.80088C436.933 2.86755 436.933 2.86755 433.333 2.20088C427.066 1.00088 404.933 0.60088 395.066 1.53421ZM338.666 33.6675C338.266 34.3342 337.066 35.0009 336.266 35.0009C335.333 35.0009 335.466 34.4675 336.666 33.6675C339.2 32.0675 339.733 32.0675 338.666 33.6675ZM494.133 65.9342C495.6 68.7342 495.6 68.8675 493.6 67.1342C492.266 66.2009 491.333 64.8675 491.333 64.2009C491.333 62.2009 492.533 62.8675 494.133 65.9342ZM494.933 176.601C494.533 177.534 494.266 176.868 494.266 175.001C494.266 173.134 494.533 172.468 494.933 173.268C495.2 174.201 495.2 175.801 494.933 176.601Z" fill="black"/>
<path d="M334 27.0007C332.933 27.6673 332.667 28.334 333.333 28.334C334.133 28.334 335.6 27.6673 336.667 27.0007C337.733 26.334 338.133 25.6673 337.333 25.6673C336.667 25.6673 335.067 26.334 334 27.0007Z" fill="black"/>
</g>
<defs>
<clipPath id="clip0_68_32">
<rect width="1180" height="878" fill="white" transform="translate(0 804)"/>
</clipPath>
<clipPath id="clip1_68_32">
<rect width="543" height="64" fill="white" transform="translate(292 740)"/>
</clipPath>
<clipPath id="clip2_68_32">
<rect width="496" height="48" fill="white" transform="translate(320 692)"/>
</clipPath>
<clipPath id="clip3_68_32">
<rect width="187" height="125" fill="white" transform="translate(606 567)"/>
</clipPath>
<clipPath id="clip4_68_32">
<rect width="444" height="403" fill="white" transform="translate(162 289)"/>
</clipPath>
<clipPath id="clip5_68_32">
<rect width="289" height="278" fill="white" transform="translate(606 289)"/>
</clipPath>
<clipPath id="clip6_68_32">
<rect width="93" height="180" fill="white" transform="translate(821 567)"/>
</clipPath>
<clipPath id="clip7_68_32">
<rect width="28" height="120" fill="white" transform="translate(793 567)"/>
</clipPath>
<clipPath id="clip8_68_32">
<rect width="6" height="30" fill="white" transform="translate(815 687)"/>
</clipPath>
<clipPath id="clip9_68_32">
<rect width="239" height="289" fill="white" transform="translate(289)"/>
</clipPath>
</defs>
</svg>
