<svg width="1708" height="1216" viewBox="0 0 1708 1216" fill="none" xmlns="http://www.w3.org/2000/svg">
<g clip-path="url(#clip0_73_25)">
<path d="M560.534 -7.93326C558 -6.19993 554.4 -1.79993 552.134 2.60007C546.934 13.0001 546.267 23.6667 549.867 45.4001C553.2 65.5334 553.334 68.2001 550.8 70.7334C549.2 72.3334 547.6 72.3334 542.534 71.2667C537.067 69.9334 536.134 70.0667 534.534 72.3334C530.8 77.4001 532.4 83.8001 542.667 105C548.134 116.333 552.667 127 552.667 128.733C552.667 130.6 555.867 135.267 561.467 141.133C579.067 159.933 584.534 180.733 588.667 243.933C590.534 275.133 594.8 290.733 610 323.667C617.867 340.867 619.067 344.467 620.667 356.333C623.467 378.867 624 409.4 622.934 483.533C621.867 547.933 622 556.067 624 567.4C626.8 582.867 635.067 600.2 643.867 609.133C650.4 615.8 654.667 625.133 659.467 643C662.4 654.333 666 661.533 681.2 687C693.467 707.667 702.934 734.467 715.2 783.667C716.667 789.933 719.2 799.4 720.667 804.733C722 810.067 723.867 820.733 724.8 828.467C726.134 840.867 726 843.667 724 850.867C721.334 860.6 718.934 865.267 713.867 871.8C711.067 875.4 710 878.2 710 882.2C710 887.267 709.467 887.933 701.067 894.6C696 898.6 685.867 906.067 678.267 911.4C657.467 926.2 649.734 933.133 640.8 945.133C636.267 951.133 629.467 962.333 625.867 969.933C620.667 980.6 618.267 984.067 615.6 985.133C607.067 988.467 596 990.467 576 992.2C542 995.4 494.4 1006.6 477.334 1015.53C470.8 1018.87 470 1019 445.334 1019C431.467 1019 410.4 1018.6 398.667 1018.2C379.467 1017.4 376.667 1017 370.667 1014.07C349.734 1003.4 329.334 999.133 300 999.133C276.667 999.133 271.867 999.667 218 1008.33C181.734 1014.2 146.667 1018.73 138.4 1018.6C132.267 1018.47 128.4 1015.4 120.934 1004.6C109.6 988.333 104.667 985 92.2669 985C83.4669 985 75.3336 988.733 70.6669 994.867C68.6669 997.4 64.1336 1006.6 60.5336 1015.13C56.8002 1023.8 52.6669 1032.47 51.3336 1034.47C49.8669 1036.47 48.6669 1039 48.6669 1040.2C48.6669 1041.4 46.5336 1044.73 43.8669 1047.53C40.2669 1051.67 36.1336 1054.07 26.4002 1057.8C11.6002 1063.53 5.33357 1068.33 3.0669 1075.93C1.4669 1081.27 1.60024 1081.53 6.00024 1085.13C8.40024 1087.13 15.3336 1091.4 21.2002 1094.33C30.6669 1099.13 33.7336 1099.93 45.7336 1101.13C64.2669 1103 76.5336 1101.27 107.334 1092.6L132 1085.67L165.334 1085.8C201.867 1085.93 225.334 1087.93 266 1094.33C290.4 1098.2 328.4 1105.53 329.2 1106.47C329.334 1106.73 331.2 1110.33 333.067 1114.33C335.067 1118.33 339.467 1124.6 342.8 1128.2C352.134 1138.33 356.534 1139 440.667 1144.33C457.867 1145.53 483.734 1147.27 498 1148.33C535.067 1151.27 621.067 1152.47 642 1150.47C661.734 1148.6 688.667 1143.4 696.8 1139.93C715.867 1131.67 741.867 1130.2 759.334 1136.07C776.934 1142.07 779.467 1142.47 812 1143.67C829.6 1144.33 854.534 1145.8 867.334 1147C880.134 1148.07 904.8 1149.67 922 1150.33C939.2 1151 963.2 1152.6 975.334 1153.67C987.467 1154.87 1008.8 1156.33 1022.67 1157C1037.6 1157.67 1059.2 1159.8 1075.33 1162.2C1103.33 1166.33 1121.6 1168.2 1148.8 1169.67C1161.47 1170.47 1165.07 1170.2 1168.4 1168.47C1172 1166.6 1173.47 1166.6 1185.87 1169C1244.53 1180.2 1316.13 1185.67 1428.67 1187.67C1492.93 1188.73 1501.87 1189.53 1526 1195.67C1538.13 1198.73 1552.93 1204.73 1563.2 1210.6C1570 1214.6 1571.6 1215 1582 1215C1588.27 1215 1595.87 1214.2 1598.93 1213.27C1607.47 1210.73 1616.8 1203.67 1621.2 1196.6C1624.93 1190.6 1625.2 1189 1626 1172.47C1626.8 1156.2 1627.07 1154.2 1630.67 1148.2C1632.8 1144.6 1643.6 1132.6 1654.67 1121.67C1686.67 1090.07 1688.93 1086.33 1693.87 1056.6C1697.07 1037.53 1699.47 1029.53 1704 1022.47C1710.4 1012.47 1709.87 1001.8 1702.53 993.133C1690.8 979.4 1671.73 985.667 1668.67 1004.2C1667.33 1012.87 1664.4 1018.2 1657.07 1025.27C1648.27 1033.93 1628.4 1047.53 1616 1053.53C1609.47 1056.73 1590.53 1067.27 1574 1077C1536.67 1099 1531.07 1101.53 1513.73 1104.33C1484.53 1109 1455.33 1108.33 1412.67 1102.2C1396.93 1099.93 1341.73 1090.07 1322.67 1086.2C1319.07 1085.4 1309.07 1084.33 1300.67 1083.67C1283.33 1082.2 1272.67 1079.8 1239.73 1070.07C1223.33 1065.27 1216.53 1062.6 1216 1061C1215.2 1058.33 1209.33 1055.4 1194.13 1050.07C1188 1047.93 1178.4 1044.07 1172.93 1041.4C1160.53 1035.67 1150.67 1033.53 1125.73 1031.67C1114.93 1030.87 1104 1029.4 1101.6 1028.33C1099.2 1027.4 1091.47 1025.53 1084.53 1024.33C1075.47 1022.73 1067.33 1020.07 1055.33 1014.73C1029.6 1003.4 1009.33 996.2 986.667 990.467C973.734 987.267 952.534 983.667 945.867 983.667C941.867 983.667 940.8 983.133 940.267 980.733C938.934 975.667 935.067 912.867 935.6 905.133L936 897.933L942.934 896.2C946.8 895.267 954.134 892.333 959.334 889.667C967.334 885.667 968.667 884.467 968.667 881.533C968.667 879.533 964.8 869.933 960 860.067C949.6 838.333 948.134 831.933 950.4 816.067C953.2 795.8 951.334 736.6 946.667 693C944.4 672.2 943.467 668.733 936.934 651.8C932.8 641.133 931.2 638.6 925.334 633.667C921.734 630.6 917.867 627.8 917.067 627.533C916.134 627.267 910.667 621.133 905.067 614.067C865.734 565 866.934 566.333 845.867 553.933C831.067 545.4 823.867 538.067 822.667 530.733C822.134 527.933 821.2 522.867 820.4 519.4C818.134 509.8 819.334 509 836.267 509C851.334 509 857.6 507.267 861.2 502.2C864 498.2 864 488.333 861.067 477.8C859.467 472.2 858.8 464.333 858.8 451.933L858.667 434.067L862.534 430.867C865.867 427.8 866.267 427 865.467 421.8C864.934 418.6 862.534 411.8 860 406.467C856.534 399.267 855.2 394.6 854.667 386.733C853.467 371.267 851.6 364.067 846.134 353C843.334 347.533 840.667 341.267 840.134 339C838.534 332.733 825.334 318.733 816.8 314.333C810.8 311.267 808 308.733 802.534 300.733C783.334 273.133 770.667 258.867 718 205.667C688.267 175.533 660.4 147.133 656.267 142.6C646.8 132.067 641.734 122.2 637.334 105.667C635.467 98.6001 632.534 88.8667 630.8 83.9334C629.067 79.0001 626.534 70.2001 625.334 64.3334C622.534 51.0001 612.667 27.2667 605.6 16.7334C600.4 8.86674 587.867 -1.79993 581.6 -3.79993C580 -4.33326 576.934 -6.06659 574.934 -7.79993C570.134 -11.7999 566.267 -11.7999 560.534 -7.93326ZM679.067 249.133C684.134 256.733 691.467 268.333 695.334 275C699.334 281.533 706.134 292.333 710.4 298.867C716.267 307.533 717.867 311 716.534 311.4C715.467 311.8 709.2 317.4 702.4 323.933C692.4 333.8 690 337 688.8 341.933C687.867 345.267 686.934 347.8 686.667 347.4C686.267 347.133 685.467 340.867 684.667 333.533C681.2 300.867 672.534 268.6 654.534 221.8C652 215.4 650 209.8 650 209.4C650 208.333 669.734 235.267 679.067 249.133Z" fill="black"/>
</g>
<g clip-path="url(#clip1_73_25)">
<path d="M559.534 -8.93326C557 -7.19993 553.4 -2.79993 551.134 1.60007C545.934 12.0001 545.267 22.6667 548.867 44.4001C552.2 64.5334 552.334 67.2001 549.8 69.7334C548.2 71.3334 546.6 71.3334 541.534 70.2667C536.067 68.9334 535.134 69.0667 533.534 71.3334C529.8 76.4001 531.4 82.8001 541.667 104C547.134 115.333 551.667 126 551.667 127.733C551.667 129.6 554.867 134.267 560.467 140.133C578.067 158.933 583.534 179.733 587.667 242.933C589.534 274.133 593.8 289.733 609 322.667C616.867 339.867 618.067 343.467 619.667 355.333C622.467 377.867 623 408.4 621.934 482.533C620.867 546.933 621 555.067 623 566.4C625.8 581.867 634.067 599.2 642.867 608.133C649.4 614.8 653.667 624.133 658.467 642C661.4 653.333 665 660.533 680.2 686C692.467 706.667 701.934 733.467 714.2 782.667C715.667 788.933 718.2 798.4 719.667 803.733C721 809.067 722.867 819.733 723.8 827.467C725.134 839.867 725 842.667 723 849.867C720.334 859.6 717.934 864.267 712.867 870.8C710.067 874.4 709 877.2 709 881.2C709 886.267 708.467 886.933 700.067 893.6C695 897.6 684.867 905.067 677.267 910.4C656.467 925.2 648.734 932.133 639.8 944.133C635.267 950.133 628.467 961.333 624.867 968.933C619.667 979.6 617.267 983.067 614.6 984.133C606.067 987.467 595 989.467 575 991.2C541 994.4 493.4 1005.6 476.334 1014.53C469.8 1017.87 469 1018 444.334 1018C430.467 1018 409.4 1017.6 397.667 1017.2C378.467 1016.4 375.667 1016 369.667 1013.07C348.734 1002.4 328.334 998.133 299 998.133C275.667 998.133 270.867 998.667 217 1007.33C180.734 1013.2 145.667 1017.73 137.4 1017.6C131.267 1017.47 127.4 1014.4 119.934 1003.6C108.6 987.333 103.667 984 91.2669 984C82.4669 984 74.3336 987.733 69.6669 993.867C67.6669 996.4 63.1336 1005.6 59.5336 1014.13C55.8002 1022.8 51.6669 1031.47 50.3336 1033.47C48.8669 1035.47 47.6669 1038 47.6669 1039.2C47.6669 1040.4 45.5336 1043.73 42.8669 1046.53C39.2669 1050.67 35.1336 1053.07 25.4002 1056.8C10.6002 1062.53 4.33357 1067.33 2.0669 1074.93C0.466903 1080.27 0.600236 1080.53 5.00024 1084.13C7.40024 1086.13 14.3336 1090.4 20.2002 1093.33C29.6669 1098.13 32.7336 1098.93 44.7336 1100.13C63.2669 1102 75.5336 1100.27 106.334 1091.6L131 1084.67L164.334 1084.8C200.867 1084.93 224.334 1086.93 265 1093.33C289.4 1097.2 327.4 1104.53 328.2 1105.47C328.334 1105.73 330.2 1109.33 332.067 1113.33C334.067 1117.33 338.467 1123.6 341.8 1127.2C351.134 1137.33 355.534 1138 439.667 1143.33C456.867 1144.53 482.734 1146.27 497 1147.33C534.067 1150.27 620.067 1151.47 641 1149.47C660.734 1147.6 687.667 1142.4 695.8 1138.93C714.867 1130.67 740.867 1129.2 758.334 1135.07C775.934 1141.07 778.467 1141.47 811 1142.67C828.6 1143.33 853.534 1144.8 866.334 1146C879.134 1147.07 903.8 1148.67 921 1149.33C938.2 1150 962.2 1151.6 974.334 1152.67C986.467 1153.87 1007.8 1155.33 1021.67 1156C1036.6 1156.67 1058.2 1158.8 1074.33 1161.2C1102.33 1165.33 1120.6 1167.2 1147.8 1168.67C1160.47 1169.47 1164.07 1169.2 1167.4 1167.47C1171 1165.6 1172.47 1165.6 1184.87 1168C1243.53 1179.2 1315.13 1184.67 1427.67 1186.67C1491.93 1187.73 1500.87 1188.53 1525 1194.67C1537.13 1197.73 1551.93 1203.73 1562.2 1209.6C1569 1213.6 1570.6 1214 1581 1214C1587.27 1214 1594.87 1213.2 1597.93 1212.27C1606.47 1209.73 1615.8 1202.67 1620.2 1195.6C1623.93 1189.6 1624.2 1188 1625 1171.47C1625.8 1155.2 1626.07 1153.2 1629.67 1147.2C1631.8 1143.6 1642.6 1131.6 1653.67 1120.67C1685.67 1089.07 1687.93 1085.33 1692.87 1055.6C1696.07 1036.53 1698.47 1028.53 1703 1021.47C1709.4 1011.47 1708.87 1000.8 1701.53 992.133C1689.8 978.4 1670.73 984.667 1667.67 1003.2C1666.33 1011.87 1663.4 1017.2 1656.07 1024.27C1647.27 1032.93 1627.4 1046.53 1615 1052.53C1608.47 1055.73 1589.53 1066.27 1573 1076C1535.67 1098 1530.07 1100.53 1512.73 1103.33C1483.53 1108 1454.33 1107.33 1411.67 1101.2C1395.93 1098.93 1340.73 1089.07 1321.67 1085.2C1318.07 1084.4 1308.07 1083.33 1299.67 1082.67C1282.33 1081.2 1271.67 1078.8 1238.73 1069.07C1222.33 1064.27 1215.53 1061.6 1215 1060C1214.2 1057.33 1208.33 1054.4 1193.13 1049.07C1187 1046.93 1177.4 1043.07 1171.93 1040.4C1159.53 1034.67 1149.67 1032.53 1124.73 1030.67C1113.93 1029.87 1103 1028.4 1100.6 1027.33C1098.2 1026.4 1090.47 1024.53 1083.53 1023.33C1074.47 1021.73 1066.33 1019.07 1054.33 1013.73C1028.6 1002.4 1008.33 995.2 985.667 989.467C972.734 986.267 951.534 982.667 944.867 982.667C940.867 982.667 939.8 982.133 939.267 979.733C937.934 974.667 934.067 911.867 934.6 904.133L935 896.933L941.934 895.2C945.8 894.267 953.134 891.333 958.334 888.667C966.334 884.667 967.667 883.467 967.667 880.533C967.667 878.533 963.8 868.933 959 859.067C948.6 837.333 947.134 830.933 949.4 815.067C952.2 794.8 950.334 735.6 945.667 692C943.4 671.2 942.467 667.733 935.934 650.8C931.8 640.133 930.2 637.6 924.334 632.667C920.734 629.6 916.867 626.8 916.067 626.533C915.134 626.267 909.667 620.133 904.067 613.067C864.734 564 865.934 565.333 844.867 552.933C830.067 544.4 822.867 537.067 821.667 529.733C821.134 526.933 820.2 521.867 819.4 518.4C817.134 508.8 818.334 508 835.267 508C850.334 508 856.6 506.267 860.2 501.2C863 497.2 863 487.333 860.067 476.8C858.467 471.2 857.8 463.333 857.8 450.933L857.667 433.067L861.534 429.867C864.867 426.8 865.267 426 864.467 420.8C863.934 417.6 861.534 410.8 859 405.467C855.534 398.267 854.2 393.6 853.667 385.733C852.467 370.267 850.6 363.067 845.134 352C842.334 346.533 839.667 340.267 839.134 338C837.534 331.733 824.334 317.733 815.8 313.333C809.8 310.267 807 307.733 801.534 299.733C782.334 272.133 769.667 257.867 717 204.667C687.267 174.533 659.4 146.133 655.267 141.6C645.8 131.067 640.734 121.2 636.334 104.667C634.467 97.6001 631.534 87.8667 629.8 82.9334C628.067 78.0001 625.534 69.2001 624.334 63.3334C621.534 50.0001 611.667 26.2667 604.6 15.7334C599.4 7.86674 586.867 -2.79993 580.6 -4.79993C579 -5.33326 575.934 -7.06659 573.934 -8.79993C569.134 -12.7999 565.267 -12.7999 559.534 -8.93326ZM678.067 248.133C683.134 255.733 690.467 267.333 694.334 274C698.334 280.533 705.134 291.333 709.4 297.867C715.267 306.533 716.867 310 715.534 310.4C714.467 310.8 708.2 316.4 701.4 322.933C691.4 332.8 689 336 687.8 340.933C686.867 344.267 685.934 346.8 685.667 346.4C685.267 346.133 684.467 339.867 683.667 332.533C680.2 299.867 671.534 267.6 653.534 220.8C651 214.4 649 208.8 649 208.4C649 207.333 668.734 234.267 678.067 248.133Z" fill="black"/>
</g>
<g clip-path="url(#clip2_73_25)">
<path d="M559.534 -8.93326C557 -7.19993 553.4 -2.79993 551.134 1.60007C545.934 12.0001 545.267 22.6667 548.867 44.4001C552.2 64.5334 552.334 67.2001 549.8 69.7334C548.2 71.3334 546.6 71.3334 541.534 70.2667C536.067 68.9334 535.134 69.0667 533.534 71.3334C529.8 76.4001 531.4 82.8001 541.667 104C547.134 115.333 551.667 126 551.667 127.733C551.667 129.6 554.867 134.267 560.467 140.133C578.067 158.933 583.534 179.733 587.667 242.933C589.534 274.133 593.8 289.733 609 322.667C616.867 339.867 618.067 343.467 619.667 355.333C622.467 377.867 623 408.4 621.934 482.533C620.867 546.933 621 555.067 623 566.4C625.8 581.867 634.067 599.2 642.867 608.133C649.4 614.8 653.667 624.133 658.467 642C661.4 653.333 665 660.533 680.2 686C692.467 706.667 701.934 733.467 714.2 782.667C715.667 788.933 718.2 798.4 719.667 803.733C721 809.067 722.867 819.733 723.8 827.467C725.134 839.867 725 842.667 723 849.867C720.334 859.6 717.934 864.267 712.867 870.8C710.067 874.4 709 877.2 709 881.2C709 886.267 708.467 886.933 700.067 893.6C695 897.6 684.867 905.067 677.267 910.4C656.467 925.2 648.734 932.133 639.8 944.133C635.267 950.133 628.467 961.333 624.867 968.933C619.667 979.6 617.267 983.067 614.6 984.133C606.067 987.467 595 989.467 575 991.2C541 994.4 493.4 1005.6 476.334 1014.53C469.8 1017.87 469 1018 444.334 1018C430.467 1018 409.4 1017.6 397.667 1017.2C378.467 1016.4 375.667 1016 369.667 1013.07C348.734 1002.4 328.334 998.133 299 998.133C275.667 998.133 270.867 998.667 217 1007.33C180.734 1013.2 145.667 1017.73 137.4 1017.6C131.267 1017.47 127.4 1014.4 119.934 1003.6C108.6 987.333 103.667 984 91.2669 984C82.4669 984 74.3336 987.733 69.6669 993.867C67.6669 996.4 63.1336 1005.6 59.5336 1014.13C55.8002 1022.8 51.6669 1031.47 50.3336 1033.47C48.8669 1035.47 47.6669 1038 47.6669 1039.2C47.6669 1040.4 45.5336 1043.73 42.8669 1046.53C39.2669 1050.67 35.1336 1053.07 25.4002 1056.8C10.6002 1062.53 4.33357 1067.33 2.0669 1074.93C0.466903 1080.27 0.600236 1080.53 5.00024 1084.13C7.40024 1086.13 14.3336 1090.4 20.2002 1093.33C29.6669 1098.13 32.7336 1098.93 44.7336 1100.13C63.2669 1102 75.5336 1100.27 106.334 1091.6L131 1084.67L164.334 1084.8C200.867 1084.93 224.334 1086.93 265 1093.33C289.4 1097.2 327.4 1104.53 328.2 1105.47C328.334 1105.73 330.2 1109.33 332.067 1113.33C334.067 1117.33 338.467 1123.6 341.8 1127.2C351.134 1137.33 355.534 1138 439.667 1143.33C456.867 1144.53 482.734 1146.27 497 1147.33C534.067 1150.27 620.067 1151.47 641 1149.47C660.734 1147.6 687.667 1142.4 695.8 1138.93C714.867 1130.67 740.867 1129.2 758.334 1135.07C775.934 1141.07 778.467 1141.47 811 1142.67C828.6 1143.33 853.534 1144.8 866.334 1146C879.134 1147.07 903.8 1148.67 921 1149.33C938.2 1150 962.2 1151.6 974.334 1152.67C986.467 1153.87 1007.8 1155.33 1021.67 1156C1036.6 1156.67 1058.2 1158.8 1074.33 1161.2C1102.33 1165.33 1120.6 1167.2 1147.8 1168.67C1160.47 1169.47 1164.07 1169.2 1167.4 1167.47C1171 1165.6 1172.47 1165.6 1184.87 1168C1243.53 1179.2 1315.13 1184.67 1427.67 1186.67C1491.93 1187.73 1500.87 1188.53 1525 1194.67C1537.13 1197.73 1551.93 1203.73 1562.2 1209.6C1569 1213.6 1570.6 1214 1581 1214C1587.27 1214 1594.87 1213.2 1597.93 1212.27C1606.47 1209.73 1615.8 1202.67 1620.2 1195.6C1623.93 1189.6 1624.2 1188 1625 1171.47C1625.8 1155.2 1626.07 1153.2 1629.67 1147.2C1631.8 1143.6 1642.6 1131.6 1653.67 1120.67C1685.67 1089.07 1687.93 1085.33 1692.87 1055.6C1696.07 1036.53 1698.47 1028.53 1703 1021.47C1709.4 1011.47 1708.87 1000.8 1701.53 992.133C1689.8 978.4 1670.73 984.667 1667.67 1003.2C1666.33 1011.87 1663.4 1017.2 1656.07 1024.27C1647.27 1032.93 1627.4 1046.53 1615 1052.53C1608.47 1055.73 1589.53 1066.27 1573 1076C1535.67 1098 1530.07 1100.53 1512.73 1103.33C1483.53 1108 1454.33 1107.33 1411.67 1101.2C1395.93 1098.93 1340.73 1089.07 1321.67 1085.2C1318.07 1084.4 1308.07 1083.33 1299.67 1082.67C1282.33 1081.2 1271.67 1078.8 1238.73 1069.07C1222.33 1064.27 1215.53 1061.6 1215 1060C1214.2 1057.33 1208.33 1054.4 1193.13 1049.07C1187 1046.93 1177.4 1043.07 1171.93 1040.4C1159.53 1034.67 1149.67 1032.53 1124.73 1030.67C1113.93 1029.87 1103 1028.4 1100.6 1027.33C1098.2 1026.4 1090.47 1024.53 1083.53 1023.33C1074.47 1021.73 1066.33 1019.07 1054.33 1013.73C1028.6 1002.4 1008.33 995.2 985.667 989.467C972.734 986.267 951.534 982.667 944.867 982.667C940.867 982.667 939.8 982.133 939.267 979.733C937.934 974.667 934.067 911.867 934.6 904.133L935 896.933L941.934 895.2C945.8 894.267 953.134 891.333 958.334 888.667C966.334 884.667 967.667 883.467 967.667 880.533C967.667 878.533 963.8 868.933 959 859.067C948.6 837.333 947.134 830.933 949.4 815.067C952.2 794.8 950.334 735.6 945.667 692C943.4 671.2 942.467 667.733 935.934 650.8C931.8 640.133 930.2 637.6 924.334 632.667C920.734 629.6 916.867 626.8 916.067 626.533C915.134 626.267 909.667 620.133 904.067 613.067C864.734 564 865.934 565.333 844.867 552.933C830.067 544.4 822.867 537.067 821.667 529.733C821.134 526.933 820.2 521.867 819.4 518.4C817.134 508.8 818.334 508 835.267 508C850.334 508 856.6 506.267 860.2 501.2C863 497.2 863 487.333 860.067 476.8C858.467 471.2 857.8 463.333 857.8 450.933L857.667 433.067L861.534 429.867C864.867 426.8 865.267 426 864.467 420.8C863.934 417.6 861.534 410.8 859 405.467C855.534 398.267 854.2 393.6 853.667 385.733C852.467 370.267 850.6 363.067 845.134 352C842.334 346.533 839.667 340.267 839.134 338C837.534 331.733 824.334 317.733 815.8 313.333C809.8 310.267 807 307.733 801.534 299.733C782.334 272.133 769.667 257.867 717 204.667C687.267 174.533 659.4 146.133 655.267 141.6C645.8 131.067 640.734 121.2 636.334 104.667C634.467 97.6001 631.534 87.8667 629.8 82.9334C628.067 78.0001 625.534 69.2001 624.334 63.3334C621.534 50.0001 611.667 26.2667 604.6 15.7334C599.4 7.86674 586.867 -2.79993 580.6 -4.79993C579 -5.33326 575.934 -7.06659 573.934 -8.79993C569.134 -12.7999 565.267 -12.7999 559.534 -8.93326ZM678.067 248.133C683.134 255.733 690.467 267.333 694.334 274C698.334 280.533 705.134 291.333 709.4 297.867C715.267 306.533 716.867 310 715.534 310.4C714.467 310.8 708.2 316.4 701.4 322.933C691.4 332.8 689 336 687.8 340.933C686.867 344.267 685.934 346.8 685.667 346.4C685.267 346.133 684.467 339.867 683.667 332.533C680.2 299.867 671.534 267.6 653.534 220.8C651 214.4 649 208.8 649 208.4C649 207.333 668.734 234.267 678.067 248.133Z" fill="black"/>
</g>
<g clip-path="url(#clip3_73_25)">
<path d="M558.534 -9.93326C556 -8.19993 552.4 -3.79993 550.134 0.600072C544.934 11.0001 544.267 21.6667 547.867 43.4001C551.2 63.5334 551.334 66.2001 548.8 68.7334C547.2 70.3334 545.6 70.3334 540.534 69.2667C535.067 67.9334 534.134 68.0667 532.534 70.3334C528.8 75.4001 530.4 81.8001 540.667 103C546.134 114.333 550.667 125 550.667 126.733C550.667 128.6 553.867 133.267 559.467 139.133C577.067 157.933 582.534 178.733 586.667 241.933C588.534 273.133 592.8 288.733 608 321.667C615.867 338.867 617.067 342.467 618.667 354.333C621.467 376.867 622 407.4 620.934 481.533C619.867 545.933 620 554.067 622 565.4C624.8 580.867 633.067 598.2 641.867 607.133C648.4 613.8 652.667 623.133 657.467 641C660.4 652.333 664 659.533 679.2 685C691.467 705.667 700.934 732.467 713.2 781.667C714.667 787.933 717.2 797.4 718.667 802.733C720 808.067 721.867 818.733 722.8 826.467C724.134 838.867 724 841.667 722 848.867C719.334 858.6 716.934 863.267 711.867 869.8C709.067 873.4 708 876.2 708 880.2C708 885.267 707.467 885.933 699.067 892.6C694 896.6 683.867 904.067 676.267 909.4C655.467 924.2 647.734 931.133 638.8 943.133C634.267 949.133 627.467 960.333 623.867 967.933C618.667 978.6 616.267 982.067 613.6 983.133C605.067 986.467 594 988.467 574 990.2C540 993.4 492.4 1004.6 475.334 1013.53C468.8 1016.87 468 1017 443.334 1017C429.467 1017 408.4 1016.6 396.667 1016.2C377.467 1015.4 374.667 1015 368.667 1012.07C347.734 1001.4 327.334 997.133 298 997.133C274.667 997.133 269.867 997.667 216 1006.33C179.734 1012.2 144.667 1016.73 136.4 1016.6C130.267 1016.47 126.4 1013.4 118.934 1002.6C107.6 986.333 102.667 983 90.2669 983C81.4669 983 73.3336 986.733 68.6669 992.867C66.6669 995.4 62.1336 1004.6 58.5336 1013.13C54.8002 1021.8 50.6669 1030.47 49.3336 1032.47C47.8669 1034.47 46.6669 1037 46.6669 1038.2C46.6669 1039.4 44.5336 1042.73 41.8669 1045.53C38.2669 1049.67 34.1336 1052.07 24.4002 1055.8C9.60024 1061.53 3.33357 1066.33 1.0669 1073.93C-0.533097 1079.27 -0.399764 1079.53 4.00024 1083.13C6.40024 1085.13 13.3336 1089.4 19.2002 1092.33C28.6669 1097.13 31.7336 1097.93 43.7336 1099.13C62.2669 1101 74.5336 1099.27 105.334 1090.6L130 1083.67L163.334 1083.8C199.867 1083.93 223.334 1085.93 264 1092.33C288.4 1096.2 326.4 1103.53 327.2 1104.47C327.334 1104.73 329.2 1108.33 331.067 1112.33C333.067 1116.33 337.467 1122.6 340.8 1126.2C350.134 1136.33 354.534 1137 438.667 1142.33C455.867 1143.53 481.734 1145.27 496 1146.33C533.067 1149.27 619.067 1150.47 640 1148.47C659.734 1146.6 686.667 1141.4 694.8 1137.93C713.867 1129.67 739.867 1128.2 757.334 1134.07C774.934 1140.07 777.467 1140.47 810 1141.67C827.6 1142.33 852.534 1143.8 865.334 1145C878.134 1146.07 902.8 1147.67 920 1148.33C937.2 1149 961.2 1150.6 973.334 1151.67C985.467 1152.87 1006.8 1154.33 1020.67 1155C1035.6 1155.67 1057.2 1157.8 1073.33 1160.2C1101.33 1164.33 1119.6 1166.2 1146.8 1167.67C1159.47 1168.47 1163.07 1168.2 1166.4 1166.47C1170 1164.6 1171.47 1164.6 1183.87 1167C1242.53 1178.2 1314.13 1183.67 1426.67 1185.67C1490.93 1186.73 1499.87 1187.53 1524 1193.67C1536.13 1196.73 1550.93 1202.73 1561.2 1208.6C1568 1212.6 1569.6 1213 1580 1213C1586.27 1213 1593.87 1212.2 1596.93 1211.27C1605.47 1208.73 1614.8 1201.67 1619.2 1194.6C1622.93 1188.6 1623.2 1187 1624 1170.47C1624.8 1154.2 1625.07 1152.2 1628.67 1146.2C1630.8 1142.6 1641.6 1130.6 1652.67 1119.67C1684.67 1088.07 1686.93 1084.33 1691.87 1054.6C1695.07 1035.53 1697.47 1027.53 1702 1020.47C1708.4 1010.47 1707.87 999.8 1700.53 991.133C1688.8 977.4 1669.73 983.667 1666.67 1002.2C1665.33 1010.87 1662.4 1016.2 1655.07 1023.27C1646.27 1031.93 1626.4 1045.53 1614 1051.53C1607.47 1054.73 1588.53 1065.27 1572 1075C1534.67 1097 1529.07 1099.53 1511.73 1102.33C1482.53 1107 1453.33 1106.33 1410.67 1100.2C1394.93 1097.93 1339.73 1088.07 1320.67 1084.2C1317.07 1083.4 1307.07 1082.33 1298.67 1081.67C1281.33 1080.2 1270.67 1077.8 1237.73 1068.07C1221.33 1063.27 1214.53 1060.6 1214 1059C1213.2 1056.33 1207.33 1053.4 1192.13 1048.07C1186 1045.93 1176.4 1042.07 1170.93 1039.4C1158.53 1033.67 1148.67 1031.53 1123.73 1029.67C1112.93 1028.87 1102 1027.4 1099.6 1026.33C1097.2 1025.4 1089.47 1023.53 1082.53 1022.33C1073.47 1020.73 1065.33 1018.07 1053.33 1012.73C1027.6 1001.4 1007.33 994.2 984.667 988.467C971.734 985.267 950.534 981.667 943.867 981.667C939.867 981.667 938.8 981.133 938.267 978.733C936.934 973.667 933.067 910.867 933.6 903.133L934 895.933L940.934 894.2C944.8 893.267 952.134 890.333 957.334 887.667C965.334 883.667 966.667 882.467 966.667 879.533C966.667 877.533 962.8 867.933 958 858.067C947.6 836.333 946.134 829.933 948.4 814.067C951.2 793.8 949.334 734.6 944.667 691C942.4 670.2 941.467 666.733 934.934 649.8C930.8 639.133 929.2 636.6 923.334 631.667C919.734 628.6 915.867 625.8 915.067 625.533C914.134 625.267 908.667 619.133 903.067 612.067C863.734 563 864.934 564.333 843.867 551.933C829.067 543.4 821.867 536.067 820.667 528.733C820.134 525.933 819.2 520.867 818.4 517.4C816.134 507.8 817.334 507 834.267 507C849.334 507 855.6 505.267 859.2 500.2C862 496.2 862 486.333 859.067 475.8C857.467 470.2 856.8 462.333 856.8 449.933L856.667 432.067L860.534 428.867C863.867 425.8 864.267 425 863.467 419.8C862.934 416.6 860.534 409.8 858 404.467C854.534 397.267 853.2 392.6 852.667 384.733C851.467 369.267 849.6 362.067 844.134 351C841.334 345.533 838.667 339.267 838.134 337C836.534 330.733 823.334 316.733 814.8 312.333C808.8 309.267 806 306.733 800.534 298.733C781.334 271.133 768.667 256.867 716 203.667C686.267 173.533 658.4 145.133 654.267 140.6C644.8 130.067 639.734 120.2 635.334 103.667C633.467 96.6001 630.534 86.8667 628.8 81.9334C627.067 77.0001 624.534 68.2001 623.334 62.3334C620.534 49.0001 610.667 25.2667 603.6 14.7334C598.4 6.86674 585.867 -3.79993 579.6 -5.79993C578 -6.33326 574.934 -8.06659 572.934 -9.79993C568.134 -13.7999 564.267 -13.7999 558.534 -9.93326ZM677.067 247.133C682.134 254.733 689.467 266.333 693.334 273C697.334 279.533 704.134 290.333 708.4 296.867C714.267 305.533 715.867 309 714.534 309.4C713.467 309.8 707.2 315.4 700.4 321.933C690.4 331.8 688 335 686.8 339.933C685.867 343.267 684.934 345.8 684.667 345.4C684.267 345.133 683.467 338.867 682.667 331.533C679.2 298.867 670.534 266.6 652.534 219.8C650 213.4 648 207.8 648 207.4C648 206.333 667.734 233.267 677.067 247.133Z" fill="black"/>
</g>
<g clip-path="url(#clip4_73_25)">
<path d="M558.534 -9.93326C556 -8.19993 552.4 -3.79993 550.134 0.600072C544.934 11.0001 544.267 21.6667 547.867 43.4001C551.2 63.5334 551.334 66.2001 548.8 68.7334C547.2 70.3334 545.6 70.3334 540.534 69.2667C535.067 67.9334 534.134 68.0667 532.534 70.3334C528.8 75.4001 530.4 81.8001 540.667 103C546.134 114.333 550.667 125 550.667 126.733C550.667 128.6 553.867 133.267 559.467 139.133C577.067 157.933 582.534 178.733 586.667 241.933C588.534 273.133 592.8 288.733 608 321.667C615.867 338.867 617.067 342.467 618.667 354.333C621.467 376.867 622 407.4 620.934 481.533C619.867 545.933 620 554.067 622 565.4C624.8 580.867 633.067 598.2 641.867 607.133C648.4 613.8 652.667 623.133 657.467 641C660.4 652.333 664 659.533 679.2 685C691.467 705.667 700.934 732.467 713.2 781.667C714.667 787.933 717.2 797.4 718.667 802.733C720 808.067 721.867 818.733 722.8 826.467C724.134 838.867 724 841.667 722 848.867C719.334 858.6 716.934 863.267 711.867 869.8C709.067 873.4 708 876.2 708 880.2C708 885.267 707.467 885.933 699.067 892.6C694 896.6 683.867 904.067 676.267 909.4C655.467 924.2 647.734 931.133 638.8 943.133C634.267 949.133 627.467 960.333 623.867 967.933C618.667 978.6 616.267 982.067 613.6 983.133C605.067 986.467 594 988.467 574 990.2C540 993.4 492.4 1004.6 475.334 1013.53C468.8 1016.87 468 1017 443.334 1017C429.467 1017 408.4 1016.6 396.667 1016.2C377.467 1015.4 374.667 1015 368.667 1012.07C347.734 1001.4 327.334 997.133 298 997.133C274.667 997.133 269.867 997.667 216 1006.33C179.734 1012.2 144.667 1016.73 136.4 1016.6C130.267 1016.47 126.4 1013.4 118.934 1002.6C107.6 986.333 102.667 983 90.2669 983C81.4669 983 73.3336 986.733 68.6669 992.867C66.6669 995.4 62.1336 1004.6 58.5336 1013.13C54.8002 1021.8 50.6669 1030.47 49.3336 1032.47C47.8669 1034.47 46.6669 1037 46.6669 1038.2C46.6669 1039.4 44.5336 1042.73 41.8669 1045.53C38.2669 1049.67 34.1336 1052.07 24.4002 1055.8C9.60024 1061.53 3.33357 1066.33 1.0669 1073.93C-0.533097 1079.27 -0.399764 1079.53 4.00024 1083.13C6.40024 1085.13 13.3336 1089.4 19.2002 1092.33C28.6669 1097.13 31.7336 1097.93 43.7336 1099.13C62.2669 1101 74.5336 1099.27 105.334 1090.6L130 1083.67L163.334 1083.8C199.867 1083.93 223.334 1085.93 264 1092.33C288.4 1096.2 326.4 1103.53 327.2 1104.47C327.334 1104.73 329.2 1108.33 331.067 1112.33C333.067 1116.33 337.467 1122.6 340.8 1126.2C350.134 1136.33 354.534 1137 438.667 1142.33C455.867 1143.53 481.734 1145.27 496 1146.33C533.067 1149.27 619.067 1150.47 640 1148.47C659.734 1146.6 686.667 1141.4 694.8 1137.93C713.867 1129.67 739.867 1128.2 757.334 1134.07C774.934 1140.07 777.467 1140.47 810 1141.67C827.6 1142.33 852.534 1143.8 865.334 1145C878.134 1146.07 902.8 1147.67 920 1148.33C937.2 1149 961.2 1150.6 973.334 1151.67C985.467 1152.87 1006.8 1154.33 1020.67 1155C1035.6 1155.67 1057.2 1157.8 1073.33 1160.2C1101.33 1164.33 1119.6 1166.2 1146.8 1167.67C1159.47 1168.47 1163.07 1168.2 1166.4 1166.47C1170 1164.6 1171.47 1164.6 1183.87 1167C1242.53 1178.2 1314.13 1183.67 1426.67 1185.67C1490.93 1186.73 1499.87 1187.53 1524 1193.67C1536.13 1196.73 1550.93 1202.73 1561.2 1208.6C1568 1212.6 1569.6 1213 1580 1213C1586.27 1213 1593.87 1212.2 1596.93 1211.27C1605.47 1208.73 1614.8 1201.67 1619.2 1194.6C1622.93 1188.6 1623.2 1187 1624 1170.47C1624.8 1154.2 1625.07 1152.2 1628.67 1146.2C1630.8 1142.6 1641.6 1130.6 1652.67 1119.67C1684.67 1088.07 1686.93 1084.33 1691.87 1054.6C1695.07 1035.53 1697.47 1027.53 1702 1020.47C1708.4 1010.47 1707.87 999.8 1700.53 991.133C1688.8 977.4 1669.73 983.667 1666.67 1002.2C1665.33 1010.87 1662.4 1016.2 1655.07 1023.27C1646.27 1031.93 1626.4 1045.53 1614 1051.53C1607.47 1054.73 1588.53 1065.27 1572 1075C1534.67 1097 1529.07 1099.53 1511.73 1102.33C1482.53 1107 1453.33 1106.33 1410.67 1100.2C1394.93 1097.93 1339.73 1088.07 1320.67 1084.2C1317.07 1083.4 1307.07 1082.33 1298.67 1081.67C1281.33 1080.2 1270.67 1077.8 1237.73 1068.07C1221.33 1063.27 1214.53 1060.6 1214 1059C1213.2 1056.33 1207.33 1053.4 1192.13 1048.07C1186 1045.93 1176.4 1042.07 1170.93 1039.4C1158.53 1033.67 1148.67 1031.53 1123.73 1029.67C1112.93 1028.87 1102 1027.4 1099.6 1026.33C1097.2 1025.4 1089.47 1023.53 1082.53 1022.33C1073.47 1020.73 1065.33 1018.07 1053.33 1012.73C1027.6 1001.4 1007.33 994.2 984.667 988.467C971.734 985.267 950.534 981.667 943.867 981.667C939.867 981.667 938.8 981.133 938.267 978.733C936.934 973.667 933.067 910.867 933.6 903.133L934 895.933L940.934 894.2C944.8 893.267 952.134 890.333 957.334 887.667C965.334 883.667 966.667 882.467 966.667 879.533C966.667 877.533 962.8 867.933 958 858.067C947.6 836.333 946.134 829.933 948.4 814.067C951.2 793.8 949.334 734.6 944.667 691C942.4 670.2 941.467 666.733 934.934 649.8C930.8 639.133 929.2 636.6 923.334 631.667C919.734 628.6 915.867 625.8 915.067 625.533C914.134 625.267 908.667 619.133 903.067 612.067C863.734 563 864.934 564.333 843.867 551.933C829.067 543.4 821.867 536.067 820.667 528.733C820.134 525.933 819.2 520.867 818.4 517.4C816.134 507.8 817.334 507 834.267 507C849.334 507 855.6 505.267 859.2 500.2C862 496.2 862 486.333 859.067 475.8C857.467 470.2 856.8 462.333 856.8 449.933L856.667 432.067L860.534 428.867C863.867 425.8 864.267 425 863.467 419.8C862.934 416.6 860.534 409.8 858 404.467C854.534 397.267 853.2 392.6 852.667 384.733C851.467 369.267 849.6 362.067 844.134 351C841.334 345.533 838.667 339.267 838.134 337C836.534 330.733 823.334 316.733 814.8 312.333C808.8 309.267 806 306.733 800.534 298.733C781.334 271.133 768.667 256.867 716 203.667C686.267 173.533 658.4 145.133 654.267 140.6C644.8 130.067 639.734 120.2 635.334 103.667C633.467 96.6001 630.534 86.8667 628.8 81.9334C627.067 77.0001 624.534 68.2001 623.334 62.3334C620.534 49.0001 610.667 25.2667 603.6 14.7334C598.4 6.86674 585.867 -3.79993 579.6 -5.79993C578 -6.33326 574.934 -8.06659 572.934 -9.79993C568.134 -13.7999 564.267 -13.7999 558.534 -9.93326ZM677.067 247.133C682.134 254.733 689.467 266.333 693.334 273C697.334 279.533 704.134 290.333 708.4 296.867C714.267 305.533 715.867 309 714.534 309.4C713.467 309.8 707.2 315.4 700.4 321.933C690.4 331.8 688 335 686.8 339.933C685.867 343.267 684.934 345.8 684.667 345.4C684.267 345.133 683.467 338.867 682.667 331.533C679.2 298.867 670.534 266.6 652.534 219.8C650 213.4 648 207.8 648 207.4C648 206.333 667.734 233.267 677.067 247.133Z" fill="black"/>
</g>
<defs>
<clipPath id="clip0_73_25">
<rect width="1708" height="234" fill="white" transform="translate(0 982)"/>
</clipPath>
<clipPath id="clip1_73_25">
<rect width="369" height="466" fill="white" transform="translate(600 516)"/>
</clipPath>
<clipPath id="clip2_73_25">
<rect width="184" height="206" fill="white" transform="translate(683 310)"/>
</clipPath>
<clipPath id="clip3_73_25">
<rect width="124" height="172" fill="white" transform="translate(683 138)"/>
</clipPath>
<clipPath id="clip4_73_25">
<rect width="158" height="516" fill="white" transform="translate(525)"/>
</clipPath>
</defs>
</svg>
