<svg width="1129" height="1707" viewBox="0 0 1129 1707" fill="none" xmlns="http://www.w3.org/2000/svg">
<g clip-path="url(#clip0_64_73)">
<path d="M546.333 0.800171C530.2 2.26684 523 4.1335 517.667 8.40017C513 12.1335 511 12.8002 501.533 13.4668C489.933 14.4002 478.867 18.4002 477.4 22.1335C476.867 23.4668 477.8 26.8002 479.667 30.1335L482.733 36.0002L477.933 41.2002C474.6 44.9335 472.2 49.7335 469.667 58.0002C466.467 68.6668 465.533 70.1335 457.667 77.8668C447.8 87.3335 447.267 89.6002 451.933 99.3335C454.867 105.467 454.867 105.6 452.467 109.734C441 129.067 436.867 137.467 437.667 140C438.2 141.467 440.733 143.734 443.4 145.067L448.2 147.334L447.8 156.134C447.667 160.934 447 167.067 446.333 169.867C445 176 446.6 180.4 451.133 182.534C454.867 184.267 455 184.934 452.2 190.667C449.133 196.534 448.333 205.334 450.2 211.067C451.133 213.734 454.333 218 457.267 220.8L462.733 225.734L482.067 224.8L501.267 223.867L497 231.6C491 242.4 486.733 247.734 481.8 250.8C478.2 253.2 476.2 253.334 467 252.667C454.067 251.6 447.133 249.067 434.2 240.667C413.133 226.934 395.533 218.534 374.2 211.867C354.867 205.734 313.133 208.534 280.2 218.134C276.2 219.334 271.667 219.734 270.067 219.2C268.333 218.667 262.333 214.8 256.467 210.4C237.267 196 226.2 192 205.8 192C198.333 192 188.733 192.934 184.333 194C177.133 195.734 176.2 195.6 174.733 193.734C172.467 190.8 172.467 190.4 175.8 171.467C178.067 158.667 178.333 152.934 177.533 144C176.2 127.734 176.333 117.2 178.333 111.2C180.467 104.8 197.267 74.8002 201.667 69.4668C203.533 67.3335 206.067 65.3335 207.4 65.0668C211.533 63.8668 218.6 67.0668 228.2 74.4002C234.6 79.2002 238.6 81.3335 241.533 81.3335C247.267 81.3335 248.733 82.6668 249.267 88.0002C249.667 92.0002 250.867 93.4668 258.733 98.8002C268.467 105.467 283.8 110.667 293.933 110.667C304.867 110.667 321.133 100.8 325.533 91.6002C327.133 88.0002 327.667 82.0002 327.933 65.2002C328.333 44.9335 328.067 42.9335 325.4 37.8668C321.4 30.2668 319 28.5335 315.133 30.4002C312.2 31.7335 311.533 31.3335 308.2 26.5335C303.267 19.4668 301.533 18.6668 289.933 18.6668C281.667 18.6668 277.8 17.8668 267.533 13.8668C245.133 5.20017 237.533 3.7335 209.933 3.06684C189.133 2.40017 183.4 2.66684 175.267 4.66684C160.6 8.13351 152.6 15.4668 147.533 30.1335C145.267 36.8002 143 39.8668 131.933 50.6668C115.4 66.9335 75.0001 109.467 62.7335 123.334C51.4001 136.267 33.4001 159.867 28.4668 168.267C20.3335 182.134 10.3335 212.134 10.3335 222.8C10.3335 225.6 8.60012 230.8 6.33345 235.067C1.40012 244.4 0.066785 251.867 2.46679 257.467C3.80012 260.8 6.06678 262.534 12.3335 265.467C21.1335 269.334 22.7335 270.934 26.2001 277.734C28.6001 282.4 35.5335 286.667 51.6668 293.467C75.0001 303.067 83.9335 307.734 104.867 320.934C132.467 338.4 154.467 349.2 174.6 355.2C212.2 366.534 238.067 369.067 265.533 364C275.8 362.134 282.867 361.334 283.667 362.134C284.867 363.334 286.333 376.267 289 409.334C291 435.067 300.333 469.467 311 490.667C317.933 504.4 326.733 515.067 350.6 538.934L373 561.2L397.4 610.267C415 645.6 424.333 666.133 430.6 683.333C442.467 715.6 442.333 714.933 435.667 723.867C429.4 732.133 429.267 732.667 428.6 748.667C428.2 760.4 427.933 761.067 419.133 778.533C410.467 795.733 410.067 796.933 407.533 814.533C404.333 835.867 404.467 835.6 396.467 864.267C386.733 899.333 376.333 930.4 363.533 961.867C350.467 994 345.533 1011.87 340.867 1042.67C336.6 1072.13 338.6 1104.93 345.933 1124.67C350.733 1137.47 350.6 1149.47 345.133 1174.93C342.867 1185.73 341 1198.27 341 1202.67C341 1216.93 339.133 1221.2 326.733 1235.6C297.8 1269.07 288.6 1288.67 284.333 1326.67C283 1337.87 285.8 1378 290.467 1416.67C294.2 1447.73 294.6 1453.87 293.933 1475.33C292.733 1511.73 288.333 1533.33 277.533 1555.73C271.667 1568 271.533 1568.13 255.267 1580.93C222.467 1606.93 198.2 1629.73 190.467 1642C181.4 1656.4 184.2 1666.53 202.6 1685.47C217.133 1700.27 227.4 1706 239.667 1705.87C247.267 1705.87 250.333 1704.93 263.667 1698.93C280.333 1691.33 283.933 1688.53 296.333 1672.67C301 1666.8 311 1656 318.6 1648.67C326.6 1640.93 335.933 1630.27 340.733 1623.33C345.4 1616.67 351 1609.07 353.267 1606.27C357.267 1601.6 357.667 1600.27 358.333 1588.93C358.733 1582.13 358.733 1574 358.2 1570.67C357.667 1567.33 356.6 1560 355.8 1554.4C352.733 1534.27 359.133 1507.6 374.333 1477.33C380.867 1464.27 387.4 1454.27 405.133 1430C427.667 1399.07 434.067 1387.47 437 1371.87C437.8 1368.13 438.333 1353.73 438.333 1340C438.333 1318.4 438.733 1312.8 441.8 1297.87C445.8 1278.53 449.533 1269.47 459.933 1254C463.933 1248.13 469.667 1239.73 472.6 1235.2C483.267 1219.6 491.4 1202.53 495.533 1187.2C503.933 1156 511.133 1143.6 541.133 1107.87C553.667 1092.93 566.867 1075.87 570.333 1070C573.933 1064.13 578.2 1057.2 579.8 1054.4C581.533 1051.6 583.4 1049.87 584.467 1050.27C588.2 1051.6 599.667 1092.53 599.667 1104.13C599.667 1114 605.267 1141.33 610.467 1157.07C613 1164.67 614.333 1170.53 613.8 1172.4C606.467 1197.47 604.733 1210 606.467 1224.67C607.533 1233.33 607.533 1238.4 606.467 1242.13C605.667 1245.07 599.8 1256.13 593.533 1266.8C578.733 1291.33 561.4 1329.6 555 1351.47C549.4 1370.53 549.4 1375.6 555 1408.67C561.533 1447.47 561.933 1465.07 556.6 1485.33C551.667 1503.87 538.067 1543.33 527.133 1571.33C517 1596.8 516.067 1602.13 518.067 1621.6C519.667 1636.27 521.8 1641.07 529.133 1646.13C533.533 1649.07 536.067 1649.6 551.8 1650.8C596.467 1653.87 607.8 1656.93 624.467 1670.13C636.733 1679.73 642.333 1682.27 654.333 1683.33C661.8 1684 667 1685.47 675 1689.07C683.8 1693.07 687.133 1694 693.667 1693.87C709.4 1693.6 716.467 1692.13 722.467 1687.6C725.533 1685.2 730.2 1682.13 732.867 1680.67C741.667 1675.73 744.467 1665.33 740.2 1652.8C738.6 1648.27 736.733 1645.6 733.133 1643.33C727.933 1640 705.533 1632.67 695.667 1631.2C690.467 1630.4 688.333 1628.93 680.2 1620.67C674.2 1614.67 665.4 1607.87 656.867 1602.67C634.467 1588.93 615.933 1576.13 612.2 1571.6C609.133 1567.87 608.733 1566.53 609.4 1560C611.667 1534.53 641.8 1474 673.133 1432C691.933 1406.8 701.667 1391.87 704.867 1383.33C710.067 1369.33 715.667 1330 715.667 1306C715.667 1294.27 718.867 1287.33 730.467 1272.67C744.867 1254.53 750.333 1239.33 752.333 1211.33C753.8 1189.6 757.667 1175.6 766.2 1160.93C775 1145.47 785.533 1129.33 798.333 1112C815.267 1088.8 820.867 1076.93 823.8 1058C825.533 1046.67 822.867 987.6 819.533 964C817.267 947.867 817 941.333 817.667 923.333C818.733 899.867 816.733 864.4 813.4 848C810.067 831.333 805.267 817.6 796.067 798.4C789.4 784.4 786.733 776.933 784.333 765.733C781 750 775.8 738 765.8 723.467C758.6 712.933 754.467 702.133 752.867 690.4C751.267 677.733 750.6 675.467 745.4 662.267C738.867 645.6 737.667 636.4 739.533 615.2C740.333 605.6 741.933 594.667 743 591.067C746.733 578.267 765.4 555.2 797.667 523.334C820.067 501.067 827.4 492.4 833.8 480C837.533 472.934 837.667 472.134 837.4 454.267C837.267 443.6 837.667 436 838.333 436C839.133 436 844.6 438 850.6 440.534C872.867 449.6 889.133 453.6 911.667 455.334C924.467 456.4 965.667 453.067 976.333 450.134C991.933 445.867 1020.47 434.4 1029 428.934L1038.2 423.067L1053.93 422.267C1065.8 421.734 1072.47 420.667 1081 418C1095.93 413.2 1114.2 403.734 1122.07 396.667C1127.93 391.334 1128.33 390.534 1128.33 384.534C1128.2 380.934 1127.4 371.334 1126.33 363.334C1125 353.2 1124.47 339.067 1124.73 317.334C1125.27 273.6 1123.67 268 1099.8 230.667C1086.6 210.134 1087.4 211.734 1076.73 183.334C1063.8 149.067 1059.93 137.2 1057.8 124.534C1056.2 115.334 1055 112.134 1052.73 110.4C1048.73 107.467 1037.8 104 1032.2 104C1029.67 104 1025.4 103.067 1022.6 101.867C1003.13 93.6002 989.4 89.2002 985.4 90.0002C982.067 90.5335 979.533 89.8668 975.267 87.3335C971 84.9335 967.533 84.0002 962.6 84.0002C958.867 84.0002 951.533 83.3335 946.333 82.4002C937.4 80.8002 936.867 80.9335 932.733 84.0002C928.867 86.8002 928.067 86.9335 922.733 85.6002C919.533 84.6668 914.867 84.0002 912.467 84.0002C906.067 84.0002 901.8 89.6002 897.533 103.734C895.533 110 892.6 117.467 891 120.134C886.467 127.2 884.733 134.534 886.733 138.134C890.467 144.8 898.733 156.667 900.067 157.2C900.867 157.467 902.867 159.2 904.6 160.8C907.133 163.334 909.267 164 914.2 164C920.067 164 920.6 164.267 922.467 168.267C924.067 172.134 925 172.667 930.333 173.067C934.467 173.334 937.667 172.667 941.4 170.667C945.133 168.534 950.333 167.467 961.4 166.534C970.2 165.734 978.067 164.267 980.467 163.067C984.067 161.2 985.4 161.2 988.733 162.534C993.133 164.4 994.067 166 999 179.2C1004.33 193.6 1003.4 201.867 992.6 237.334C986.733 256.267 982.333 277.467 982.333 286.267C982.333 288.667 982.067 290.667 981.667 290.667C981.267 290.667 976.333 288.4 970.6 285.467C957.667 278.934 941.533 273.6 930.467 272C917.267 270.134 911 272.134 897.4 282.134C891.133 286.8 884.467 291.067 882.867 291.467C879.533 292.267 855.133 286 823.667 276.267C804.467 270.4 804.2 270.267 784.333 270.267C767.133 270.134 762.333 270.667 750.333 273.6C720.6 280.934 708.467 281.334 695 275.334C687.133 271.867 653.667 246.534 651.4 242.267C650.467 240.534 650.2 233.867 650.733 223.467C651.667 201.6 655.4 194.267 671 182.934C683.133 174.267 686.333 170.667 686.333 165.467C686.333 162.4 688.067 158.267 691.667 152.8C698.067 142.8 701.533 130.267 700.6 120.134C700.2 114.667 700.6 111.2 702.467 107.067C706.333 98.5335 704.2 90.1335 694.6 76.0002C690.333 69.7335 686.067 62.0002 685.133 58.6668C682.467 49.7335 675.8 40.4002 664.2 29.3335C650.2 16.1335 633 7.86684 609.667 3.20017C600.467 1.3335 557.933 -0.266495 546.333 0.800171Z" fill="black"/>
</g>
<g clip-path="url(#clip1_64_73)">
<path d="M545.333 0.800171C529.2 2.26684 522 4.1335 516.667 8.40017C512 12.1335 510 12.8002 500.533 13.4668C488.933 14.4002 477.867 18.4002 476.4 22.1335C475.867 23.4668 476.8 26.8002 478.667 30.1335L481.733 36.0002L476.933 41.2002C473.6 44.9335 471.2 49.7335 468.667 58.0002C465.467 68.6668 464.533 70.1335 456.667 77.8668C446.8 87.3335 446.267 89.6002 450.933 99.3335C453.867 105.467 453.867 105.6 451.467 109.734C440 129.067 435.867 137.467 436.667 140C437.2 141.467 439.733 143.734 442.4 145.067L447.2 147.334L446.8 156.134C446.667 160.934 446 167.067 445.333 169.867C444 176 445.6 180.4 450.133 182.534C453.867 184.267 454 184.934 451.2 190.667C448.133 196.534 447.333 205.334 449.2 211.067C450.133 213.734 453.333 218 456.267 220.8L461.733 225.734L481.067 224.8L500.267 223.867L496 231.6C490 242.4 485.733 247.734 480.8 250.8C477.2 253.2 475.2 253.334 466 252.667C453.067 251.6 446.133 249.067 433.2 240.667C412.133 226.934 394.533 218.534 373.2 211.867C353.867 205.734 312.133 208.534 279.2 218.134C275.2 219.334 270.667 219.734 269.067 219.2C267.333 218.667 261.333 214.8 255.467 210.4C236.267 196 225.2 192 204.8 192C197.333 192 187.733 192.934 183.333 194C176.133 195.734 175.2 195.6 173.733 193.734C171.467 190.8 171.467 190.4 174.8 171.467C177.067 158.667 177.333 152.934 176.533 144C175.2 127.734 175.333 117.2 177.333 111.2C179.467 104.8 196.267 74.8002 200.667 69.4668C202.533 67.3335 205.067 65.3335 206.4 65.0668C210.533 63.8668 217.6 67.0668 227.2 74.4002C233.6 79.2002 237.6 81.3335 240.533 81.3335C246.267 81.3335 247.733 82.6668 248.267 88.0002C248.667 92.0002 249.867 93.4668 257.733 98.8002C267.467 105.467 282.8 110.667 292.933 110.667C303.867 110.667 320.133 100.8 324.533 91.6002C326.133 88.0002 326.667 82.0002 326.933 65.2002C327.333 44.9335 327.067 42.9335 324.4 37.8668C320.4 30.2668 318 28.5335 314.133 30.4002C311.2 31.7335 310.533 31.3335 307.2 26.5335C302.267 19.4668 300.533 18.6668 288.933 18.6668C280.667 18.6668 276.8 17.8668 266.533 13.8668C244.133 5.20017 236.533 3.7335 208.933 3.06684C188.133 2.40017 182.4 2.66684 174.267 4.66684C159.6 8.13351 151.6 15.4668 146.533 30.1335C144.267 36.8002 142 39.8668 130.933 50.6668C114.4 66.9335 74.0001 109.467 61.7335 123.334C50.4001 136.267 32.4001 159.867 27.4668 168.267C19.3335 182.134 9.33345 212.134 9.33345 222.8C9.33345 225.6 7.60012 230.8 5.33345 235.067C0.400119 244.4 -0.933215 251.867 1.46679 257.467C2.80012 260.8 5.06678 262.534 11.3335 265.467C20.1335 269.334 21.7335 270.934 25.2001 277.734C27.6001 282.4 34.5335 286.667 50.6668 293.467C74.0001 303.067 82.9335 307.734 103.867 320.934C131.467 338.4 153.467 349.2 173.6 355.2C211.2 366.534 237.067 369.067 264.533 364C274.8 362.134 281.867 361.334 282.667 362.134C283.867 363.334 285.333 376.267 288 409.334C290 435.067 299.333 469.467 310 490.667C316.933 504.4 325.733 515.067 349.6 538.934L372 561.2L396.4 610.267C414 645.6 423.333 666.133 429.6 683.333C441.467 715.6 441.333 714.933 434.667 723.867C428.4 732.133 428.267 732.667 427.6 748.667C427.2 760.4 426.933 761.067 418.133 778.533C409.467 795.733 409.067 796.933 406.533 814.533C403.333 835.867 403.467 835.6 395.467 864.267C385.733 899.333 375.333 930.4 362.533 961.867C349.467 994 344.533 1011.87 339.867 1042.67C335.6 1072.13 337.6 1104.93 344.933 1124.67C349.733 1137.47 349.6 1149.47 344.133 1174.93C341.867 1185.73 340 1198.27 340 1202.67C340 1216.93 338.133 1221.2 325.733 1235.6C296.8 1269.07 287.6 1288.67 283.333 1326.67C282 1337.87 284.8 1378 289.467 1416.67C293.2 1447.73 293.6 1453.87 292.933 1475.33C291.733 1511.73 287.333 1533.33 276.533 1555.73C270.667 1568 270.533 1568.13 254.267 1580.93C221.467 1606.93 197.2 1629.73 189.467 1642C180.4 1656.4 183.2 1666.53 201.6 1685.47C216.133 1700.27 226.4 1706 238.667 1705.87C246.267 1705.87 249.333 1704.93 262.667 1698.93C279.333 1691.33 282.933 1688.53 295.333 1672.67C300 1666.8 310 1656 317.6 1648.67C325.6 1640.93 334.933 1630.27 339.733 1623.33C344.4 1616.67 350 1609.07 352.267 1606.27C356.267 1601.6 356.667 1600.27 357.333 1588.93C357.733 1582.13 357.733 1574 357.2 1570.67C356.667 1567.33 355.6 1560 354.8 1554.4C351.733 1534.27 358.133 1507.6 373.333 1477.33C379.867 1464.27 386.4 1454.27 404.133 1430C426.667 1399.07 433.067 1387.47 436 1371.87C436.8 1368.13 437.333 1353.73 437.333 1340C437.333 1318.4 437.733 1312.8 440.8 1297.87C444.8 1278.53 448.533 1269.47 458.933 1254C462.933 1248.13 468.667 1239.73 471.6 1235.2C482.267 1219.6 490.4 1202.53 494.533 1187.2C502.933 1156 510.133 1143.6 540.133 1107.87C552.667 1092.93 565.867 1075.87 569.333 1070C572.933 1064.13 577.2 1057.2 578.8 1054.4C580.533 1051.6 582.4 1049.87 583.467 1050.27C587.2 1051.6 598.667 1092.53 598.667 1104.13C598.667 1114 604.267 1141.33 609.467 1157.07C612 1164.67 613.333 1170.53 612.8 1172.4C605.467 1197.47 603.733 1210 605.467 1224.67C606.533 1233.33 606.533 1238.4 605.467 1242.13C604.667 1245.07 598.8 1256.13 592.533 1266.8C577.733 1291.33 560.4 1329.6 554 1351.47C548.4 1370.53 548.4 1375.6 554 1408.67C560.533 1447.47 560.933 1465.07 555.6 1485.33C550.667 1503.87 537.067 1543.33 526.133 1571.33C516 1596.8 515.067 1602.13 517.067 1621.6C518.667 1636.27 520.8 1641.07 528.133 1646.13C532.533 1649.07 535.067 1649.6 550.8 1650.8C595.467 1653.87 606.8 1656.93 623.467 1670.13C635.733 1679.73 641.333 1682.27 653.333 1683.33C660.8 1684 666 1685.47 674 1689.07C682.8 1693.07 686.133 1694 692.667 1693.87C708.4 1693.6 715.467 1692.13 721.467 1687.6C724.533 1685.2 729.2 1682.13 731.867 1680.67C740.667 1675.73 743.467 1665.33 739.2 1652.8C737.6 1648.27 735.733 1645.6 732.133 1643.33C726.933 1640 704.533 1632.67 694.667 1631.2C689.467 1630.4 687.333 1628.93 679.2 1620.67C673.2 1614.67 664.4 1607.87 655.867 1602.67C633.467 1588.93 614.933 1576.13 611.2 1571.6C608.133 1567.87 607.733 1566.53 608.4 1560C610.667 1534.53 640.8 1474 672.133 1432C690.933 1406.8 700.667 1391.87 703.867 1383.33C709.067 1369.33 714.667 1330 714.667 1306C714.667 1294.27 717.867 1287.33 729.467 1272.67C743.867 1254.53 749.333 1239.33 751.333 1211.33C752.8 1189.6 756.667 1175.6 765.2 1160.93C774 1145.47 784.533 1129.33 797.333 1112C814.267 1088.8 819.867 1076.93 822.8 1058C824.533 1046.67 821.867 987.6 818.533 964C816.267 947.867 816 941.333 816.667 923.333C817.733 899.867 815.733 864.4 812.4 848C809.067 831.333 804.267 817.6 795.067 798.4C788.4 784.4 785.733 776.933 783.333 765.733C780 750 774.8 738 764.8 723.467C757.6 712.933 753.467 702.133 751.867 690.4C750.267 677.733 749.6 675.467 744.4 662.267C737.867 645.6 736.667 636.4 738.533 615.2C739.333 605.6 740.933 594.667 742 591.067C745.733 578.267 764.4 555.2 796.667 523.334C819.067 501.067 826.4 492.4 832.8 480C836.533 472.934 836.667 472.134 836.4 454.267C836.267 443.6 836.667 436 837.333 436C838.133 436 843.6 438 849.6 440.534C871.867 449.6 888.133 453.6 910.667 455.334C923.467 456.4 964.667 453.067 975.333 450.134C990.933 445.867 1019.47 434.4 1028 428.934L1037.2 423.067L1052.93 422.267C1064.8 421.734 1071.47 420.667 1080 418C1094.93 413.2 1113.2 403.734 1121.07 396.667C1126.93 391.334 1127.33 390.534 1127.33 384.534C1127.2 380.934 1126.4 371.334 1125.33 363.334C1124 353.2 1123.47 339.067 1123.73 317.334C1124.27 273.6 1122.67 268 1098.8 230.667C1085.6 210.134 1086.4 211.734 1075.73 183.334C1062.8 149.067 1058.93 137.2 1056.8 124.534C1055.2 115.334 1054 112.134 1051.73 110.4C1047.73 107.467 1036.8 104 1031.2 104C1028.67 104 1024.4 103.067 1021.6 101.867C1002.13 93.6002 988.4 89.2002 984.4 90.0002C981.067 90.5335 978.533 89.8668 974.267 87.3335C970 84.9335 966.533 84.0002 961.6 84.0002C957.867 84.0002 950.533 83.3335 945.333 82.4002C936.4 80.8002 935.867 80.9335 931.733 84.0002C927.867 86.8002 927.067 86.9335 921.733 85.6002C918.533 84.6668 913.867 84.0002 911.467 84.0002C905.067 84.0002 900.8 89.6002 896.533 103.734C894.533 110 891.6 117.467 890 120.134C885.467 127.2 883.733 134.534 885.733 138.134C889.467 144.8 897.733 156.667 899.067 157.2C899.867 157.467 901.867 159.2 903.6 160.8C906.133 163.334 908.267 164 913.2 164C919.067 164 919.6 164.267 921.467 168.267C923.067 172.134 924 172.667 929.333 173.067C933.467 173.334 936.667 172.667 940.4 170.667C944.133 168.534 949.333 167.467 960.4 166.534C969.2 165.734 977.067 164.267 979.467 163.067C983.067 161.2 984.4 161.2 987.733 162.534C992.133 164.4 993.067 166 998 179.2C1003.33 193.6 1002.4 201.867 991.6 237.334C985.733 256.267 981.333 277.467 981.333 286.267C981.333 288.667 981.067 290.667 980.667 290.667C980.267 290.667 975.333 288.4 969.6 285.467C956.667 278.934 940.533 273.6 929.467 272C916.267 270.134 910 272.134 896.4 282.134C890.133 286.8 883.467 291.067 881.867 291.467C878.533 292.267 854.133 286 822.667 276.267C803.467 270.4 803.2 270.267 783.333 270.267C766.133 270.134 761.333 270.667 749.333 273.6C719.6 280.934 707.467 281.334 694 275.334C686.133 271.867 652.667 246.534 650.4 242.267C649.467 240.534 649.2 233.867 649.733 223.467C650.667 201.6 654.4 194.267 670 182.934C682.133 174.267 685.333 170.667 685.333 165.467C685.333 162.4 687.067 158.267 690.667 152.8C697.067 142.8 700.533 130.267 699.6 120.134C699.2 114.667 699.6 111.2 701.467 107.067C705.333 98.5335 703.2 90.1335 693.6 76.0002C689.333 69.7335 685.067 62.0002 684.133 58.6668C681.467 49.7335 674.8 40.4002 663.2 29.3335C649.2 16.1335 632 7.86684 608.667 3.20017C599.467 1.3335 556.933 -0.266495 545.333 0.800171Z" fill="black"/>
</g>
<g clip-path="url(#clip2_64_73)">
<path d="M545.333 0.800171C529.2 2.26684 522 4.1335 516.667 8.40017C512 12.1335 510 12.8002 500.533 13.4668C488.933 14.4002 477.867 18.4002 476.4 22.1335C475.867 23.4668 476.8 26.8002 478.667 30.1335L481.733 36.0002L476.933 41.2002C473.6 44.9335 471.2 49.7335 468.667 58.0002C465.467 68.6668 464.533 70.1335 456.667 77.8668C446.8 87.3335 446.267 89.6002 450.933 99.3335C453.867 105.467 453.867 105.6 451.467 109.734C440 129.067 435.867 137.467 436.667 140C437.2 141.467 439.733 143.734 442.4 145.067L447.2 147.334L446.8 156.134C446.667 160.934 446 167.067 445.333 169.867C444 176 445.6 180.4 450.133 182.534C453.867 184.267 454 184.934 451.2 190.667C448.133 196.534 447.333 205.334 449.2 211.067C450.133 213.734 453.333 218 456.267 220.8L461.733 225.734L481.067 224.8L500.267 223.867L496 231.6C490 242.4 485.733 247.734 480.8 250.8C477.2 253.2 475.2 253.334 466 252.667C453.067 251.6 446.133 249.067 433.2 240.667C412.133 226.934 394.533 218.534 373.2 211.867C353.867 205.734 312.133 208.534 279.2 218.134C275.2 219.334 270.667 219.734 269.067 219.2C267.333 218.667 261.333 214.8 255.467 210.4C236.267 196 225.2 192 204.8 192C197.333 192 187.733 192.934 183.333 194C176.133 195.734 175.2 195.6 173.733 193.734C171.467 190.8 171.467 190.4 174.8 171.467C177.067 158.667 177.333 152.934 176.533 144C175.2 127.734 175.333 117.2 177.333 111.2C179.467 104.8 196.267 74.8002 200.667 69.4668C202.533 67.3335 205.067 65.3335 206.4 65.0668C210.533 63.8668 217.6 67.0668 227.2 74.4002C233.6 79.2002 237.6 81.3335 240.533 81.3335C246.267 81.3335 247.733 82.6668 248.267 88.0002C248.667 92.0002 249.867 93.4668 257.733 98.8002C267.467 105.467 282.8 110.667 292.933 110.667C303.867 110.667 320.133 100.8 324.533 91.6002C326.133 88.0002 326.667 82.0002 326.933 65.2002C327.333 44.9335 327.067 42.9335 324.4 37.8668C320.4 30.2668 318 28.5335 314.133 30.4002C311.2 31.7335 310.533 31.3335 307.2 26.5335C302.267 19.4668 300.533 18.6668 288.933 18.6668C280.667 18.6668 276.8 17.8668 266.533 13.8668C244.133 5.20017 236.533 3.7335 208.933 3.06684C188.133 2.40017 182.4 2.66684 174.267 4.66684C159.6 8.13351 151.6 15.4668 146.533 30.1335C144.267 36.8002 142 39.8668 130.933 50.6668C114.4 66.9335 74.0001 109.467 61.7335 123.334C50.4001 136.267 32.4001 159.867 27.4668 168.267C19.3335 182.134 9.33345 212.134 9.33345 222.8C9.33345 225.6 7.60012 230.8 5.33345 235.067C0.400119 244.4 -0.933215 251.867 1.46679 257.467C2.80012 260.8 5.06678 262.534 11.3335 265.467C20.1335 269.334 21.7335 270.934 25.2001 277.734C27.6001 282.4 34.5335 286.667 50.6668 293.467C74.0001 303.067 82.9335 307.734 103.867 320.934C131.467 338.4 153.467 349.2 173.6 355.2C211.2 366.534 237.067 369.067 264.533 364C274.8 362.134 281.867 361.334 282.667 362.134C283.867 363.334 285.333 376.267 288 409.334C290 435.067 299.333 469.467 310 490.667C316.933 504.4 325.733 515.067 349.6 538.934L372 561.2L396.4 610.267C414 645.6 423.333 666.133 429.6 683.333C441.467 715.6 441.333 714.933 434.667 723.867C428.4 732.133 428.267 732.667 427.6 748.667C427.2 760.4 426.933 761.067 418.133 778.533C409.467 795.733 409.067 796.933 406.533 814.533C403.333 835.867 403.467 835.6 395.467 864.267C385.733 899.333 375.333 930.4 362.533 961.867C349.467 994 344.533 1011.87 339.867 1042.67C335.6 1072.13 337.6 1104.93 344.933 1124.67C349.733 1137.47 349.6 1149.47 344.133 1174.93C341.867 1185.73 340 1198.27 340 1202.67C340 1216.93 338.133 1221.2 325.733 1235.6C296.8 1269.07 287.6 1288.67 283.333 1326.67C282 1337.87 284.8 1378 289.467 1416.67C293.2 1447.73 293.6 1453.87 292.933 1475.33C291.733 1511.73 287.333 1533.33 276.533 1555.73C270.667 1568 270.533 1568.13 254.267 1580.93C221.467 1606.93 197.2 1629.73 189.467 1642C180.4 1656.4 183.2 1666.53 201.6 1685.47C216.133 1700.27 226.4 1706 238.667 1705.87C246.267 1705.87 249.333 1704.93 262.667 1698.93C279.333 1691.33 282.933 1688.53 295.333 1672.67C300 1666.8 310 1656 317.6 1648.67C325.6 1640.93 334.933 1630.27 339.733 1623.33C344.4 1616.67 350 1609.07 352.267 1606.27C356.267 1601.6 356.667 1600.27 357.333 1588.93C357.733 1582.13 357.733 1574 357.2 1570.67C356.667 1567.33 355.6 1560 354.8 1554.4C351.733 1534.27 358.133 1507.6 373.333 1477.33C379.867 1464.27 386.4 1454.27 404.133 1430C426.667 1399.07 433.067 1387.47 436 1371.87C436.8 1368.13 437.333 1353.73 437.333 1340C437.333 1318.4 437.733 1312.8 440.8 1297.87C444.8 1278.53 448.533 1269.47 458.933 1254C462.933 1248.13 468.667 1239.73 471.6 1235.2C482.267 1219.6 490.4 1202.53 494.533 1187.2C502.933 1156 510.133 1143.6 540.133 1107.87C552.667 1092.93 565.867 1075.87 569.333 1070C572.933 1064.13 577.2 1057.2 578.8 1054.4C580.533 1051.6 582.4 1049.87 583.467 1050.27C587.2 1051.6 598.667 1092.53 598.667 1104.13C598.667 1114 604.267 1141.33 609.467 1157.07C612 1164.67 613.333 1170.53 612.8 1172.4C605.467 1197.47 603.733 1210 605.467 1224.67C606.533 1233.33 606.533 1238.4 605.467 1242.13C604.667 1245.07 598.8 1256.13 592.533 1266.8C577.733 1291.33 560.4 1329.6 554 1351.47C548.4 1370.53 548.4 1375.6 554 1408.67C560.533 1447.47 560.933 1465.07 555.6 1485.33C550.667 1503.87 537.067 1543.33 526.133 1571.33C516 1596.8 515.067 1602.13 517.067 1621.6C518.667 1636.27 520.8 1641.07 528.133 1646.13C532.533 1649.07 535.067 1649.6 550.8 1650.8C595.467 1653.87 606.8 1656.93 623.467 1670.13C635.733 1679.73 641.333 1682.27 653.333 1683.33C660.8 1684 666 1685.47 674 1689.07C682.8 1693.07 686.133 1694 692.667 1693.87C708.4 1693.6 715.467 1692.13 721.467 1687.6C724.533 1685.2 729.2 1682.13 731.867 1680.67C740.667 1675.73 743.467 1665.33 739.2 1652.8C737.6 1648.27 735.733 1645.6 732.133 1643.33C726.933 1640 704.533 1632.67 694.667 1631.2C689.467 1630.4 687.333 1628.93 679.2 1620.67C673.2 1614.67 664.4 1607.87 655.867 1602.67C633.467 1588.93 614.933 1576.13 611.2 1571.6C608.133 1567.87 607.733 1566.53 608.4 1560C610.667 1534.53 640.8 1474 672.133 1432C690.933 1406.8 700.667 1391.87 703.867 1383.33C709.067 1369.33 714.667 1330 714.667 1306C714.667 1294.27 717.867 1287.33 729.467 1272.67C743.867 1254.53 749.333 1239.33 751.333 1211.33C752.8 1189.6 756.667 1175.6 765.2 1160.93C774 1145.47 784.533 1129.33 797.333 1112C814.267 1088.8 819.867 1076.93 822.8 1058C824.533 1046.67 821.867 987.6 818.533 964C816.267 947.867 816 941.333 816.667 923.333C817.733 899.867 815.733 864.4 812.4 848C809.067 831.333 804.267 817.6 795.067 798.4C788.4 784.4 785.733 776.933 783.333 765.733C780 750 774.8 738 764.8 723.467C757.6 712.933 753.467 702.133 751.867 690.4C750.267 677.733 749.6 675.467 744.4 662.267C737.867 645.6 736.667 636.4 738.533 615.2C739.333 605.6 740.933 594.667 742 591.067C745.733 578.267 764.4 555.2 796.667 523.334C819.067 501.067 826.4 492.4 832.8 480C836.533 472.934 836.667 472.134 836.4 454.267C836.267 443.6 836.667 436 837.333 436C838.133 436 843.6 438 849.6 440.534C871.867 449.6 888.133 453.6 910.667 455.334C923.467 456.4 964.667 453.067 975.333 450.134C990.933 445.867 1019.47 434.4 1028 428.934L1037.2 423.067L1052.93 422.267C1064.8 421.734 1071.47 420.667 1080 418C1094.93 413.2 1113.2 403.734 1121.07 396.667C1126.93 391.334 1127.33 390.534 1127.33 384.534C1127.2 380.934 1126.4 371.334 1125.33 363.334C1124 353.2 1123.47 339.067 1123.73 317.334C1124.27 273.6 1122.67 268 1098.8 230.667C1085.6 210.134 1086.4 211.734 1075.73 183.334C1062.8 149.067 1058.93 137.2 1056.8 124.534C1055.2 115.334 1054 112.134 1051.73 110.4C1047.73 107.467 1036.8 104 1031.2 104C1028.67 104 1024.4 103.067 1021.6 101.867C1002.13 93.6002 988.4 89.2002 984.4 90.0002C981.067 90.5335 978.533 89.8668 974.267 87.3335C970 84.9335 966.533 84.0002 961.6 84.0002C957.867 84.0002 950.533 83.3335 945.333 82.4002C936.4 80.8002 935.867 80.9335 931.733 84.0002C927.867 86.8002 927.067 86.9335 921.733 85.6002C918.533 84.6668 913.867 84.0002 911.467 84.0002C905.067 84.0002 900.8 89.6002 896.533 103.734C894.533 110 891.6 117.467 890 120.134C885.467 127.2 883.733 134.534 885.733 138.134C889.467 144.8 897.733 156.667 899.067 157.2C899.867 157.467 901.867 159.2 903.6 160.8C906.133 163.334 908.267 164 913.2 164C919.067 164 919.6 164.267 921.467 168.267C923.067 172.134 924 172.667 929.333 173.067C933.467 173.334 936.667 172.667 940.4 170.667C944.133 168.534 949.333 167.467 960.4 166.534C969.2 165.734 977.067 164.267 979.467 163.067C983.067 161.2 984.4 161.2 987.733 162.534C992.133 164.4 993.067 166 998 179.2C1003.33 193.6 1002.4 201.867 991.6 237.334C985.733 256.267 981.333 277.467 981.333 286.267C981.333 288.667 981.067 290.667 980.667 290.667C980.267 290.667 975.333 288.4 969.6 285.467C956.667 278.934 940.533 273.6 929.467 272C916.267 270.134 910 272.134 896.4 282.134C890.133 286.8 883.467 291.067 881.867 291.467C878.533 292.267 854.133 286 822.667 276.267C803.467 270.4 803.2 270.267 783.333 270.267C766.133 270.134 761.333 270.667 749.333 273.6C719.6 280.934 707.467 281.334 694 275.334C686.133 271.867 652.667 246.534 650.4 242.267C649.467 240.534 649.2 233.867 649.733 223.467C650.667 201.6 654.4 194.267 670 182.934C682.133 174.267 685.333 170.667 685.333 165.467C685.333 162.4 687.067 158.267 690.667 152.8C697.067 142.8 700.533 130.267 699.6 120.134C699.2 114.667 699.6 111.2 701.467 107.067C705.333 98.5335 703.2 90.1335 693.6 76.0002C689.333 69.7335 685.067 62.0002 684.133 58.6668C681.467 49.7335 674.8 40.4002 663.2 29.3335C649.2 16.1335 632 7.86684 608.667 3.20017C599.467 1.3335 556.933 -0.266495 545.333 0.800171Z" fill="black"/>
</g>
<g clip-path="url(#clip3_64_73)">
<path d="M545.333 0.800171C529.2 2.26684 522 4.1335 516.667 8.40017C512 12.1335 510 12.8002 500.533 13.4668C488.933 14.4002 477.867 18.4002 476.4 22.1335C475.867 23.4668 476.8 26.8002 478.667 30.1335L481.733 36.0002L476.933 41.2002C473.6 44.9335 471.2 49.7335 468.667 58.0002C465.467 68.6668 464.533 70.1335 456.667 77.8668C446.8 87.3335 446.267 89.6002 450.933 99.3335C453.867 105.467 453.867 105.6 451.467 109.734C440 129.067 435.867 137.467 436.667 140C437.2 141.467 439.733 143.734 442.4 145.067L447.2 147.334L446.8 156.134C446.667 160.934 446 167.067 445.333 169.867C444 176 445.6 180.4 450.133 182.534C453.867 184.267 454 184.934 451.2 190.667C448.133 196.534 447.333 205.334 449.2 211.067C450.133 213.734 453.333 218 456.267 220.8L461.733 225.734L481.067 224.8L500.267 223.867L496 231.6C490 242.4 485.733 247.734 480.8 250.8C477.2 253.2 475.2 253.334 466 252.667C453.067 251.6 446.133 249.067 433.2 240.667C412.133 226.934 394.533 218.534 373.2 211.867C353.867 205.734 312.133 208.534 279.2 218.134C275.2 219.334 270.667 219.734 269.067 219.2C267.333 218.667 261.333 214.8 255.467 210.4C236.267 196 225.2 192 204.8 192C197.333 192 187.733 192.934 183.333 194C176.133 195.734 175.2 195.6 173.733 193.734C171.467 190.8 171.467 190.4 174.8 171.467C177.067 158.667 177.333 152.934 176.533 144C175.2 127.734 175.333 117.2 177.333 111.2C179.467 104.8 196.267 74.8002 200.667 69.4668C202.533 67.3335 205.067 65.3335 206.4 65.0668C210.533 63.8668 217.6 67.0668 227.2 74.4002C233.6 79.2002 237.6 81.3335 240.533 81.3335C246.267 81.3335 247.733 82.6668 248.267 88.0002C248.667 92.0002 249.867 93.4668 257.733 98.8002C267.467 105.467 282.8 110.667 292.933 110.667C303.867 110.667 320.133 100.8 324.533 91.6002C326.133 88.0002 326.667 82.0002 326.933 65.2002C327.333 44.9335 327.067 42.9335 324.4 37.8668C320.4 30.2668 318 28.5335 314.133 30.4002C311.2 31.7335 310.533 31.3335 307.2 26.5335C302.267 19.4668 300.533 18.6668 288.933 18.6668C280.667 18.6668 276.8 17.8668 266.533 13.8668C244.133 5.20017 236.533 3.7335 208.933 3.06684C188.133 2.40017 182.4 2.66684 174.267 4.66684C159.6 8.13351 151.6 15.4668 146.533 30.1335C144.267 36.8002 142 39.8668 130.933 50.6668C114.4 66.9335 74.0001 109.467 61.7335 123.334C50.4001 136.267 32.4001 159.867 27.4668 168.267C19.3335 182.134 9.33345 212.134 9.33345 222.8C9.33345 225.6 7.60012 230.8 5.33345 235.067C0.400119 244.4 -0.933215 251.867 1.46679 257.467C2.80012 260.8 5.06678 262.534 11.3335 265.467C20.1335 269.334 21.7335 270.934 25.2001 277.734C27.6001 282.4 34.5335 286.667 50.6668 293.467C74.0001 303.067 82.9335 307.734 103.867 320.934C131.467 338.4 153.467 349.2 173.6 355.2C211.2 366.534 237.067 369.067 264.533 364C274.8 362.134 281.867 361.334 282.667 362.134C283.867 363.334 285.333 376.267 288 409.334C290 435.067 299.333 469.467 310 490.667C316.933 504.4 325.733 515.067 349.6 538.934L372 561.2L396.4 610.267C414 645.6 423.333 666.133 429.6 683.333C441.467 715.6 441.333 714.933 434.667 723.867C428.4 732.133 428.267 732.667 427.6 748.667C427.2 760.4 426.933 761.067 418.133 778.533C409.467 795.733 409.067 796.933 406.533 814.533C403.333 835.867 403.467 835.6 395.467 864.267C385.733 899.333 375.333 930.4 362.533 961.867C349.467 994 344.533 1011.87 339.867 1042.67C335.6 1072.13 337.6 1104.93 344.933 1124.67C349.733 1137.47 349.6 1149.47 344.133 1174.93C341.867 1185.73 340 1198.27 340 1202.67C340 1216.93 338.133 1221.2 325.733 1235.6C296.8 1269.07 287.6 1288.67 283.333 1326.67C282 1337.87 284.8 1378 289.467 1416.67C293.2 1447.73 293.6 1453.87 292.933 1475.33C291.733 1511.73 287.333 1533.33 276.533 1555.73C270.667 1568 270.533 1568.13 254.267 1580.93C221.467 1606.93 197.2 1629.73 189.467 1642C180.4 1656.4 183.2 1666.53 201.6 1685.47C216.133 1700.27 226.4 1706 238.667 1705.87C246.267 1705.87 249.333 1704.93 262.667 1698.93C279.333 1691.33 282.933 1688.53 295.333 1672.67C300 1666.8 310 1656 317.6 1648.67C325.6 1640.93 334.933 1630.27 339.733 1623.33C344.4 1616.67 350 1609.07 352.267 1606.27C356.267 1601.6 356.667 1600.27 357.333 1588.93C357.733 1582.13 357.733 1574 357.2 1570.67C356.667 1567.33 355.6 1560 354.8 1554.4C351.733 1534.27 358.133 1507.6 373.333 1477.33C379.867 1464.27 386.4 1454.27 404.133 1430C426.667 1399.07 433.067 1387.47 436 1371.87C436.8 1368.13 437.333 1353.73 437.333 1340C437.333 1318.4 437.733 1312.8 440.8 1297.87C444.8 1278.53 448.533 1269.47 458.933 1254C462.933 1248.13 468.667 1239.73 471.6 1235.2C482.267 1219.6 490.4 1202.53 494.533 1187.2C502.933 1156 510.133 1143.6 540.133 1107.87C552.667 1092.93 565.867 1075.87 569.333 1070C572.933 1064.13 577.2 1057.2 578.8 1054.4C580.533 1051.6 582.4 1049.87 583.467 1050.27C587.2 1051.6 598.667 1092.53 598.667 1104.13C598.667 1114 604.267 1141.33 609.467 1157.07C612 1164.67 613.333 1170.53 612.8 1172.4C605.467 1197.47 603.733 1210 605.467 1224.67C606.533 1233.33 606.533 1238.4 605.467 1242.13C604.667 1245.07 598.8 1256.13 592.533 1266.8C577.733 1291.33 560.4 1329.6 554 1351.47C548.4 1370.53 548.4 1375.6 554 1408.67C560.533 1447.47 560.933 1465.07 555.6 1485.33C550.667 1503.87 537.067 1543.33 526.133 1571.33C516 1596.8 515.067 1602.13 517.067 1621.6C518.667 1636.27 520.8 1641.07 528.133 1646.13C532.533 1649.07 535.067 1649.6 550.8 1650.8C595.467 1653.87 606.8 1656.93 623.467 1670.13C635.733 1679.73 641.333 1682.27 653.333 1683.33C660.8 1684 666 1685.47 674 1689.07C682.8 1693.07 686.133 1694 692.667 1693.87C708.4 1693.6 715.467 1692.13 721.467 1687.6C724.533 1685.2 729.2 1682.13 731.867 1680.67C740.667 1675.73 743.467 1665.33 739.2 1652.8C737.6 1648.27 735.733 1645.6 732.133 1643.33C726.933 1640 704.533 1632.67 694.667 1631.2C689.467 1630.4 687.333 1628.93 679.2 1620.67C673.2 1614.67 664.4 1607.87 655.867 1602.67C633.467 1588.93 614.933 1576.13 611.2 1571.6C608.133 1567.87 607.733 1566.53 608.4 1560C610.667 1534.53 640.8 1474 672.133 1432C690.933 1406.8 700.667 1391.87 703.867 1383.33C709.067 1369.33 714.667 1330 714.667 1306C714.667 1294.27 717.867 1287.33 729.467 1272.67C743.867 1254.53 749.333 1239.33 751.333 1211.33C752.8 1189.6 756.667 1175.6 765.2 1160.93C774 1145.47 784.533 1129.33 797.333 1112C814.267 1088.8 819.867 1076.93 822.8 1058C824.533 1046.67 821.867 987.6 818.533 964C816.267 947.867 816 941.333 816.667 923.333C817.733 899.867 815.733 864.4 812.4 848C809.067 831.333 804.267 817.6 795.067 798.4C788.4 784.4 785.733 776.933 783.333 765.733C780 750 774.8 738 764.8 723.467C757.6 712.933 753.467 702.133 751.867 690.4C750.267 677.733 749.6 675.467 744.4 662.267C737.867 645.6 736.667 636.4 738.533 615.2C739.333 605.6 740.933 594.667 742 591.067C745.733 578.267 764.4 555.2 796.667 523.334C819.067 501.067 826.4 492.4 832.8 480C836.533 472.934 836.667 472.134 836.4 454.267C836.267 443.6 836.667 436 837.333 436C838.133 436 843.6 438 849.6 440.534C871.867 449.6 888.133 453.6 910.667 455.334C923.467 456.4 964.667 453.067 975.333 450.134C990.933 445.867 1019.47 434.4 1028 428.934L1037.2 423.067L1052.93 422.267C1064.8 421.734 1071.47 420.667 1080 418C1094.93 413.2 1113.2 403.734 1121.07 396.667C1126.93 391.334 1127.33 390.534 1127.33 384.534C1127.2 380.934 1126.4 371.334 1125.33 363.334C1124 353.2 1123.47 339.067 1123.73 317.334C1124.27 273.6 1122.67 268 1098.8 230.667C1085.6 210.134 1086.4 211.734 1075.73 183.334C1062.8 149.067 1058.93 137.2 1056.8 124.534C1055.2 115.334 1054 112.134 1051.73 110.4C1047.73 107.467 1036.8 104 1031.2 104C1028.67 104 1024.4 103.067 1021.6 101.867C1002.13 93.6002 988.4 89.2002 984.4 90.0002C981.067 90.5335 978.533 89.8668 974.267 87.3335C970 84.9335 966.533 84.0002 961.6 84.0002C957.867 84.0002 950.533 83.3335 945.333 82.4002C936.4 80.8002 935.867 80.9335 931.733 84.0002C927.867 86.8002 927.067 86.9335 921.733 85.6002C918.533 84.6668 913.867 84.0002 911.467 84.0002C905.067 84.0002 900.8 89.6002 896.533 103.734C894.533 110 891.6 117.467 890 120.134C885.467 127.2 883.733 134.534 885.733 138.134C889.467 144.8 897.733 156.667 899.067 157.2C899.867 157.467 901.867 159.2 903.6 160.8C906.133 163.334 908.267 164 913.2 164C919.067 164 919.6 164.267 921.467 168.267C923.067 172.134 924 172.667 929.333 173.067C933.467 173.334 936.667 172.667 940.4 170.667C944.133 168.534 949.333 167.467 960.4 166.534C969.2 165.734 977.067 164.267 979.467 163.067C983.067 161.2 984.4 161.2 987.733 162.534C992.133 164.4 993.067 166 998 179.2C1003.33 193.6 1002.4 201.867 991.6 237.334C985.733 256.267 981.333 277.467 981.333 286.267C981.333 288.667 981.067 290.667 980.667 290.667C980.267 290.667 975.333 288.4 969.6 285.467C956.667 278.934 940.533 273.6 929.467 272C916.267 270.134 910 272.134 896.4 282.134C890.133 286.8 883.467 291.067 881.867 291.467C878.533 292.267 854.133 286 822.667 276.267C803.467 270.4 803.2 270.267 783.333 270.267C766.133 270.134 761.333 270.667 749.333 273.6C719.6 280.934 707.467 281.334 694 275.334C686.133 271.867 652.667 246.534 650.4 242.267C649.467 240.534 649.2 233.867 649.733 223.467C650.667 201.6 654.4 194.267 670 182.934C682.133 174.267 685.333 170.667 685.333 165.467C685.333 162.4 687.067 158.267 690.667 152.8C697.067 142.8 700.533 130.267 699.6 120.134C699.2 114.667 699.6 111.2 701.467 107.067C705.333 98.5335 703.2 90.1335 693.6 76.0002C689.333 69.7335 685.067 62.0002 684.133 58.6668C681.467 49.7335 674.8 40.4002 663.2 29.3335C649.2 16.1335 632 7.86684 608.667 3.20017C599.467 1.3335 556.933 -0.266495 545.333 0.800171Z" fill="black"/>
</g>
<g clip-path="url(#clip4_64_73)">
<path d="M545.333 0.800171C529.2 2.26684 522 4.1335 516.667 8.40017C512 12.1335 510 12.8002 500.533 13.4668C488.933 14.4002 477.867 18.4002 476.4 22.1335C475.867 23.4668 476.8 26.8002 478.667 30.1335L481.733 36.0002L476.933 41.2002C473.6 44.9335 471.2 49.7335 468.667 58.0002C465.467 68.6668 464.533 70.1335 456.667 77.8668C446.8 87.3335 446.267 89.6002 450.933 99.3335C453.867 105.467 453.867 105.6 451.467 109.734C440 129.067 435.867 137.467 436.667 140C437.2 141.467 439.733 143.734 442.4 145.067L447.2 147.334L446.8 156.134C446.667 160.934 446 167.067 445.333 169.867C444 176 445.6 180.4 450.133 182.534C453.867 184.267 454 184.934 451.2 190.667C448.133 196.534 447.333 205.334 449.2 211.067C450.133 213.734 453.333 218 456.267 220.8L461.733 225.734L481.067 224.8L500.267 223.867L496 231.6C490 242.4 485.733 247.734 480.8 250.8C477.2 253.2 475.2 253.334 466 252.667C453.067 251.6 446.133 249.067 433.2 240.667C412.133 226.934 394.533 218.534 373.2 211.867C353.867 205.734 312.133 208.534 279.2 218.134C275.2 219.334 270.667 219.734 269.067 219.2C267.333 218.667 261.333 214.8 255.467 210.4C236.267 196 225.2 192 204.8 192C197.333 192 187.733 192.934 183.333 194C176.133 195.734 175.2 195.6 173.733 193.734C171.467 190.8 171.467 190.4 174.8 171.467C177.067 158.667 177.333 152.934 176.533 144C175.2 127.734 175.333 117.2 177.333 111.2C179.467 104.8 196.267 74.8002 200.667 69.4668C202.533 67.3335 205.067 65.3335 206.4 65.0668C210.533 63.8668 217.6 67.0668 227.2 74.4002C233.6 79.2002 237.6 81.3335 240.533 81.3335C246.267 81.3335 247.733 82.6668 248.267 88.0002C248.667 92.0002 249.867 93.4668 257.733 98.8002C267.467 105.467 282.8 110.667 292.933 110.667C303.867 110.667 320.133 100.8 324.533 91.6002C326.133 88.0002 326.667 82.0002 326.933 65.2002C327.333 44.9335 327.067 42.9335 324.4 37.8668C320.4 30.2668 318 28.5335 314.133 30.4002C311.2 31.7335 310.533 31.3335 307.2 26.5335C302.267 19.4668 300.533 18.6668 288.933 18.6668C280.667 18.6668 276.8 17.8668 266.533 13.8668C244.133 5.20017 236.533 3.7335 208.933 3.06684C188.133 2.40017 182.4 2.66684 174.267 4.66684C159.6 8.13351 151.6 15.4668 146.533 30.1335C144.267 36.8002 142 39.8668 130.933 50.6668C114.4 66.9335 74.0001 109.467 61.7335 123.334C50.4001 136.267 32.4001 159.867 27.4668 168.267C19.3335 182.134 9.33345 212.134 9.33345 222.8C9.33345 225.6 7.60012 230.8 5.33345 235.067C0.400119 244.4 -0.933215 251.867 1.46679 257.467C2.80012 260.8 5.06678 262.534 11.3335 265.467C20.1335 269.334 21.7335 270.934 25.2001 277.734C27.6001 282.4 34.5335 286.667 50.6668 293.467C74.0001 303.067 82.9335 307.734 103.867 320.934C131.467 338.4 153.467 349.2 173.6 355.2C211.2 366.534 237.067 369.067 264.533 364C274.8 362.134 281.867 361.334 282.667 362.134C283.867 363.334 285.333 376.267 288 409.334C290 435.067 299.333 469.467 310 490.667C316.933 504.4 325.733 515.067 349.6 538.934L372 561.2L396.4 610.267C414 645.6 423.333 666.133 429.6 683.333C441.467 715.6 441.333 714.933 434.667 723.867C428.4 732.133 428.267 732.667 427.6 748.667C427.2 760.4 426.933 761.067 418.133 778.533C409.467 795.733 409.067 796.933 406.533 814.533C403.333 835.867 403.467 835.6 395.467 864.267C385.733 899.333 375.333 930.4 362.533 961.867C349.467 994 344.533 1011.87 339.867 1042.67C335.6 1072.13 337.6 1104.93 344.933 1124.67C349.733 1137.47 349.6 1149.47 344.133 1174.93C341.867 1185.73 340 1198.27 340 1202.67C340 1216.93 338.133 1221.2 325.733 1235.6C296.8 1269.07 287.6 1288.67 283.333 1326.67C282 1337.87 284.8 1378 289.467 1416.67C293.2 1447.73 293.6 1453.87 292.933 1475.33C291.733 1511.73 287.333 1533.33 276.533 1555.73C270.667 1568 270.533 1568.13 254.267 1580.93C221.467 1606.93 197.2 1629.73 189.467 1642C180.4 1656.4 183.2 1666.53 201.6 1685.47C216.133 1700.27 226.4 1706 238.667 1705.87C246.267 1705.87 249.333 1704.93 262.667 1698.93C279.333 1691.33 282.933 1688.53 295.333 1672.67C300 1666.8 310 1656 317.6 1648.67C325.6 1640.93 334.933 1630.27 339.733 1623.33C344.4 1616.67 350 1609.07 352.267 1606.27C356.267 1601.6 356.667 1600.27 357.333 1588.93C357.733 1582.13 357.733 1574 357.2 1570.67C356.667 1567.33 355.6 1560 354.8 1554.4C351.733 1534.27 358.133 1507.6 373.333 1477.33C379.867 1464.27 386.4 1454.27 404.133 1430C426.667 1399.07 433.067 1387.47 436 1371.87C436.8 1368.13 437.333 1353.73 437.333 1340C437.333 1318.4 437.733 1312.8 440.8 1297.87C444.8 1278.53 448.533 1269.47 458.933 1254C462.933 1248.13 468.667 1239.73 471.6 1235.2C482.267 1219.6 490.4 1202.53 494.533 1187.2C502.933 1156 510.133 1143.6 540.133 1107.87C552.667 1092.93 565.867 1075.87 569.333 1070C572.933 1064.13 577.2 1057.2 578.8 1054.4C580.533 1051.6 582.4 1049.87 583.467 1050.27C587.2 1051.6 598.667 1092.53 598.667 1104.13C598.667 1114 604.267 1141.33 609.467 1157.07C612 1164.67 613.333 1170.53 612.8 1172.4C605.467 1197.47 603.733 1210 605.467 1224.67C606.533 1233.33 606.533 1238.4 605.467 1242.13C604.667 1245.07 598.8 1256.13 592.533 1266.8C577.733 1291.33 560.4 1329.6 554 1351.47C548.4 1370.53 548.4 1375.6 554 1408.67C560.533 1447.47 560.933 1465.07 555.6 1485.33C550.667 1503.87 537.067 1543.33 526.133 1571.33C516 1596.8 515.067 1602.13 517.067 1621.6C518.667 1636.27 520.8 1641.07 528.133 1646.13C532.533 1649.07 535.067 1649.6 550.8 1650.8C595.467 1653.87 606.8 1656.93 623.467 1670.13C635.733 1679.73 641.333 1682.27 653.333 1683.33C660.8 1684 666 1685.47 674 1689.07C682.8 1693.07 686.133 1694 692.667 1693.87C708.4 1693.6 715.467 1692.13 721.467 1687.6C724.533 1685.2 729.2 1682.13 731.867 1680.67C740.667 1675.73 743.467 1665.33 739.2 1652.8C737.6 1648.27 735.733 1645.6 732.133 1643.33C726.933 1640 704.533 1632.67 694.667 1631.2C689.467 1630.4 687.333 1628.93 679.2 1620.67C673.2 1614.67 664.4 1607.87 655.867 1602.67C633.467 1588.93 614.933 1576.13 611.2 1571.6C608.133 1567.87 607.733 1566.53 608.4 1560C610.667 1534.53 640.8 1474 672.133 1432C690.933 1406.8 700.667 1391.87 703.867 1383.33C709.067 1369.33 714.667 1330 714.667 1306C714.667 1294.27 717.867 1287.33 729.467 1272.67C743.867 1254.53 749.333 1239.33 751.333 1211.33C752.8 1189.6 756.667 1175.6 765.2 1160.93C774 1145.47 784.533 1129.33 797.333 1112C814.267 1088.8 819.867 1076.93 822.8 1058C824.533 1046.67 821.867 987.6 818.533 964C816.267 947.867 816 941.333 816.667 923.333C817.733 899.867 815.733 864.4 812.4 848C809.067 831.333 804.267 817.6 795.067 798.4C788.4 784.4 785.733 776.933 783.333 765.733C780 750 774.8 738 764.8 723.467C757.6 712.933 753.467 702.133 751.867 690.4C750.267 677.733 749.6 675.467 744.4 662.267C737.867 645.6 736.667 636.4 738.533 615.2C739.333 605.6 740.933 594.667 742 591.067C745.733 578.267 764.4 555.2 796.667 523.334C819.067 501.067 826.4 492.4 832.8 480C836.533 472.934 836.667 472.134 836.4 454.267C836.267 443.6 836.667 436 837.333 436C838.133 436 843.6 438 849.6 440.534C871.867 449.6 888.133 453.6 910.667 455.334C923.467 456.4 964.667 453.067 975.333 450.134C990.933 445.867 1019.47 434.4 1028 428.934L1037.2 423.067L1052.93 422.267C1064.8 421.734 1071.47 420.667 1080 418C1094.93 413.2 1113.2 403.734 1121.07 396.667C1126.93 391.334 1127.33 390.534 1127.33 384.534C1127.2 380.934 1126.4 371.334 1125.33 363.334C1124 353.2 1123.47 339.067 1123.73 317.334C1124.27 273.6 1122.67 268 1098.8 230.667C1085.6 210.134 1086.4 211.734 1075.73 183.334C1062.8 149.067 1058.93 137.2 1056.8 124.534C1055.2 115.334 1054 112.134 1051.73 110.4C1047.73 107.467 1036.8 104 1031.2 104C1028.67 104 1024.4 103.067 1021.6 101.867C1002.13 93.6002 988.4 89.2002 984.4 90.0002C981.067 90.5335 978.533 89.8668 974.267 87.3335C970 84.9335 966.533 84.0002 961.6 84.0002C957.867 84.0002 950.533 83.3335 945.333 82.4002C936.4 80.8002 935.867 80.9335 931.733 84.0002C927.867 86.8002 927.067 86.9335 921.733 85.6002C918.533 84.6668 913.867 84.0002 911.467 84.0002C905.067 84.0002 900.8 89.6002 896.533 103.734C894.533 110 891.6 117.467 890 120.134C885.467 127.2 883.733 134.534 885.733 138.134C889.467 144.8 897.733 156.667 899.067 157.2C899.867 157.467 901.867 159.2 903.6 160.8C906.133 163.334 908.267 164 913.2 164C919.067 164 919.6 164.267 921.467 168.267C923.067 172.134 924 172.667 929.333 173.067C933.467 173.334 936.667 172.667 940.4 170.667C944.133 168.534 949.333 167.467 960.4 166.534C969.2 165.734 977.067 164.267 979.467 163.067C983.067 161.2 984.4 161.2 987.733 162.534C992.133 164.4 993.067 166 998 179.2C1003.33 193.6 1002.4 201.867 991.6 237.334C985.733 256.267 981.333 277.467 981.333 286.267C981.333 288.667 981.067 290.667 980.667 290.667C980.267 290.667 975.333 288.4 969.6 285.467C956.667 278.934 940.533 273.6 929.467 272C916.267 270.134 910 272.134 896.4 282.134C890.133 286.8 883.467 291.067 881.867 291.467C878.533 292.267 854.133 286 822.667 276.267C803.467 270.4 803.2 270.267 783.333 270.267C766.133 270.134 761.333 270.667 749.333 273.6C719.6 280.934 707.467 281.334 694 275.334C686.133 271.867 652.667 246.534 650.4 242.267C649.467 240.534 649.2 233.867 649.733 223.467C650.667 201.6 654.4 194.267 670 182.934C682.133 174.267 685.333 170.667 685.333 165.467C685.333 162.4 687.067 158.267 690.667 152.8C697.067 142.8 700.533 130.267 699.6 120.134C699.2 114.667 699.6 111.2 701.467 107.067C705.333 98.5335 703.2 90.1335 693.6 76.0002C689.333 69.7335 685.067 62.0002 684.133 58.6668C681.467 49.7335 674.8 40.4002 663.2 29.3335C649.2 16.1335 632 7.86684 608.667 3.20017C599.467 1.3335 556.933 -0.266495 545.333 0.800171Z" fill="black"/>
</g>
<g clip-path="url(#clip5_64_73)">
<path d="M545.333 0.800171C529.2 2.26684 522 4.1335 516.667 8.40017C512 12.1335 510 12.8002 500.533 13.4668C488.933 14.4002 477.867 18.4002 476.4 22.1335C475.867 23.4668 476.8 26.8002 478.667 30.1335L481.733 36.0002L476.933 41.2002C473.6 44.9335 471.2 49.7335 468.667 58.0002C465.467 68.6668 464.533 70.1335 456.667 77.8668C446.8 87.3335 446.267 89.6002 450.933 99.3335C453.867 105.467 453.867 105.6 451.467 109.734C440 129.067 435.867 137.467 436.667 140C437.2 141.467 439.733 143.734 442.4 145.067L447.2 147.334L446.8 156.134C446.667 160.934 446 167.067 445.333 169.867C444 176 445.6 180.4 450.133 182.534C453.867 184.267 454 184.934 451.2 190.667C448.133 196.534 447.333 205.334 449.2 211.067C450.133 213.734 453.333 218 456.267 220.8L461.733 225.734L481.067 224.8L500.267 223.867L496 231.6C490 242.4 485.733 247.734 480.8 250.8C477.2 253.2 475.2 253.334 466 252.667C453.067 251.6 446.133 249.067 433.2 240.667C412.133 226.934 394.533 218.534 373.2 211.867C353.867 205.734 312.133 208.534 279.2 218.134C275.2 219.334 270.667 219.734 269.067 219.2C267.333 218.667 261.333 214.8 255.467 210.4C236.267 196 225.2 192 204.8 192C197.333 192 187.733 192.934 183.333 194C176.133 195.734 175.2 195.6 173.733 193.734C171.467 190.8 171.467 190.4 174.8 171.467C177.067 158.667 177.333 152.934 176.533 144C175.2 127.734 175.333 117.2 177.333 111.2C179.467 104.8 196.267 74.8002 200.667 69.4668C202.533 67.3335 205.067 65.3335 206.4 65.0668C210.533 63.8668 217.6 67.0668 227.2 74.4002C233.6 79.2002 237.6 81.3335 240.533 81.3335C246.267 81.3335 247.733 82.6668 248.267 88.0002C248.667 92.0002 249.867 93.4668 257.733 98.8002C267.467 105.467 282.8 110.667 292.933 110.667C303.867 110.667 320.133 100.8 324.533 91.6002C326.133 88.0002 326.667 82.0002 326.933 65.2002C327.333 44.9335 327.067 42.9335 324.4 37.8668C320.4 30.2668 318 28.5335 314.133 30.4002C311.2 31.7335 310.533 31.3335 307.2 26.5335C302.267 19.4668 300.533 18.6668 288.933 18.6668C280.667 18.6668 276.8 17.8668 266.533 13.8668C244.133 5.20017 236.533 3.7335 208.933 3.06684C188.133 2.40017 182.4 2.66684 174.267 4.66684C159.6 8.13351 151.6 15.4668 146.533 30.1335C144.267 36.8002 142 39.8668 130.933 50.6668C114.4 66.9335 74.0001 109.467 61.7335 123.334C50.4001 136.267 32.4001 159.867 27.4668 168.267C19.3335 182.134 9.33345 212.134 9.33345 222.8C9.33345 225.6 7.60012 230.8 5.33345 235.067C0.400119 244.4 -0.933215 251.867 1.46679 257.467C2.80012 260.8 5.06678 262.534 11.3335 265.467C20.1335 269.334 21.7335 270.934 25.2001 277.734C27.6001 282.4 34.5335 286.667 50.6668 293.467C74.0001 303.067 82.9335 307.734 103.867 320.934C131.467 338.4 153.467 349.2 173.6 355.2C211.2 366.534 237.067 369.067 264.533 364C274.8 362.134 281.867 361.334 282.667 362.134C283.867 363.334 285.333 376.267 288 409.334C290 435.067 299.333 469.467 310 490.667C316.933 504.4 325.733 515.067 349.6 538.934L372 561.2L396.4 610.267C414 645.6 423.333 666.133 429.6 683.333C441.467 715.6 441.333 714.933 434.667 723.867C428.4 732.133 428.267 732.667 427.6 748.667C427.2 760.4 426.933 761.067 418.133 778.533C409.467 795.733 409.067 796.933 406.533 814.533C403.333 835.867 403.467 835.6 395.467 864.267C385.733 899.333 375.333 930.4 362.533 961.867C349.467 994 344.533 1011.87 339.867 1042.67C335.6 1072.13 337.6 1104.93 344.933 1124.67C349.733 1137.47 349.6 1149.47 344.133 1174.93C341.867 1185.73 340 1198.27 340 1202.67C340 1216.93 338.133 1221.2 325.733 1235.6C296.8 1269.07 287.6 1288.67 283.333 1326.67C282 1337.87 284.8 1378 289.467 1416.67C293.2 1447.73 293.6 1453.87 292.933 1475.33C291.733 1511.73 287.333 1533.33 276.533 1555.73C270.667 1568 270.533 1568.13 254.267 1580.93C221.467 1606.93 197.2 1629.73 189.467 1642C180.4 1656.4 183.2 1666.53 201.6 1685.47C216.133 1700.27 226.4 1706 238.667 1705.87C246.267 1705.87 249.333 1704.93 262.667 1698.93C279.333 1691.33 282.933 1688.53 295.333 1672.67C300 1666.8 310 1656 317.6 1648.67C325.6 1640.93 334.933 1630.27 339.733 1623.33C344.4 1616.67 350 1609.07 352.267 1606.27C356.267 1601.6 356.667 1600.27 357.333 1588.93C357.733 1582.13 357.733 1574 357.2 1570.67C356.667 1567.33 355.6 1560 354.8 1554.4C351.733 1534.27 358.133 1507.6 373.333 1477.33C379.867 1464.27 386.4 1454.27 404.133 1430C426.667 1399.07 433.067 1387.47 436 1371.87C436.8 1368.13 437.333 1353.73 437.333 1340C437.333 1318.4 437.733 1312.8 440.8 1297.87C444.8 1278.53 448.533 1269.47 458.933 1254C462.933 1248.13 468.667 1239.73 471.6 1235.2C482.267 1219.6 490.4 1202.53 494.533 1187.2C502.933 1156 510.133 1143.6 540.133 1107.87C552.667 1092.93 565.867 1075.87 569.333 1070C572.933 1064.13 577.2 1057.2 578.8 1054.4C580.533 1051.6 582.4 1049.87 583.467 1050.27C587.2 1051.6 598.667 1092.53 598.667 1104.13C598.667 1114 604.267 1141.33 609.467 1157.07C612 1164.67 613.333 1170.53 612.8 1172.4C605.467 1197.47 603.733 1210 605.467 1224.67C606.533 1233.33 606.533 1238.4 605.467 1242.13C604.667 1245.07 598.8 1256.13 592.533 1266.8C577.733 1291.33 560.4 1329.6 554 1351.47C548.4 1370.53 548.4 1375.6 554 1408.67C560.533 1447.47 560.933 1465.07 555.6 1485.33C550.667 1503.87 537.067 1543.33 526.133 1571.33C516 1596.8 515.067 1602.13 517.067 1621.6C518.667 1636.27 520.8 1641.07 528.133 1646.13C532.533 1649.07 535.067 1649.6 550.8 1650.8C595.467 1653.87 606.8 1656.93 623.467 1670.13C635.733 1679.73 641.333 1682.27 653.333 1683.33C660.8 1684 666 1685.47 674 1689.07C682.8 1693.07 686.133 1694 692.667 1693.87C708.4 1693.6 715.467 1692.13 721.467 1687.6C724.533 1685.2 729.2 1682.13 731.867 1680.67C740.667 1675.73 743.467 1665.33 739.2 1652.8C737.6 1648.27 735.733 1645.6 732.133 1643.33C726.933 1640 704.533 1632.67 694.667 1631.2C689.467 1630.4 687.333 1628.93 679.2 1620.67C673.2 1614.67 664.4 1607.87 655.867 1602.67C633.467 1588.93 614.933 1576.13 611.2 1571.6C608.133 1567.87 607.733 1566.53 608.4 1560C610.667 1534.53 640.8 1474 672.133 1432C690.933 1406.8 700.667 1391.87 703.867 1383.33C709.067 1369.33 714.667 1330 714.667 1306C714.667 1294.27 717.867 1287.33 729.467 1272.67C743.867 1254.53 749.333 1239.33 751.333 1211.33C752.8 1189.6 756.667 1175.6 765.2 1160.93C774 1145.47 784.533 1129.33 797.333 1112C814.267 1088.8 819.867 1076.93 822.8 1058C824.533 1046.67 821.867 987.6 818.533 964C816.267 947.867 816 941.333 816.667 923.333C817.733 899.867 815.733 864.4 812.4 848C809.067 831.333 804.267 817.6 795.067 798.4C788.4 784.4 785.733 776.933 783.333 765.733C780 750 774.8 738 764.8 723.467C757.6 712.933 753.467 702.133 751.867 690.4C750.267 677.733 749.6 675.467 744.4 662.267C737.867 645.6 736.667 636.4 738.533 615.2C739.333 605.6 740.933 594.667 742 591.067C745.733 578.267 764.4 555.2 796.667 523.334C819.067 501.067 826.4 492.4 832.8 480C836.533 472.934 836.667 472.134 836.4 454.267C836.267 443.6 836.667 436 837.333 436C838.133 436 843.6 438 849.6 440.534C871.867 449.6 888.133 453.6 910.667 455.334C923.467 456.4 964.667 453.067 975.333 450.134C990.933 445.867 1019.47 434.4 1028 428.934L1037.2 423.067L1052.93 422.267C1064.8 421.734 1071.47 420.667 1080 418C1094.93 413.2 1113.2 403.734 1121.07 396.667C1126.93 391.334 1127.33 390.534 1127.33 384.534C1127.2 380.934 1126.4 371.334 1125.33 363.334C1124 353.2 1123.47 339.067 1123.73 317.334C1124.27 273.6 1122.67 268 1098.8 230.667C1085.6 210.134 1086.4 211.734 1075.73 183.334C1062.8 149.067 1058.93 137.2 1056.8 124.534C1055.2 115.334 1054 112.134 1051.73 110.4C1047.73 107.467 1036.8 104 1031.2 104C1028.67 104 1024.4 103.067 1021.6 101.867C1002.13 93.6002 988.4 89.2002 984.4 90.0002C981.067 90.5335 978.533 89.8668 974.267 87.3335C970 84.9335 966.533 84.0002 961.6 84.0002C957.867 84.0002 950.533 83.3335 945.333 82.4002C936.4 80.8002 935.867 80.9335 931.733 84.0002C927.867 86.8002 927.067 86.9335 921.733 85.6002C918.533 84.6668 913.867 84.0002 911.467 84.0002C905.067 84.0002 900.8 89.6002 896.533 103.734C894.533 110 891.6 117.467 890 120.134C885.467 127.2 883.733 134.534 885.733 138.134C889.467 144.8 897.733 156.667 899.067 157.2C899.867 157.467 901.867 159.2 903.6 160.8C906.133 163.334 908.267 164 913.2 164C919.067 164 919.6 164.267 921.467 168.267C923.067 172.134 924 172.667 929.333 173.067C933.467 173.334 936.667 172.667 940.4 170.667C944.133 168.534 949.333 167.467 960.4 166.534C969.2 165.734 977.067 164.267 979.467 163.067C983.067 161.2 984.4 161.2 987.733 162.534C992.133 164.4 993.067 166 998 179.2C1003.33 193.6 1002.4 201.867 991.6 237.334C985.733 256.267 981.333 277.467 981.333 286.267C981.333 288.667 981.067 290.667 980.667 290.667C980.267 290.667 975.333 288.4 969.6 285.467C956.667 278.934 940.533 273.6 929.467 272C916.267 270.134 910 272.134 896.4 282.134C890.133 286.8 883.467 291.067 881.867 291.467C878.533 292.267 854.133 286 822.667 276.267C803.467 270.4 803.2 270.267 783.333 270.267C766.133 270.134 761.333 270.667 749.333 273.6C719.6 280.934 707.467 281.334 694 275.334C686.133 271.867 652.667 246.534 650.4 242.267C649.467 240.534 649.2 233.867 649.733 223.467C650.667 201.6 654.4 194.267 670 182.934C682.133 174.267 685.333 170.667 685.333 165.467C685.333 162.4 687.067 158.267 690.667 152.8C697.067 142.8 700.533 130.267 699.6 120.134C699.2 114.667 699.6 111.2 701.467 107.067C705.333 98.5335 703.2 90.1335 693.6 76.0002C689.333 69.7335 685.067 62.0002 684.133 58.6668C681.467 49.7335 674.8 40.4002 663.2 29.3335C649.2 16.1335 632 7.86684 608.667 3.20017C599.467 1.3335 556.933 -0.266495 545.333 0.800171Z" fill="black"/>
</g>
<g clip-path="url(#clip6_64_73)">
<path d="M546.333 0.800171C530.2 2.26684 523 4.1335 517.667 8.40017C513 12.1335 511 12.8002 501.533 13.4668C489.933 14.4002 478.867 18.4002 477.4 22.1335C476.867 23.4668 477.8 26.8002 479.667 30.1335L482.733 36.0002L477.933 41.2002C474.6 44.9335 472.2 49.7335 469.667 58.0002C466.467 68.6668 465.533 70.1335 457.667 77.8668C447.8 87.3335 447.267 89.6002 451.933 99.3335C454.867 105.467 454.867 105.6 452.467 109.734C441 129.067 436.867 137.467 437.667 140C438.2 141.467 440.733 143.734 443.4 145.067L448.2 147.334L447.8 156.134C447.667 160.934 447 167.067 446.333 169.867C445 176 446.6 180.4 451.133 182.534C454.867 184.267 455 184.934 452.2 190.667C449.133 196.534 448.333 205.334 450.2 211.067C451.133 213.734 454.333 218 457.267 220.8L462.733 225.734L482.067 224.8L501.267 223.867L497 231.6C491 242.4 486.733 247.734 481.8 250.8C478.2 253.2 476.2 253.334 467 252.667C454.067 251.6 447.133 249.067 434.2 240.667C413.133 226.934 395.533 218.534 374.2 211.867C354.867 205.734 313.133 208.534 280.2 218.134C276.2 219.334 271.667 219.734 270.067 219.2C268.333 218.667 262.333 214.8 256.467 210.4C237.267 196 226.2 192 205.8 192C198.333 192 188.733 192.934 184.333 194C177.133 195.734 176.2 195.6 174.733 193.734C172.467 190.8 172.467 190.4 175.8 171.467C178.067 158.667 178.333 152.934 177.533 144C176.2 127.734 176.333 117.2 178.333 111.2C180.467 104.8 197.267 74.8002 201.667 69.4668C203.533 67.3335 206.067 65.3335 207.4 65.0668C211.533 63.8668 218.6 67.0668 228.2 74.4002C234.6 79.2002 238.6 81.3335 241.533 81.3335C247.267 81.3335 248.733 82.6668 249.267 88.0002C249.667 92.0002 250.867 93.4668 258.733 98.8002C268.467 105.467 283.8 110.667 293.933 110.667C304.867 110.667 321.133 100.8 325.533 91.6002C327.133 88.0002 327.667 82.0002 327.933 65.2002C328.333 44.9335 328.067 42.9335 325.4 37.8668C321.4 30.2668 319 28.5335 315.133 30.4002C312.2 31.7335 311.533 31.3335 308.2 26.5335C303.267 19.4668 301.533 18.6668 289.933 18.6668C281.667 18.6668 277.8 17.8668 267.533 13.8668C245.133 5.20017 237.533 3.7335 209.933 3.06684C189.133 2.40017 183.4 2.66684 175.267 4.66684C160.6 8.13351 152.6 15.4668 147.533 30.1335C145.267 36.8002 143 39.8668 131.933 50.6668C115.4 66.9335 75.0001 109.467 62.7335 123.334C51.4001 136.267 33.4001 159.867 28.4668 168.267C20.3335 182.134 10.3335 212.134 10.3335 222.8C10.3335 225.6 8.60012 230.8 6.33345 235.067C1.40012 244.4 0.066785 251.867 2.46679 257.467C3.80012 260.8 6.06678 262.534 12.3335 265.467C21.1335 269.334 22.7335 270.934 26.2001 277.734C28.6001 282.4 35.5335 286.667 51.6668 293.467C75.0001 303.067 83.9335 307.734 104.867 320.934C132.467 338.4 154.467 349.2 174.6 355.2C212.2 366.534 238.067 369.067 265.533 364C275.8 362.134 282.867 361.334 283.667 362.134C284.867 363.334 286.333 376.267 289 409.334C291 435.067 300.333 469.467 311 490.667C317.933 504.4 326.733 515.067 350.6 538.934L373 561.2L397.4 610.267C415 645.6 424.333 666.133 430.6 683.333C442.467 715.6 442.333 714.933 435.667 723.867C429.4 732.133 429.267 732.667 428.6 748.667C428.2 760.4 427.933 761.067 419.133 778.533C410.467 795.733 410.067 796.933 407.533 814.533C404.333 835.867 404.467 835.6 396.467 864.267C386.733 899.333 376.333 930.4 363.533 961.867C350.467 994 345.533 1011.87 340.867 1042.67C336.6 1072.13 338.6 1104.93 345.933 1124.67C350.733 1137.47 350.6 1149.47 345.133 1174.93C342.867 1185.73 341 1198.27 341 1202.67C341 1216.93 339.133 1221.2 326.733 1235.6C297.8 1269.07 288.6 1288.67 284.333 1326.67C283 1337.87 285.8 1378 290.467 1416.67C294.2 1447.73 294.6 1453.87 293.933 1475.33C292.733 1511.73 288.333 1533.33 277.533 1555.73C271.667 1568 271.533 1568.13 255.267 1580.93C222.467 1606.93 198.2 1629.73 190.467 1642C181.4 1656.4 184.2 1666.53 202.6 1685.47C217.133 1700.27 227.4 1706 239.667 1705.87C247.267 1705.87 250.333 1704.93 263.667 1698.93C280.333 1691.33 283.933 1688.53 296.333 1672.67C301 1666.8 311 1656 318.6 1648.67C326.6 1640.93 335.933 1630.27 340.733 1623.33C345.4 1616.67 351 1609.07 353.267 1606.27C357.267 1601.6 357.667 1600.27 358.333 1588.93C358.733 1582.13 358.733 1574 358.2 1570.67C357.667 1567.33 356.6 1560 355.8 1554.4C352.733 1534.27 359.133 1507.6 374.333 1477.33C380.867 1464.27 387.4 1454.27 405.133 1430C427.667 1399.07 434.067 1387.47 437 1371.87C437.8 1368.13 438.333 1353.73 438.333 1340C438.333 1318.4 438.733 1312.8 441.8 1297.87C445.8 1278.53 449.533 1269.47 459.933 1254C463.933 1248.13 469.667 1239.73 472.6 1235.2C483.267 1219.6 491.4 1202.53 495.533 1187.2C503.933 1156 511.133 1143.6 541.133 1107.87C553.667 1092.93 566.867 1075.87 570.333 1070C573.933 1064.13 578.2 1057.2 579.8 1054.4C581.533 1051.6 583.4 1049.87 584.467 1050.27C588.2 1051.6 599.667 1092.53 599.667 1104.13C599.667 1114 605.267 1141.33 610.467 1157.07C613 1164.67 614.333 1170.53 613.8 1172.4C606.467 1197.47 604.733 1210 606.467 1224.67C607.533 1233.33 607.533 1238.4 606.467 1242.13C605.667 1245.07 599.8 1256.13 593.533 1266.8C578.733 1291.33 561.4 1329.6 555 1351.47C549.4 1370.53 549.4 1375.6 555 1408.67C561.533 1447.47 561.933 1465.07 556.6 1485.33C551.667 1503.87 538.067 1543.33 527.133 1571.33C517 1596.8 516.067 1602.13 518.067 1621.6C519.667 1636.27 521.8 1641.07 529.133 1646.13C533.533 1649.07 536.067 1649.6 551.8 1650.8C596.467 1653.87 607.8 1656.93 624.467 1670.13C636.733 1679.73 642.333 1682.27 654.333 1683.33C661.8 1684 667 1685.47 675 1689.07C683.8 1693.07 687.133 1694 693.667 1693.87C709.4 1693.6 716.467 1692.13 722.467 1687.6C725.533 1685.2 730.2 1682.13 732.867 1680.67C741.667 1675.73 744.467 1665.33 740.2 1652.8C738.6 1648.27 736.733 1645.6 733.133 1643.33C727.933 1640 705.533 1632.67 695.667 1631.2C690.467 1630.4 688.333 1628.93 680.2 1620.67C674.2 1614.67 665.4 1607.87 656.867 1602.67C634.467 1588.93 615.933 1576.13 612.2 1571.6C609.133 1567.87 608.733 1566.53 609.4 1560C611.667 1534.53 641.8 1474 673.133 1432C691.933 1406.8 701.667 1391.87 704.867 1383.33C710.067 1369.33 715.667 1330 715.667 1306C715.667 1294.27 718.867 1287.33 730.467 1272.67C744.867 1254.53 750.333 1239.33 752.333 1211.33C753.8 1189.6 757.667 1175.6 766.2 1160.93C775 1145.47 785.533 1129.33 798.333 1112C815.267 1088.8 820.867 1076.93 823.8 1058C825.533 1046.67 822.867 987.6 819.533 964C817.267 947.867 817 941.333 817.667 923.333C818.733 899.867 816.733 864.4 813.4 848C810.067 831.333 805.267 817.6 796.067 798.4C789.4 784.4 786.733 776.933 784.333 765.733C781 750 775.8 738 765.8 723.467C758.6 712.933 754.467 702.133 752.867 690.4C751.267 677.733 750.6 675.467 745.4 662.267C738.867 645.6 737.667 636.4 739.533 615.2C740.333 605.6 741.933 594.667 743 591.067C746.733 578.267 765.4 555.2 797.667 523.334C820.067 501.067 827.4 492.4 833.8 480C837.533 472.934 837.667 472.134 837.4 454.267C837.267 443.6 837.667 436 838.333 436C839.133 436 844.6 438 850.6 440.534C872.867 449.6 889.133 453.6 911.667 455.334C924.467 456.4 965.667 453.067 976.333 450.134C991.933 445.867 1020.47 434.4 1029 428.934L1038.2 423.067L1053.93 422.267C1065.8 421.734 1072.47 420.667 1081 418C1095.93 413.2 1114.2 403.734 1122.07 396.667C1127.93 391.334 1128.33 390.534 1128.33 384.534C1128.2 380.934 1127.4 371.334 1126.33 363.334C1125 353.2 1124.47 339.067 1124.73 317.334C1125.27 273.6 1123.67 268 1099.8 230.667C1086.6 210.134 1087.4 211.734 1076.73 183.334C1063.8 149.067 1059.93 137.2 1057.8 124.534C1056.2 115.334 1055 112.134 1052.73 110.4C1048.73 107.467 1037.8 104 1032.2 104C1029.67 104 1025.4 103.067 1022.6 101.867C1003.13 93.6002 989.4 89.2002 985.4 90.0002C982.067 90.5335 979.533 89.8668 975.267 87.3335C971 84.9335 967.533 84.0002 962.6 84.0002C958.867 84.0002 951.533 83.3335 946.333 82.4002C937.4 80.8002 936.867 80.9335 932.733 84.0002C928.867 86.8002 928.067 86.9335 922.733 85.6002C919.533 84.6668 914.867 84.0002 912.467 84.0002C906.067 84.0002 901.8 89.6002 897.533 103.734C895.533 110 892.6 117.467 891 120.134C886.467 127.2 884.733 134.534 886.733 138.134C890.467 144.8 898.733 156.667 900.067 157.2C900.867 157.467 902.867 159.2 904.6 160.8C907.133 163.334 909.267 164 914.2 164C920.067 164 920.6 164.267 922.467 168.267C924.067 172.134 925 172.667 930.333 173.067C934.467 173.334 937.667 172.667 941.4 170.667C945.133 168.534 950.333 167.467 961.4 166.534C970.2 165.734 978.067 164.267 980.467 163.067C984.067 161.2 985.4 161.2 988.733 162.534C993.133 164.4 994.067 166 999 179.2C1004.33 193.6 1003.4 201.867 992.6 237.334C986.733 256.267 982.333 277.467 982.333 286.267C982.333 288.667 982.067 290.667 981.667 290.667C981.267 290.667 976.333 288.4 970.6 285.467C957.667 278.934 941.533 273.6 930.467 272C917.267 270.134 911 272.134 897.4 282.134C891.133 286.8 884.467 291.067 882.867 291.467C879.533 292.267 855.133 286 823.667 276.267C804.467 270.4 804.2 270.267 784.333 270.267C767.133 270.134 762.333 270.667 750.333 273.6C720.6 280.934 708.467 281.334 695 275.334C687.133 271.867 653.667 246.534 651.4 242.267C650.467 240.534 650.2 233.867 650.733 223.467C651.667 201.6 655.4 194.267 671 182.934C683.133 174.267 686.333 170.667 686.333 165.467C686.333 162.4 688.067 158.267 691.667 152.8C698.067 142.8 701.533 130.267 700.6 120.134C700.2 114.667 700.6 111.2 702.467 107.067C706.333 98.5335 704.2 90.1335 694.6 76.0002C690.333 69.7335 686.067 62.0002 685.133 58.6668C682.467 49.7335 675.8 40.4002 664.2 29.3335C650.2 16.1335 633 7.86684 609.667 3.20017C600.467 1.3335 557.933 -0.266495 546.333 0.800171Z" fill="black"/>
</g>
<g clip-path="url(#clip7_64_73)">
<path d="M545.333 0.800171C529.2 2.26684 522 4.1335 516.667 8.40017C512 12.1335 510 12.8002 500.533 13.4668C488.933 14.4002 477.867 18.4002 476.4 22.1335C475.867 23.4668 476.8 26.8002 478.667 30.1335L481.733 36.0002L476.933 41.2002C473.6 44.9335 471.2 49.7335 468.667 58.0002C465.467 68.6668 464.533 70.1335 456.667 77.8668C446.8 87.3335 446.267 89.6002 450.933 99.3335C453.867 105.467 453.867 105.6 451.467 109.734C440 129.067 435.867 137.467 436.667 140C437.2 141.467 439.733 143.734 442.4 145.067L447.2 147.334L446.8 156.134C446.667 160.934 446 167.067 445.333 169.867C444 176 445.6 180.4 450.133 182.534C453.867 184.267 454 184.934 451.2 190.667C448.133 196.534 447.333 205.334 449.2 211.067C450.133 213.734 453.333 218 456.267 220.8L461.733 225.734L481.067 224.8L500.267 223.867L496 231.6C490 242.4 485.733 247.734 480.8 250.8C477.2 253.2 475.2 253.334 466 252.667C453.067 251.6 446.133 249.067 433.2 240.667C412.133 226.934 394.533 218.534 373.2 211.867C353.867 205.734 312.133 208.534 279.2 218.134C275.2 219.334 270.667 219.734 269.067 219.2C267.333 218.667 261.333 214.8 255.467 210.4C236.267 196 225.2 192 204.8 192C197.333 192 187.733 192.934 183.333 194C176.133 195.734 175.2 195.6 173.733 193.734C171.467 190.8 171.467 190.4 174.8 171.467C177.067 158.667 177.333 152.934 176.533 144C175.2 127.734 175.333 117.2 177.333 111.2C179.467 104.8 196.267 74.8002 200.667 69.4668C202.533 67.3335 205.067 65.3335 206.4 65.0668C210.533 63.8668 217.6 67.0668 227.2 74.4002C233.6 79.2002 237.6 81.3335 240.533 81.3335C246.267 81.3335 247.733 82.6668 248.267 88.0002C248.667 92.0002 249.867 93.4668 257.733 98.8002C267.467 105.467 282.8 110.667 292.933 110.667C303.867 110.667 320.133 100.8 324.533 91.6002C326.133 88.0002 326.667 82.0002 326.933 65.2002C327.333 44.9335 327.067 42.9335 324.4 37.8668C320.4 30.2668 318 28.5335 314.133 30.4002C311.2 31.7335 310.533 31.3335 307.2 26.5335C302.267 19.4668 300.533 18.6668 288.933 18.6668C280.667 18.6668 276.8 17.8668 266.533 13.8668C244.133 5.20017 236.533 3.7335 208.933 3.06684C188.133 2.40017 182.4 2.66684 174.267 4.66684C159.6 8.13351 151.6 15.4668 146.533 30.1335C144.267 36.8002 142 39.8668 130.933 50.6668C114.4 66.9335 74.0001 109.467 61.7335 123.334C50.4001 136.267 32.4001 159.867 27.4668 168.267C19.3335 182.134 9.33345 212.134 9.33345 222.8C9.33345 225.6 7.60012 230.8 5.33345 235.067C0.400119 244.4 -0.933215 251.867 1.46679 257.467C2.80012 260.8 5.06678 262.534 11.3335 265.467C20.1335 269.334 21.7335 270.934 25.2001 277.734C27.6001 282.4 34.5335 286.667 50.6668 293.467C74.0001 303.067 82.9335 307.734 103.867 320.934C131.467 338.4 153.467 349.2 173.6 355.2C211.2 366.534 237.067 369.067 264.533 364C274.8 362.134 281.867 361.334 282.667 362.134C283.867 363.334 285.333 376.267 288 409.334C290 435.067 299.333 469.467 310 490.667C316.933 504.4 325.733 515.067 349.6 538.934L372 561.2L396.4 610.267C414 645.6 423.333 666.133 429.6 683.333C441.467 715.6 441.333 714.933 434.667 723.867C428.4 732.133 428.267 732.667 427.6 748.667C427.2 760.4 426.933 761.067 418.133 778.533C409.467 795.733 409.067 796.933 406.533 814.533C403.333 835.867 403.467 835.6 395.467 864.267C385.733 899.333 375.333 930.4 362.533 961.867C349.467 994 344.533 1011.87 339.867 1042.67C335.6 1072.13 337.6 1104.93 344.933 1124.67C349.733 1137.47 349.6 1149.47 344.133 1174.93C341.867 1185.73 340 1198.27 340 1202.67C340 1216.93 338.133 1221.2 325.733 1235.6C296.8 1269.07 287.6 1288.67 283.333 1326.67C282 1337.87 284.8 1378 289.467 1416.67C293.2 1447.73 293.6 1453.87 292.933 1475.33C291.733 1511.73 287.333 1533.33 276.533 1555.73C270.667 1568 270.533 1568.13 254.267 1580.93C221.467 1606.93 197.2 1629.73 189.467 1642C180.4 1656.4 183.2 1666.53 201.6 1685.47C216.133 1700.27 226.4 1706 238.667 1705.87C246.267 1705.87 249.333 1704.93 262.667 1698.93C279.333 1691.33 282.933 1688.53 295.333 1672.67C300 1666.8 310 1656 317.6 1648.67C325.6 1640.93 334.933 1630.27 339.733 1623.33C344.4 1616.67 350 1609.07 352.267 1606.27C356.267 1601.6 356.667 1600.27 357.333 1588.93C357.733 1582.13 357.733 1574 357.2 1570.67C356.667 1567.33 355.6 1560 354.8 1554.4C351.733 1534.27 358.133 1507.6 373.333 1477.33C379.867 1464.27 386.4 1454.27 404.133 1430C426.667 1399.07 433.067 1387.47 436 1371.87C436.8 1368.13 437.333 1353.73 437.333 1340C437.333 1318.4 437.733 1312.8 440.8 1297.87C444.8 1278.53 448.533 1269.47 458.933 1254C462.933 1248.13 468.667 1239.73 471.6 1235.2C482.267 1219.6 490.4 1202.53 494.533 1187.2C502.933 1156 510.133 1143.6 540.133 1107.87C552.667 1092.93 565.867 1075.87 569.333 1070C572.933 1064.13 577.2 1057.2 578.8 1054.4C580.533 1051.6 582.4 1049.87 583.467 1050.27C587.2 1051.6 598.667 1092.53 598.667 1104.13C598.667 1114 604.267 1141.33 609.467 1157.07C612 1164.67 613.333 1170.53 612.8 1172.4C605.467 1197.47 603.733 1210 605.467 1224.67C606.533 1233.33 606.533 1238.4 605.467 1242.13C604.667 1245.07 598.8 1256.13 592.533 1266.8C577.733 1291.33 560.4 1329.6 554 1351.47C548.4 1370.53 548.4 1375.6 554 1408.67C560.533 1447.47 560.933 1465.07 555.6 1485.33C550.667 1503.87 537.067 1543.33 526.133 1571.33C516 1596.8 515.067 1602.13 517.067 1621.6C518.667 1636.27 520.8 1641.07 528.133 1646.13C532.533 1649.07 535.067 1649.6 550.8 1650.8C595.467 1653.87 606.8 1656.93 623.467 1670.13C635.733 1679.73 641.333 1682.27 653.333 1683.33C660.8 1684 666 1685.47 674 1689.07C682.8 1693.07 686.133 1694 692.667 1693.87C708.4 1693.6 715.467 1692.13 721.467 1687.6C724.533 1685.2 729.2 1682.13 731.867 1680.67C740.667 1675.73 743.467 1665.33 739.2 1652.8C737.6 1648.27 735.733 1645.6 732.133 1643.33C726.933 1640 704.533 1632.67 694.667 1631.2C689.467 1630.4 687.333 1628.93 679.2 1620.67C673.2 1614.67 664.4 1607.87 655.867 1602.67C633.467 1588.93 614.933 1576.13 611.2 1571.6C608.133 1567.87 607.733 1566.53 608.4 1560C610.667 1534.53 640.8 1474 672.133 1432C690.933 1406.8 700.667 1391.87 703.867 1383.33C709.067 1369.33 714.667 1330 714.667 1306C714.667 1294.27 717.867 1287.33 729.467 1272.67C743.867 1254.53 749.333 1239.33 751.333 1211.33C752.8 1189.6 756.667 1175.6 765.2 1160.93C774 1145.47 784.533 1129.33 797.333 1112C814.267 1088.8 819.867 1076.93 822.8 1058C824.533 1046.67 821.867 987.6 818.533 964C816.267 947.867 816 941.333 816.667 923.333C817.733 899.867 815.733 864.4 812.4 848C809.067 831.333 804.267 817.6 795.067 798.4C788.4 784.4 785.733 776.933 783.333 765.733C780 750 774.8 738 764.8 723.467C757.6 712.933 753.467 702.133 751.867 690.4C750.267 677.733 749.6 675.467 744.4 662.267C737.867 645.6 736.667 636.4 738.533 615.2C739.333 605.6 740.933 594.667 742 591.067C745.733 578.267 764.4 555.2 796.667 523.334C819.067 501.067 826.4 492.4 832.8 480C836.533 472.934 836.667 472.134 836.4 454.267C836.267 443.6 836.667 436 837.333 436C838.133 436 843.6 438 849.6 440.534C871.867 449.6 888.133 453.6 910.667 455.334C923.467 456.4 964.667 453.067 975.333 450.134C990.933 445.867 1019.47 434.4 1028 428.934L1037.2 423.067L1052.93 422.267C1064.8 421.734 1071.47 420.667 1080 418C1094.93 413.2 1113.2 403.734 1121.07 396.667C1126.93 391.334 1127.33 390.534 1127.33 384.534C1127.2 380.934 1126.4 371.334 1125.33 363.334C1124 353.2 1123.47 339.067 1123.73 317.334C1124.27 273.6 1122.67 268 1098.8 230.667C1085.6 210.134 1086.4 211.734 1075.73 183.334C1062.8 149.067 1058.93 137.2 1056.8 124.534C1055.2 115.334 1054 112.134 1051.73 110.4C1047.73 107.467 1036.8 104 1031.2 104C1028.67 104 1024.4 103.067 1021.6 101.867C1002.13 93.6002 988.4 89.2002 984.4 90.0002C981.067 90.5335 978.533 89.8668 974.267 87.3335C970 84.9335 966.533 84.0002 961.6 84.0002C957.867 84.0002 950.533 83.3335 945.333 82.4002C936.4 80.8002 935.867 80.9335 931.733 84.0002C927.867 86.8002 927.067 86.9335 921.733 85.6002C918.533 84.6668 913.867 84.0002 911.467 84.0002C905.067 84.0002 900.8 89.6002 896.533 103.734C894.533 110 891.6 117.467 890 120.134C885.467 127.2 883.733 134.534 885.733 138.134C889.467 144.8 897.733 156.667 899.067 157.2C899.867 157.467 901.867 159.2 903.6 160.8C906.133 163.334 908.267 164 913.2 164C919.067 164 919.6 164.267 921.467 168.267C923.067 172.134 924 172.667 929.333 173.067C933.467 173.334 936.667 172.667 940.4 170.667C944.133 168.534 949.333 167.467 960.4 166.534C969.2 165.734 977.067 164.267 979.467 163.067C983.067 161.2 984.4 161.2 987.733 162.534C992.133 164.4 993.067 166 998 179.2C1003.33 193.6 1002.4 201.867 991.6 237.334C985.733 256.267 981.333 277.467 981.333 286.267C981.333 288.667 981.067 290.667 980.667 290.667C980.267 290.667 975.333 288.4 969.6 285.467C956.667 278.934 940.533 273.6 929.467 272C916.267 270.134 910 272.134 896.4 282.134C890.133 286.8 883.467 291.067 881.867 291.467C878.533 292.267 854.133 286 822.667 276.267C803.467 270.4 803.2 270.267 783.333 270.267C766.133 270.134 761.333 270.667 749.333 273.6C719.6 280.934 707.467 281.334 694 275.334C686.133 271.867 652.667 246.534 650.4 242.267C649.467 240.534 649.2 233.867 649.733 223.467C650.667 201.6 654.4 194.267 670 182.934C682.133 174.267 685.333 170.667 685.333 165.467C685.333 162.4 687.067 158.267 690.667 152.8C697.067 142.8 700.533 130.267 699.6 120.134C699.2 114.667 699.6 111.2 701.467 107.067C705.333 98.5335 703.2 90.1335 693.6 76.0002C689.333 69.7335 685.067 62.0002 684.133 58.6668C681.467 49.7335 674.8 40.4002 663.2 29.3335C649.2 16.1335 632 7.86684 608.667 3.20017C599.467 1.3335 556.933 -0.266495 545.333 0.800171Z" fill="black"/>
</g>
<defs>
<clipPath id="clip0_64_73">
<rect width="1083" height="886" fill="white" transform="translate(46 821)"/>
</clipPath>
<clipPath id="clip1_64_73">
<rect width="151" height="617" fill="white" transform="translate(285 204)"/>
</clipPath>
<clipPath id="clip2_64_73">
<rect width="254" height="581" fill="white" transform="translate(436 240)"/>
</clipPath>
<clipPath id="clip3_64_73">
<rect width="152" height="556" fill="white" transform="translate(690 265)"/>
</clipPath>
<clipPath id="clip4_64_73">
<rect width="335" height="204" fill="white"/>
</clipPath>
<clipPath id="clip5_64_73">
<rect width="285" height="247" fill="white" transform="translate(0 132)"/>
</clipPath>
<clipPath id="clip6_64_73">
<rect width="287" height="394" fill="white" transform="translate(842 60)"/>
</clipPath>
<clipPath id="clip7_64_73">
<rect width="280" height="240" fill="white" transform="translate(436)"/>
</clipPath>
</defs>
</svg>
