<svg width="1659" height="1707" viewBox="0 0 1659 1707" fill="none" xmlns="http://www.w3.org/2000/svg">
<g clip-path="url(#clip0_66_99)">
<path d="M808 3.86593C790 7.46593 789.867 7.46593 777.333 16.2659C770.267 21.0659 763.6 26.1326 762.4 27.5993C761.2 28.9326 757.733 38.6659 754.667 49.3326C751.733 59.9993 748.933 69.7326 748.533 71.0659C748.133 72.2659 746.267 75.1993 744.4 77.3326L741.067 81.4659L743.867 99.7326C745.867 112.266 748.267 121.333 751.2 128.666C753.6 134.533 758.533 148.933 762.133 160.666C767.6 178.666 769.733 183.733 776 193.333L783.333 204.666L782.667 221.866L782 239.199L761.467 247.733C743.733 255.199 737.6 256.933 714.8 261.599L688.667 266.799L673.467 264.533C654.8 261.733 641.867 262.399 601.333 267.733C550 274.666 539.467 275.733 488 279.999L438 283.999L400 278.933C364.933 274.133 361.2 273.866 352.667 275.333C347.467 276.266 313.067 282.533 276 289.333L208.667 301.733L158 301.466C130.133 301.333 98.6667 301.866 88 302.533C70.5334 303.599 66.9334 304.399 50.6667 309.733C31.6 316.133 9.86669 326.133 5.33336 330.666C3.86669 332.133 2.13336 333.333 1.33336 333.333C-2.13331 333.333 0.800023 335.999 10 341.199C17.3334 345.466 20.9334 346.799 23.6 346.266C25.6 345.866 28.9334 346.399 30.9334 347.466C34.1334 349.066 35.8667 348.933 47.8667 345.333C65.3334 340.133 67.8667 340.133 68.9334 345.333L69.7334 349.333H85.4667C101.333 349.333 106.4 348.666 142.933 341.199L162.4 337.199L182.933 339.199C194.133 340.399 208.4 342.133 214.667 343.333C252.667 349.999 356.133 366.666 360.267 366.666C362.933 366.666 374.933 365.066 386.933 363.199C410.8 359.466 422.133 357.733 433.333 355.999C437.333 355.466 462.267 355.199 488.667 355.599C526.533 355.999 540 356.666 552.667 358.666C614.533 368.266 671.2 377.333 671.467 377.733C671.6 377.866 674.267 390.933 677.333 406.666C680.267 422.399 684 441.066 685.333 447.999C692.533 483.866 694.933 497.866 696 510.666C696.8 518.399 698 531.599 698.667 539.999C699.467 548.399 700.667 561.866 701.333 569.999C705.867 619.999 705.733 615.199 702 636.799C698.8 655.066 692.533 690.399 689.333 707.999C686 726.133 682.667 745.999 680.133 762.266C674.667 796.799 671.733 815.466 669.2 830.666C666.933 844.399 666.533 857.999 665.2 959.466L663.867 1073.07L668 1094.8C670.267 1106.8 673.333 1122.93 674.8 1130.67C676.267 1138.4 678 1147.07 678.667 1150C679.333 1152.93 679.6 1160.4 679.2 1166.67C678.933 1172.93 678 1193.33 677.333 1212C676.533 1230.67 675.333 1258.27 674.667 1273.33C674 1288.4 672.8 1316 672 1334.67L670.533 1368.67L674.533 1393.33C679.733 1424.93 689.067 1482.53 696.8 1529.33C700 1549.47 703.733 1571.47 704.8 1578.27C707.067 1591.6 707.2 1590.53 698.667 1628.67C694.933 1645.73 687.867 1661.47 679.467 1671.6L672 1680.53V1693.6V1706.67H717.867H763.6L764.533 1700.53C765.867 1690 765.467 1668.27 763.067 1639.2C760.133 1601.2 760.133 1581.87 763.733 1546.67C765.333 1530.13 768.4 1497.2 770.667 1473.33C772.933 1449.47 776 1416.8 777.467 1400.67C780.933 1364.53 781.067 1377.47 776.133 1218.67C774.8 1177.07 774.4 1180.93 789.333 1091.33C799.333 1030.8 801.067 1018.8 808 965.333C809.6 953.199 812 934.666 813.333 923.999C814.667 913.333 816.267 901.199 816.8 896.933C817.733 888.533 819.2 887.466 829.333 887.466C839.467 887.466 840.933 888.533 841.867 896.933C842.4 901.199 844 913.333 845.333 923.999C846.667 934.666 849.067 953.199 850.667 965.333C857.6 1018.8 859.333 1030.8 869.333 1091.33C884.267 1180.93 883.867 1177.07 882.533 1218.67C882 1238.13 880.8 1274.4 880 1299.33C878 1364.8 878 1368.4 881.2 1400.67C882.667 1416.8 885.733 1449.47 888 1473.33C890.267 1497.2 893.333 1530.13 894.933 1546.67C898.533 1581.87 898.533 1601.2 895.6 1639.2C893.2 1668.27 892.8 1690 894.133 1700.53L895.067 1706.67H940.8H986.667V1693.6V1680.53L979.2 1671.6C970.8 1661.47 963.733 1645.73 960 1628.67C951.467 1590.53 951.6 1591.6 953.867 1578.27C954.933 1571.47 958.667 1549.2 962 1528.67C970.667 1475.6 979.467 1422 984.133 1393.33L988.133 1368.67L986.667 1334.67C985.867 1316 984.667 1288.4 984 1273.33C983.333 1258.27 982.133 1230.67 981.333 1212C980.667 1193.33 979.733 1172.93 979.467 1166.67C979.067 1160.4 979.467 1152.93 980.133 1150C980.667 1147.07 983.067 1134.8 985.333 1122.67C987.6 1110.53 990.667 1094.53 992.133 1086.93C994.8 1073.6 994.8 1071.07 993.467 959.599C992.133 857.999 991.733 844.399 989.467 830.666C986.933 815.466 984 796.799 978.533 762.266C976 745.999 972.533 725.599 969.333 707.999C968.533 703.999 965.6 687.199 962.667 670.666C959.733 654.133 956.667 637.066 955.733 632.666C953.6 622.666 953.867 605.466 956.533 577.333C957.733 565.199 959.2 548.399 960 539.999C963.333 501.733 964.133 495.599 967.333 478.666C969.333 468.799 972.533 451.999 974.667 441.333C976.667 430.666 980.267 411.999 982.667 399.733L987.067 377.599L991.2 376.799C993.467 376.266 1010.67 373.599 1029.33 370.666C1048 367.733 1074.8 363.466 1088.67 361.199C1112.53 357.199 1116.8 356.933 1165.33 355.999C1198 355.199 1220 355.333 1226 356.266C1237.47 357.866 1244 358.799 1271.73 363.199C1283.73 365.066 1295.73 366.666 1298.4 366.666C1302.53 366.666 1406 349.999 1444 343.333C1450.27 342.133 1464.4 340.399 1475.6 339.199L1495.87 337.199L1515.6 341.199C1553.07 348.666 1557.47 349.333 1573.2 349.333H1589.07L1589.87 345.333C1590.8 340.133 1593.33 340.133 1610.8 345.333C1622.8 348.933 1624.53 349.066 1627.73 347.466C1629.73 346.399 1633.07 345.866 1635.07 346.266C1637.73 346.799 1641.33 345.466 1648.67 341.199C1657.87 335.999 1660.8 333.333 1657.33 333.333C1656.67 333.333 1654.8 332.133 1653.33 330.666C1648.8 326.133 1627.07 316.133 1608 309.733C1591.73 304.399 1588.13 303.599 1570.67 302.533C1560 301.866 1528.53 301.333 1500.67 301.466L1450 301.733L1382.67 289.333C1345.6 282.533 1311.2 276.266 1306 275.333C1297.47 273.866 1293.73 274.133 1258.67 278.933L1220.67 283.999L1170.67 279.999C1119.2 275.733 1108.67 274.666 1057.33 267.733C1016.8 262.399 1003.87 261.733 985.2 264.533L970 266.799L943.867 261.599C921.067 256.933 914.933 255.199 897.2 247.733L876.667 239.199L876 221.999L875.333 204.799L882.8 193.199C888.933 183.599 891.2 178.133 896.533 160.533C900.133 148.799 905.067 134.533 907.467 128.666C910.4 121.333 912.8 112.266 914.8 99.7326L917.6 81.4659L914.267 77.3326C912.4 75.1993 910.533 72.2659 910.133 71.0659C909.733 69.7326 906.933 59.9993 904 49.3326C900.933 38.6659 897.467 28.9326 896.267 27.5993C895.067 26.1326 888.4 21.0659 881.333 16.2659L868.667 7.46593L850 3.73259C839.733 1.73259 830.133 0.132593 828.667 0.132593C827.2 0.132593 817.867 1.86593 808 3.86593Z" fill="black"/>
</g>
<g clip-path="url(#clip1_66_99)">
<path d="M808 3.86593C790 7.46593 789.867 7.46593 777.333 16.2659C770.267 21.0659 763.6 26.1326 762.4 27.5993C761.2 28.9326 757.733 38.6659 754.667 49.3326C751.733 59.9993 748.933 69.7326 748.533 71.0659C748.133 72.2659 746.267 75.1993 744.4 77.3326L741.067 81.4659L743.867 99.7326C745.867 112.266 748.267 121.333 751.2 128.666C753.6 134.533 758.533 148.933 762.133 160.666C767.6 178.666 769.733 183.733 776 193.333L783.333 204.666L782.667 221.866L782 239.199L761.467 247.733C743.733 255.199 737.6 256.933 714.8 261.599L688.667 266.799L673.467 264.533C654.8 261.733 641.867 262.399 601.333 267.733C550 274.666 539.467 275.733 488 279.999L438 283.999L400 278.933C364.933 274.133 361.2 273.866 352.667 275.333C347.467 276.266 313.067 282.533 276 289.333L208.667 301.733L158 301.466C130.133 301.333 98.6667 301.866 88 302.533C70.5334 303.599 66.9334 304.399 50.6667 309.733C31.6 316.133 9.86669 326.133 5.33336 330.666C3.86669 332.133 2.13336 333.333 1.33336 333.333C-2.13331 333.333 0.800023 335.999 10 341.199C17.3334 345.466 20.9334 346.799 23.6 346.266C25.6 345.866 28.9334 346.399 30.9334 347.466C34.1334 349.066 35.8667 348.933 47.8667 345.333C65.3334 340.133 67.8667 340.133 68.9334 345.333L69.7334 349.333H85.4667C101.333 349.333 106.4 348.666 142.933 341.199L162.4 337.199L182.933 339.199C194.133 340.399 208.4 342.133 214.667 343.333C252.667 349.999 356.133 366.666 360.267 366.666C362.933 366.666 374.933 365.066 386.933 363.199C410.8 359.466 422.133 357.733 433.333 355.999C437.333 355.466 462.267 355.199 488.667 355.599C526.533 355.999 540 356.666 552.667 358.666C614.533 368.266 671.2 377.333 671.467 377.733C671.6 377.866 674.267 390.933 677.333 406.666C680.267 422.399 684 441.066 685.333 447.999C692.533 483.866 694.933 497.866 696 510.666C696.8 518.399 698 531.599 698.667 539.999C699.467 548.399 700.667 561.866 701.333 569.999C705.867 619.999 705.733 615.199 702 636.799C698.8 655.066 692.533 690.399 689.333 707.999C686 726.133 682.667 745.999 680.133 762.266C674.667 796.799 671.733 815.466 669.2 830.666C666.933 844.399 666.533 857.999 665.2 959.466L663.867 1073.07L668 1094.8C670.267 1106.8 673.333 1122.93 674.8 1130.67C676.267 1138.4 678 1147.07 678.667 1150C679.333 1152.93 679.6 1160.4 679.2 1166.67C678.933 1172.93 678 1193.33 677.333 1212C676.533 1230.67 675.333 1258.27 674.667 1273.33C674 1288.4 672.8 1316 672 1334.67L670.533 1368.67L674.533 1393.33C679.733 1424.93 689.067 1482.53 696.8 1529.33C700 1549.47 703.733 1571.47 704.8 1578.27C707.067 1591.6 707.2 1590.53 698.667 1628.67C694.933 1645.73 687.867 1661.47 679.467 1671.6L672 1680.53V1693.6V1706.67H717.867H763.6L764.533 1700.53C765.867 1690 765.467 1668.27 763.067 1639.2C760.133 1601.2 760.133 1581.87 763.733 1546.67C765.333 1530.13 768.4 1497.2 770.667 1473.33C772.933 1449.47 776 1416.8 777.467 1400.67C780.933 1364.53 781.067 1377.47 776.133 1218.67C774.8 1177.07 774.4 1180.93 789.333 1091.33C799.333 1030.8 801.067 1018.8 808 965.333C809.6 953.199 812 934.666 813.333 923.999C814.667 913.333 816.267 901.199 816.8 896.933C817.733 888.533 819.2 887.466 829.333 887.466C839.467 887.466 840.933 888.533 841.867 896.933C842.4 901.199 844 913.333 845.333 923.999C846.667 934.666 849.067 953.199 850.667 965.333C857.6 1018.8 859.333 1030.8 869.333 1091.33C884.267 1180.93 883.867 1177.07 882.533 1218.67C882 1238.13 880.8 1274.4 880 1299.33C878 1364.8 878 1368.4 881.2 1400.67C882.667 1416.8 885.733 1449.47 888 1473.33C890.267 1497.2 893.333 1530.13 894.933 1546.67C898.533 1581.87 898.533 1601.2 895.6 1639.2C893.2 1668.27 892.8 1690 894.133 1700.53L895.067 1706.67H940.8H986.667V1693.6V1680.53L979.2 1671.6C970.8 1661.47 963.733 1645.73 960 1628.67C951.467 1590.53 951.6 1591.6 953.867 1578.27C954.933 1571.47 958.667 1549.2 962 1528.67C970.667 1475.6 979.467 1422 984.133 1393.33L988.133 1368.67L986.667 1334.67C985.867 1316 984.667 1288.4 984 1273.33C983.333 1258.27 982.133 1230.67 981.333 1212C980.667 1193.33 979.733 1172.93 979.467 1166.67C979.067 1160.4 979.467 1152.93 980.133 1150C980.667 1147.07 983.067 1134.8 985.333 1122.67C987.6 1110.53 990.667 1094.53 992.133 1086.93C994.8 1073.6 994.8 1071.07 993.467 959.599C992.133 857.999 991.733 844.399 989.467 830.666C986.933 815.466 984 796.799 978.533 762.266C976 745.999 972.533 725.599 969.333 707.999C968.533 703.999 965.6 687.199 962.667 670.666C959.733 654.133 956.667 637.066 955.733 632.666C953.6 622.666 953.867 605.466 956.533 577.333C957.733 565.199 959.2 548.399 960 539.999C963.333 501.733 964.133 495.599 967.333 478.666C969.333 468.799 972.533 451.999 974.667 441.333C976.667 430.666 980.267 411.999 982.667 399.733L987.067 377.599L991.2 376.799C993.467 376.266 1010.67 373.599 1029.33 370.666C1048 367.733 1074.8 363.466 1088.67 361.199C1112.53 357.199 1116.8 356.933 1165.33 355.999C1198 355.199 1220 355.333 1226 356.266C1237.47 357.866 1244 358.799 1271.73 363.199C1283.73 365.066 1295.73 366.666 1298.4 366.666C1302.53 366.666 1406 349.999 1444 343.333C1450.27 342.133 1464.4 340.399 1475.6 339.199L1495.87 337.199L1515.6 341.199C1553.07 348.666 1557.47 349.333 1573.2 349.333H1589.07L1589.87 345.333C1590.8 340.133 1593.33 340.133 1610.8 345.333C1622.8 348.933 1624.53 349.066 1627.73 347.466C1629.73 346.399 1633.07 345.866 1635.07 346.266C1637.73 346.799 1641.33 345.466 1648.67 341.199C1657.87 335.999 1660.8 333.333 1657.33 333.333C1656.67 333.333 1654.8 332.133 1653.33 330.666C1648.8 326.133 1627.07 316.133 1608 309.733C1591.73 304.399 1588.13 303.599 1570.67 302.533C1560 301.866 1528.53 301.333 1500.67 301.466L1450 301.733L1382.67 289.333C1345.6 282.533 1311.2 276.266 1306 275.333C1297.47 273.866 1293.73 274.133 1258.67 278.933L1220.67 283.999L1170.67 279.999C1119.2 275.733 1108.67 274.666 1057.33 267.733C1016.8 262.399 1003.87 261.733 985.2 264.533L970 266.799L943.867 261.599C921.067 256.933 914.933 255.199 897.2 247.733L876.667 239.199L876 221.999L875.333 204.799L882.8 193.199C888.933 183.599 891.2 178.133 896.533 160.533C900.133 148.799 905.067 134.533 907.467 128.666C910.4 121.333 912.8 112.266 914.8 99.7326L917.6 81.4659L914.267 77.3326C912.4 75.1993 910.533 72.2659 910.133 71.0659C909.733 69.7326 906.933 59.9993 904 49.3326C900.933 38.6659 897.467 28.9326 896.267 27.5993C895.067 26.1326 888.4 21.0659 881.333 16.2659L868.667 7.46593L850 3.73259C839.733 1.73259 830.133 0.132593 828.667 0.132593C827.2 0.132593 817.867 1.86593 808 3.86593Z" fill="black"/>
</g>
<g clip-path="url(#clip2_66_99)">
<path d="M808 3.86593C790 7.46593 789.867 7.46593 777.333 16.2659C770.267 21.0659 763.6 26.1326 762.4 27.5993C761.2 28.9326 757.733 38.6659 754.667 49.3326C751.733 59.9993 748.933 69.7326 748.533 71.0659C748.133 72.2659 746.267 75.1993 744.4 77.3326L741.067 81.4659L743.867 99.7326C745.867 112.266 748.267 121.333 751.2 128.666C753.6 134.533 758.533 148.933 762.133 160.666C767.6 178.666 769.733 183.733 776 193.333L783.333 204.666L782.667 221.866L782 239.199L761.467 247.733C743.733 255.199 737.6 256.933 714.8 261.599L688.667 266.799L673.467 264.533C654.8 261.733 641.867 262.399 601.333 267.733C550 274.666 539.467 275.733 488 279.999L438 283.999L400 278.933C364.933 274.133 361.2 273.866 352.667 275.333C347.467 276.266 313.067 282.533 276 289.333L208.667 301.733L158 301.466C130.133 301.333 98.6667 301.866 88 302.533C70.5334 303.599 66.9334 304.399 50.6667 309.733C31.6 316.133 9.86669 326.133 5.33336 330.666C3.86669 332.133 2.13336 333.333 1.33336 333.333C-2.13331 333.333 0.800023 335.999 10 341.199C17.3334 345.466 20.9334 346.799 23.6 346.266C25.6 345.866 28.9334 346.399 30.9334 347.466C34.1334 349.066 35.8667 348.933 47.8667 345.333C65.3334 340.133 67.8667 340.133 68.9334 345.333L69.7334 349.333H85.4667C101.333 349.333 106.4 348.666 142.933 341.199L162.4 337.199L182.933 339.199C194.133 340.399 208.4 342.133 214.667 343.333C252.667 349.999 356.133 366.666 360.267 366.666C362.933 366.666 374.933 365.066 386.933 363.199C410.8 359.466 422.133 357.733 433.333 355.999C437.333 355.466 462.267 355.199 488.667 355.599C526.533 355.999 540 356.666 552.667 358.666C614.533 368.266 671.2 377.333 671.467 377.733C671.6 377.866 674.267 390.933 677.333 406.666C680.267 422.399 684 441.066 685.333 447.999C692.533 483.866 694.933 497.866 696 510.666C696.8 518.399 698 531.599 698.667 539.999C699.467 548.399 700.667 561.866 701.333 569.999C705.867 619.999 705.733 615.199 702 636.799C698.8 655.066 692.533 690.399 689.333 707.999C686 726.133 682.667 745.999 680.133 762.266C674.667 796.799 671.733 815.466 669.2 830.666C666.933 844.399 666.533 857.999 665.2 959.466L663.867 1073.07L668 1094.8C670.267 1106.8 673.333 1122.93 674.8 1130.67C676.267 1138.4 678 1147.07 678.667 1150C679.333 1152.93 679.6 1160.4 679.2 1166.67C678.933 1172.93 678 1193.33 677.333 1212C676.533 1230.67 675.333 1258.27 674.667 1273.33C674 1288.4 672.8 1316 672 1334.67L670.533 1368.67L674.533 1393.33C679.733 1424.93 689.067 1482.53 696.8 1529.33C700 1549.47 703.733 1571.47 704.8 1578.27C707.067 1591.6 707.2 1590.53 698.667 1628.67C694.933 1645.73 687.867 1661.47 679.467 1671.6L672 1680.53V1693.6V1706.67H717.867H763.6L764.533 1700.53C765.867 1690 765.467 1668.27 763.067 1639.2C760.133 1601.2 760.133 1581.87 763.733 1546.67C765.333 1530.13 768.4 1497.2 770.667 1473.33C772.933 1449.47 776 1416.8 777.467 1400.67C780.933 1364.53 781.067 1377.47 776.133 1218.67C774.8 1177.07 774.4 1180.93 789.333 1091.33C799.333 1030.8 801.067 1018.8 808 965.333C809.6 953.199 812 934.666 813.333 923.999C814.667 913.333 816.267 901.199 816.8 896.933C817.733 888.533 819.2 887.466 829.333 887.466C839.467 887.466 840.933 888.533 841.867 896.933C842.4 901.199 844 913.333 845.333 923.999C846.667 934.666 849.067 953.199 850.667 965.333C857.6 1018.8 859.333 1030.8 869.333 1091.33C884.267 1180.93 883.867 1177.07 882.533 1218.67C882 1238.13 880.8 1274.4 880 1299.33C878 1364.8 878 1368.4 881.2 1400.67C882.667 1416.8 885.733 1449.47 888 1473.33C890.267 1497.2 893.333 1530.13 894.933 1546.67C898.533 1581.87 898.533 1601.2 895.6 1639.2C893.2 1668.27 892.8 1690 894.133 1700.53L895.067 1706.67H940.8H986.667V1693.6V1680.53L979.2 1671.6C970.8 1661.47 963.733 1645.73 960 1628.67C951.467 1590.53 951.6 1591.6 953.867 1578.27C954.933 1571.47 958.667 1549.2 962 1528.67C970.667 1475.6 979.467 1422 984.133 1393.33L988.133 1368.67L986.667 1334.67C985.867 1316 984.667 1288.4 984 1273.33C983.333 1258.27 982.133 1230.67 981.333 1212C980.667 1193.33 979.733 1172.93 979.467 1166.67C979.067 1160.4 979.467 1152.93 980.133 1150C980.667 1147.07 983.067 1134.8 985.333 1122.67C987.6 1110.53 990.667 1094.53 992.133 1086.93C994.8 1073.6 994.8 1071.07 993.467 959.599C992.133 857.999 991.733 844.399 989.467 830.666C986.933 815.466 984 796.799 978.533 762.266C976 745.999 972.533 725.599 969.333 707.999C968.533 703.999 965.6 687.199 962.667 670.666C959.733 654.133 956.667 637.066 955.733 632.666C953.6 622.666 953.867 605.466 956.533 577.333C957.733 565.199 959.2 548.399 960 539.999C963.333 501.733 964.133 495.599 967.333 478.666C969.333 468.799 972.533 451.999 974.667 441.333C976.667 430.666 980.267 411.999 982.667 399.733L987.067 377.599L991.2 376.799C993.467 376.266 1010.67 373.599 1029.33 370.666C1048 367.733 1074.8 363.466 1088.67 361.199C1112.53 357.199 1116.8 356.933 1165.33 355.999C1198 355.199 1220 355.333 1226 356.266C1237.47 357.866 1244 358.799 1271.73 363.199C1283.73 365.066 1295.73 366.666 1298.4 366.666C1302.53 366.666 1406 349.999 1444 343.333C1450.27 342.133 1464.4 340.399 1475.6 339.199L1495.87 337.199L1515.6 341.199C1553.07 348.666 1557.47 349.333 1573.2 349.333H1589.07L1589.87 345.333C1590.8 340.133 1593.33 340.133 1610.8 345.333C1622.8 348.933 1624.53 349.066 1627.73 347.466C1629.73 346.399 1633.07 345.866 1635.07 346.266C1637.73 346.799 1641.33 345.466 1648.67 341.199C1657.87 335.999 1660.8 333.333 1657.33 333.333C1656.67 333.333 1654.8 332.133 1653.33 330.666C1648.8 326.133 1627.07 316.133 1608 309.733C1591.73 304.399 1588.13 303.599 1570.67 302.533C1560 301.866 1528.53 301.333 1500.67 301.466L1450 301.733L1382.67 289.333C1345.6 282.533 1311.2 276.266 1306 275.333C1297.47 273.866 1293.73 274.133 1258.67 278.933L1220.67 283.999L1170.67 279.999C1119.2 275.733 1108.67 274.666 1057.33 267.733C1016.8 262.399 1003.87 261.733 985.2 264.533L970 266.799L943.867 261.599C921.067 256.933 914.933 255.199 897.2 247.733L876.667 239.199L876 221.999L875.333 204.799L882.8 193.199C888.933 183.599 891.2 178.133 896.533 160.533C900.133 148.799 905.067 134.533 907.467 128.666C910.4 121.333 912.8 112.266 914.8 99.7326L917.6 81.4659L914.267 77.3326C912.4 75.1993 910.533 72.2659 910.133 71.0659C909.733 69.7326 906.933 59.9993 904 49.3326C900.933 38.6659 897.467 28.9326 896.267 27.5993C895.067 26.1326 888.4 21.0659 881.333 16.2659L868.667 7.46593L850 3.73259C839.733 1.73259 830.133 0.132593 828.667 0.132593C827.2 0.132593 817.867 1.86593 808 3.86593Z" fill="black"/>
</g>
<g clip-path="url(#clip3_66_99)">
<path d="M808 3.86593C790 7.46593 789.867 7.46593 777.333 16.2659C770.267 21.0659 763.6 26.1326 762.4 27.5993C761.2 28.9326 757.733 38.6659 754.667 49.3326C751.733 59.9993 748.933 69.7326 748.533 71.0659C748.133 72.2659 746.267 75.1993 744.4 77.3326L741.067 81.4659L743.867 99.7326C745.867 112.266 748.267 121.333 751.2 128.666C753.6 134.533 758.533 148.933 762.133 160.666C767.6 178.666 769.733 183.733 776 193.333L783.333 204.666L782.667 221.866L782 239.199L761.467 247.733C743.733 255.199 737.6 256.933 714.8 261.599L688.667 266.799L673.467 264.533C654.8 261.733 641.867 262.399 601.333 267.733C550 274.666 539.467 275.733 488 279.999L438 283.999L400 278.933C364.933 274.133 361.2 273.866 352.667 275.333C347.467 276.266 313.067 282.533 276 289.333L208.667 301.733L158 301.466C130.133 301.333 98.6667 301.866 88 302.533C70.5334 303.599 66.9334 304.399 50.6667 309.733C31.6 316.133 9.86669 326.133 5.33336 330.666C3.86669 332.133 2.13336 333.333 1.33336 333.333C-2.13331 333.333 0.800023 335.999 10 341.199C17.3334 345.466 20.9334 346.799 23.6 346.266C25.6 345.866 28.9334 346.399 30.9334 347.466C34.1334 349.066 35.8667 348.933 47.8667 345.333C65.3334 340.133 67.8667 340.133 68.9334 345.333L69.7334 349.333H85.4667C101.333 349.333 106.4 348.666 142.933 341.199L162.4 337.199L182.933 339.199C194.133 340.399 208.4 342.133 214.667 343.333C252.667 349.999 356.133 366.666 360.267 366.666C362.933 366.666 374.933 365.066 386.933 363.199C410.8 359.466 422.133 357.733 433.333 355.999C437.333 355.466 462.267 355.199 488.667 355.599C526.533 355.999 540 356.666 552.667 358.666C614.533 368.266 671.2 377.333 671.467 377.733C671.6 377.866 674.267 390.933 677.333 406.666C680.267 422.399 684 441.066 685.333 447.999C692.533 483.866 694.933 497.866 696 510.666C696.8 518.399 698 531.599 698.667 539.999C699.467 548.399 700.667 561.866 701.333 569.999C705.867 619.999 705.733 615.199 702 636.799C698.8 655.066 692.533 690.399 689.333 707.999C686 726.133 682.667 745.999 680.133 762.266C674.667 796.799 671.733 815.466 669.2 830.666C666.933 844.399 666.533 857.999 665.2 959.466L663.867 1073.07L668 1094.8C670.267 1106.8 673.333 1122.93 674.8 1130.67C676.267 1138.4 678 1147.07 678.667 1150C679.333 1152.93 679.6 1160.4 679.2 1166.67C678.933 1172.93 678 1193.33 677.333 1212C676.533 1230.67 675.333 1258.27 674.667 1273.33C674 1288.4 672.8 1316 672 1334.67L670.533 1368.67L674.533 1393.33C679.733 1424.93 689.067 1482.53 696.8 1529.33C700 1549.47 703.733 1571.47 704.8 1578.27C707.067 1591.6 707.2 1590.53 698.667 1628.67C694.933 1645.73 687.867 1661.47 679.467 1671.6L672 1680.53V1693.6V1706.67H717.867H763.6L764.533 1700.53C765.867 1690 765.467 1668.27 763.067 1639.2C760.133 1601.2 760.133 1581.87 763.733 1546.67C765.333 1530.13 768.4 1497.2 770.667 1473.33C772.933 1449.47 776 1416.8 777.467 1400.67C780.933 1364.53 781.067 1377.47 776.133 1218.67C774.8 1177.07 774.4 1180.93 789.333 1091.33C799.333 1030.8 801.067 1018.8 808 965.333C809.6 953.199 812 934.666 813.333 923.999C814.667 913.333 816.267 901.199 816.8 896.933C817.733 888.533 819.2 887.466 829.333 887.466C839.467 887.466 840.933 888.533 841.867 896.933C842.4 901.199 844 913.333 845.333 923.999C846.667 934.666 849.067 953.199 850.667 965.333C857.6 1018.8 859.333 1030.8 869.333 1091.33C884.267 1180.93 883.867 1177.07 882.533 1218.67C882 1238.13 880.8 1274.4 880 1299.33C878 1364.8 878 1368.4 881.2 1400.67C882.667 1416.8 885.733 1449.47 888 1473.33C890.267 1497.2 893.333 1530.13 894.933 1546.67C898.533 1581.87 898.533 1601.2 895.6 1639.2C893.2 1668.27 892.8 1690 894.133 1700.53L895.067 1706.67H940.8H986.667V1693.6V1680.53L979.2 1671.6C970.8 1661.47 963.733 1645.73 960 1628.67C951.467 1590.53 951.6 1591.6 953.867 1578.27C954.933 1571.47 958.667 1549.2 962 1528.67C970.667 1475.6 979.467 1422 984.133 1393.33L988.133 1368.67L986.667 1334.67C985.867 1316 984.667 1288.4 984 1273.33C983.333 1258.27 982.133 1230.67 981.333 1212C980.667 1193.33 979.733 1172.93 979.467 1166.67C979.067 1160.4 979.467 1152.93 980.133 1150C980.667 1147.07 983.067 1134.8 985.333 1122.67C987.6 1110.53 990.667 1094.53 992.133 1086.93C994.8 1073.6 994.8 1071.07 993.467 959.599C992.133 857.999 991.733 844.399 989.467 830.666C986.933 815.466 984 796.799 978.533 762.266C976 745.999 972.533 725.599 969.333 707.999C968.533 703.999 965.6 687.199 962.667 670.666C959.733 654.133 956.667 637.066 955.733 632.666C953.6 622.666 953.867 605.466 956.533 577.333C957.733 565.199 959.2 548.399 960 539.999C963.333 501.733 964.133 495.599 967.333 478.666C969.333 468.799 972.533 451.999 974.667 441.333C976.667 430.666 980.267 411.999 982.667 399.733L987.067 377.599L991.2 376.799C993.467 376.266 1010.67 373.599 1029.33 370.666C1048 367.733 1074.8 363.466 1088.67 361.199C1112.53 357.199 1116.8 356.933 1165.33 355.999C1198 355.199 1220 355.333 1226 356.266C1237.47 357.866 1244 358.799 1271.73 363.199C1283.73 365.066 1295.73 366.666 1298.4 366.666C1302.53 366.666 1406 349.999 1444 343.333C1450.27 342.133 1464.4 340.399 1475.6 339.199L1495.87 337.199L1515.6 341.199C1553.07 348.666 1557.47 349.333 1573.2 349.333H1589.07L1589.87 345.333C1590.8 340.133 1593.33 340.133 1610.8 345.333C1622.8 348.933 1624.53 349.066 1627.73 347.466C1629.73 346.399 1633.07 345.866 1635.07 346.266C1637.73 346.799 1641.33 345.466 1648.67 341.199C1657.87 335.999 1660.8 333.333 1657.33 333.333C1656.67 333.333 1654.8 332.133 1653.33 330.666C1648.8 326.133 1627.07 316.133 1608 309.733C1591.73 304.399 1588.13 303.599 1570.67 302.533C1560 301.866 1528.53 301.333 1500.67 301.466L1450 301.733L1382.67 289.333C1345.6 282.533 1311.2 276.266 1306 275.333C1297.47 273.866 1293.73 274.133 1258.67 278.933L1220.67 283.999L1170.67 279.999C1119.2 275.733 1108.67 274.666 1057.33 267.733C1016.8 262.399 1003.87 261.733 985.2 264.533L970 266.799L943.867 261.599C921.067 256.933 914.933 255.199 897.2 247.733L876.667 239.199L876 221.999L875.333 204.799L882.8 193.199C888.933 183.599 891.2 178.133 896.533 160.533C900.133 148.799 905.067 134.533 907.467 128.666C910.4 121.333 912.8 112.266 914.8 99.7326L917.6 81.4659L914.267 77.3326C912.4 75.1993 910.533 72.2659 910.133 71.0659C909.733 69.7326 906.933 59.9993 904 49.3326C900.933 38.6659 897.467 28.9326 896.267 27.5993C895.067 26.1326 888.4 21.0659 881.333 16.2659L868.667 7.46593L850 3.73259C839.733 1.73259 830.133 0.132593 828.667 0.132593C827.2 0.132593 817.867 1.86593 808 3.86593Z" fill="black"/>
</g>
<g clip-path="url(#clip4_66_99)">
<path d="M808 3.86593C790 7.46593 789.867 7.46593 777.333 16.2659C770.267 21.0659 763.6 26.1326 762.4 27.5993C761.2 28.9326 757.733 38.6659 754.667 49.3326C751.733 59.9993 748.933 69.7326 748.533 71.0659C748.133 72.2659 746.267 75.1993 744.4 77.3326L741.067 81.4659L743.867 99.7326C745.867 112.266 748.267 121.333 751.2 128.666C753.6 134.533 758.533 148.933 762.133 160.666C767.6 178.666 769.733 183.733 776 193.333L783.333 204.666L782.667 221.866L782 239.199L761.467 247.733C743.733 255.199 737.6 256.933 714.8 261.599L688.667 266.799L673.467 264.533C654.8 261.733 641.867 262.399 601.333 267.733C550 274.666 539.467 275.733 488 279.999L438 283.999L400 278.933C364.933 274.133 361.2 273.866 352.667 275.333C347.467 276.266 313.067 282.533 276 289.333L208.667 301.733L158 301.466C130.133 301.333 98.6667 301.866 88 302.533C70.5334 303.599 66.9334 304.399 50.6667 309.733C31.6 316.133 9.86669 326.133 5.33336 330.666C3.86669 332.133 2.13336 333.333 1.33336 333.333C-2.13331 333.333 0.800023 335.999 10 341.199C17.3334 345.466 20.9334 346.799 23.6 346.266C25.6 345.866 28.9334 346.399 30.9334 347.466C34.1334 349.066 35.8667 348.933 47.8667 345.333C65.3334 340.133 67.8667 340.133 68.9334 345.333L69.7334 349.333H85.4667C101.333 349.333 106.4 348.666 142.933 341.199L162.4 337.199L182.933 339.199C194.133 340.399 208.4 342.133 214.667 343.333C252.667 349.999 356.133 366.666 360.267 366.666C362.933 366.666 374.933 365.066 386.933 363.199C410.8 359.466 422.133 357.733 433.333 355.999C437.333 355.466 462.267 355.199 488.667 355.599C526.533 355.999 540 356.666 552.667 358.666C614.533 368.266 671.2 377.333 671.467 377.733C671.6 377.866 674.267 390.933 677.333 406.666C680.267 422.399 684 441.066 685.333 447.999C692.533 483.866 694.933 497.866 696 510.666C696.8 518.399 698 531.599 698.667 539.999C699.467 548.399 700.667 561.866 701.333 569.999C705.867 619.999 705.733 615.199 702 636.799C698.8 655.066 692.533 690.399 689.333 707.999C686 726.133 682.667 745.999 680.133 762.266C674.667 796.799 671.733 815.466 669.2 830.666C666.933 844.399 666.533 857.999 665.2 959.466L663.867 1073.07L668 1094.8C670.267 1106.8 673.333 1122.93 674.8 1130.67C676.267 1138.4 678 1147.07 678.667 1150C679.333 1152.93 679.6 1160.4 679.2 1166.67C678.933 1172.93 678 1193.33 677.333 1212C676.533 1230.67 675.333 1258.27 674.667 1273.33C674 1288.4 672.8 1316 672 1334.67L670.533 1368.67L674.533 1393.33C679.733 1424.93 689.067 1482.53 696.8 1529.33C700 1549.47 703.733 1571.47 704.8 1578.27C707.067 1591.6 707.2 1590.53 698.667 1628.67C694.933 1645.73 687.867 1661.47 679.467 1671.6L672 1680.53V1693.6V1706.67H717.867H763.6L764.533 1700.53C765.867 1690 765.467 1668.27 763.067 1639.2C760.133 1601.2 760.133 1581.87 763.733 1546.67C765.333 1530.13 768.4 1497.2 770.667 1473.33C772.933 1449.47 776 1416.8 777.467 1400.67C780.933 1364.53 781.067 1377.47 776.133 1218.67C774.8 1177.07 774.4 1180.93 789.333 1091.33C799.333 1030.8 801.067 1018.8 808 965.333C809.6 953.199 812 934.666 813.333 923.999C814.667 913.333 816.267 901.199 816.8 896.933C817.733 888.533 819.2 887.466 829.333 887.466C839.467 887.466 840.933 888.533 841.867 896.933C842.4 901.199 844 913.333 845.333 923.999C846.667 934.666 849.067 953.199 850.667 965.333C857.6 1018.8 859.333 1030.8 869.333 1091.33C884.267 1180.93 883.867 1177.07 882.533 1218.67C882 1238.13 880.8 1274.4 880 1299.33C878 1364.8 878 1368.4 881.2 1400.67C882.667 1416.8 885.733 1449.47 888 1473.33C890.267 1497.2 893.333 1530.13 894.933 1546.67C898.533 1581.87 898.533 1601.2 895.6 1639.2C893.2 1668.27 892.8 1690 894.133 1700.53L895.067 1706.67H940.8H986.667V1693.6V1680.53L979.2 1671.6C970.8 1661.47 963.733 1645.73 960 1628.67C951.467 1590.53 951.6 1591.6 953.867 1578.27C954.933 1571.47 958.667 1549.2 962 1528.67C970.667 1475.6 979.467 1422 984.133 1393.33L988.133 1368.67L986.667 1334.67C985.867 1316 984.667 1288.4 984 1273.33C983.333 1258.27 982.133 1230.67 981.333 1212C980.667 1193.33 979.733 1172.93 979.467 1166.67C979.067 1160.4 979.467 1152.93 980.133 1150C980.667 1147.07 983.067 1134.8 985.333 1122.67C987.6 1110.53 990.667 1094.53 992.133 1086.93C994.8 1073.6 994.8 1071.07 993.467 959.599C992.133 857.999 991.733 844.399 989.467 830.666C986.933 815.466 984 796.799 978.533 762.266C976 745.999 972.533 725.599 969.333 707.999C968.533 703.999 965.6 687.199 962.667 670.666C959.733 654.133 956.667 637.066 955.733 632.666C953.6 622.666 953.867 605.466 956.533 577.333C957.733 565.199 959.2 548.399 960 539.999C963.333 501.733 964.133 495.599 967.333 478.666C969.333 468.799 972.533 451.999 974.667 441.333C976.667 430.666 980.267 411.999 982.667 399.733L987.067 377.599L991.2 376.799C993.467 376.266 1010.67 373.599 1029.33 370.666C1048 367.733 1074.8 363.466 1088.67 361.199C1112.53 357.199 1116.8 356.933 1165.33 355.999C1198 355.199 1220 355.333 1226 356.266C1237.47 357.866 1244 358.799 1271.73 363.199C1283.73 365.066 1295.73 366.666 1298.4 366.666C1302.53 366.666 1406 349.999 1444 343.333C1450.27 342.133 1464.4 340.399 1475.6 339.199L1495.87 337.199L1515.6 341.199C1553.07 348.666 1557.47 349.333 1573.2 349.333H1589.07L1589.87 345.333C1590.8 340.133 1593.33 340.133 1610.8 345.333C1622.8 348.933 1624.53 349.066 1627.73 347.466C1629.73 346.399 1633.07 345.866 1635.07 346.266C1637.73 346.799 1641.33 345.466 1648.67 341.199C1657.87 335.999 1660.8 333.333 1657.33 333.333C1656.67 333.333 1654.8 332.133 1653.33 330.666C1648.8 326.133 1627.07 316.133 1608 309.733C1591.73 304.399 1588.13 303.599 1570.67 302.533C1560 301.866 1528.53 301.333 1500.67 301.466L1450 301.733L1382.67 289.333C1345.6 282.533 1311.2 276.266 1306 275.333C1297.47 273.866 1293.73 274.133 1258.67 278.933L1220.67 283.999L1170.67 279.999C1119.2 275.733 1108.67 274.666 1057.33 267.733C1016.8 262.399 1003.87 261.733 985.2 264.533L970 266.799L943.867 261.599C921.067 256.933 914.933 255.199 897.2 247.733L876.667 239.199L876 221.999L875.333 204.799L882.8 193.199C888.933 183.599 891.2 178.133 896.533 160.533C900.133 148.799 905.067 134.533 907.467 128.666C910.4 121.333 912.8 112.266 914.8 99.7326L917.6 81.4659L914.267 77.3326C912.4 75.1993 910.533 72.2659 910.133 71.0659C909.733 69.7326 906.933 59.9993 904 49.3326C900.933 38.6659 897.467 28.9326 896.267 27.5993C895.067 26.1326 888.4 21.0659 881.333 16.2659L868.667 7.46593L850 3.73259C839.733 1.73259 830.133 0.132593 828.667 0.132593C827.2 0.132593 817.867 1.86593 808 3.86593Z" fill="black"/>
</g>
<defs>
<clipPath id="clip0_66_99">
<rect width="490" height="854" fill="white" transform="translate(608 853)"/>
</clipPath>
<clipPath id="clip1_66_99">
<rect width="333" height="606" fill="white" transform="translate(670 247)"/>
</clipPath>
<clipPath id="clip2_66_99">
<rect width="656" height="157" fill="white" transform="translate(1003 247)"/>
</clipPath>
<clipPath id="clip3_66_99">
<rect width="670" height="157" fill="white" transform="translate(0 247)"/>
</clipPath>
<clipPath id="clip4_66_99">
<rect width="333" height="247" fill="white" transform="translate(670)"/>
</clipPath>
</defs>
</svg>
